{"glyphs":{"0":{"ha":997,"x_min":56,"x_max":940,"o":"m 873 157 q 871 151 872 155 q 865 144 868 148 q 857 133 861 138 q 848 121 853 126 q 838 111 844 115 q 830 103 834 107 q 827 100 829 102 q 825 98 826 100 q 811 84 821 94 q 808 81 810 83 q 804 77 807 80 q 799 69 802 73 q 792 61 796 65 q 784 56 789 58 q 777 57 774 56 q 773 54 780 58 q 768 47 772 52 q 761 34 764 41 q 750 20 758 26 q 735 18 743 16 q 719 16 727 19 q 707 12 715 15 q 707 11 707 12 q 701 5 704 8 q 694 0 699 3 q 688 3 689 -1 q 684 8 686 5 q 674 -4 680 3 q 662 -14 670 -11 q 651 -14 655 -16 q 643 -7 647 -9 q 637 -18 640 -12 q 627 -31 633 -22 q 624 -34 625 -31 q 621 -34 623 -34 q 620 -35 621 -35 q 617 -57 618 -46 q 614 -80 617 -69 q 612 -99 613 -91 q 609 -118 612 -109 q 605 -126 606 -121 q 602 -129 604 -130 q 598 -115 598 -122 q 597 -102 598 -109 q 595 -72 593 -76 q 587 -54 598 -68 q 582 -61 585 -57 q 576 -68 579 -64 q 566 -83 572 -76 q 564 -84 564 -83 q 563 -84 564 -84 q 560 -88 562 -85 q 556 -114 557 -102 q 553 -141 556 -127 q 551 -148 553 -142 q 548 -151 548 -151 q 547 -151 547 -151 q 544 -117 544 -133 q 541 -83 544 -99 q 532 -69 534 -75 q 530 -69 530 -69 q 530 -68 530 -68 q 519 -46 525 -57 q 509 -26 515 -37 q 499 -16 503 -16 q 491 -14 496 -15 q 491 -23 490 -15 q 481 -14 491 -33 q 292 22 372 -11 q 155 113 210 56 q 152 117 153 115 q 149 119 151 118 q 133 138 140 129 q 114 167 122 153 q 104 184 109 175 q 96 203 100 193 q 94 210 95 206 q 90 217 92 214 q 85 225 88 221 q 81 236 84 231 q 77 248 80 240 q 69 270 73 256 q 69 274 69 273 q 68 277 68 275 q 62 309 64 293 q 60 345 61 327 q 56 448 56 396 q 57 518 56 500 q 57 575 57 537 q 61 635 58 604 q 68 686 62 665 q 87 750 75 719 q 115 807 99 780 q 126 825 121 817 q 138 841 132 833 q 285 947 194 910 q 500 986 377 985 q 510 986 503 986 q 532 986 521 986 q 553 983 543 985 q 563 982 562 983 q 749 929 670 972 q 875 815 827 884 q 880 808 878 812 q 883 802 882 804 q 891 787 886 796 q 899 773 895 780 q 906 758 903 765 q 911 745 909 751 q 916 731 914 738 q 928 680 924 707 q 932 663 930 673 q 933 646 932 655 q 939 563 937 623 q 940 522 940 543 q 937 444 940 483 q 933 342 936 410 q 922 273 930 305 q 902 208 916 239 q 897 195 901 201 q 890 182 892 189 q 883 171 888 178 q 880 167 883 170 q 873 157 879 163 m 526 264 q 547 278 540 269 q 564 305 559 289 q 571 338 570 323 q 571 343 571 340 q 572 350 572 347 q 574 392 574 369 q 575 439 575 415 q 575 522 575 467 q 574 552 575 537 q 574 576 574 566 q 574 593 574 582 q 572 612 574 602 q 572 628 572 620 q 571 644 572 636 q 568 659 570 652 q 564 673 567 667 q 559 684 562 678 q 552 696 556 690 q 540 704 547 701 q 538 703 538 704 q 534 701 537 701 q 530 707 532 704 q 525 709 528 709 q 524 707 524 708 q 522 704 524 705 q 519 697 522 703 q 514 694 517 694 q 510 693 511 694 q 509 693 510 693 q 509 692 509 693 q 503 678 506 686 q 490 670 500 670 q 479 678 480 670 q 473 692 476 686 q 468 694 471 692 q 465 701 467 697 q 463 708 465 708 q 453 704 460 707 q 430 671 438 692 q 422 628 423 651 q 420 587 420 610 q 419 538 419 564 q 419 439 419 506 q 420 392 419 415 q 422 349 420 368 q 423 340 422 345 q 423 334 423 336 q 425 330 423 332 q 425 327 425 328 q 441 286 429 304 q 475 262 453 269 q 487 259 481 259 q 499 258 494 258 q 510 259 502 259 q 526 264 514 260 z "},"1":{"ha":773,"x_min":12,"x_max":697,"o":"m 696 104 q 697 68 696 85 q 697 54 697 61 q 696 31 697 42 q 693 23 696 26 q 689 15 692 20 q 686 12 688 14 q 682 8 685 9 q 681 8 682 8 q 681 7 681 8 q 675 -9 674 -8 q 677 -12 677 -11 q 665 -33 677 -14 q 663 -35 663 -34 q 643 -103 654 -65 q 620 -172 631 -140 q 612 -195 616 -183 q 602 -218 609 -208 q 598 -228 601 -222 q 591 -236 594 -233 q 586 -239 589 -239 q 581 -237 581 -239 q 578 -179 579 -217 q 578 -104 578 -141 q 575 -47 578 -68 q 564 -45 575 -46 q 559 -52 563 -49 q 553 -58 556 -56 q 551 -61 553 -58 q 534 -66 543 -71 q 533 -64 533 -65 q 529 -60 532 -61 q 522 -52 526 -57 q 521 -49 521 -50 q 519 -47 521 -49 q 513 -41 517 -45 q 506 -38 510 -39 q 500 -35 503 -37 q 498 -37 499 -37 q 495 -31 498 -37 q 486 -24 494 -31 q 480 -20 480 -19 q 477 -54 477 -38 q 475 -88 477 -72 q 472 -84 473 -92 q 469 -72 471 -76 q 469 -45 467 -50 q 461 -22 471 -41 q 458 -26 461 -23 q 457 -27 457 -27 q 454 -28 456 -27 q 453 -30 454 -30 q 454 -98 452 -60 q 448 -167 458 -134 q 445 -168 444 -179 q 450 -137 448 -159 q 452 -96 453 -117 q 442 -66 450 -75 q 433 -75 433 -58 q 433 -114 431 -92 q 438 -152 437 -137 q 437 -156 439 -167 q 433 -90 430 -123 q 431 -23 435 -54 q 425 -18 427 -19 q 419 -12 423 -16 q 416 -9 415 -8 q 414 -14 416 -11 q 407 -14 414 -14 q 400 -24 404 -19 q 392 -26 397 -31 q 385 -19 382 -18 q 389 -16 388 -19 q 373 1 391 -15 q 363 7 368 4 q 349 38 349 18 q 349 566 349 213 q 350 586 349 586 q 343 594 350 586 q 339 589 342 591 q 334 583 334 583 q 334 585 334 583 q 323 571 328 578 q 309 560 316 566 q 278 532 294 544 q 277 530 278 530 q 277 529 277 530 q 267 514 271 521 q 258 500 264 509 q 244 481 252 490 q 229 467 236 472 q 224 463 228 465 q 220 457 221 460 q 217 445 218 452 q 214 430 217 438 q 208 429 213 429 q 199 441 201 433 q 193 452 198 448 q 193 449 193 450 q 191 445 193 446 q 191 429 191 439 q 190 400 190 415 q 189 374 190 387 q 187 369 186 369 q 186 370 187 366 q 184 372 183 374 q 184 377 184 374 q 183 380 183 378 q 179 388 182 382 q 176 399 178 393 q 171 410 174 404 q 165 426 168 418 q 160 444 163 435 q 157 453 159 449 q 153 464 156 458 q 152 468 153 467 q 152 471 152 469 q 151 476 151 473 q 149 481 151 479 q 145 486 148 483 q 140 490 142 488 q 136 496 140 490 q 126 507 130 502 q 117 522 121 514 q 104 536 111 529 q 79 570 96 547 q 60 595 75 576 q 52 605 56 600 q 45 614 49 610 q 24 637 38 621 q 20 644 24 636 q 18 648 16 651 q 14 656 16 651 q 12 674 12 661 q 15 684 12 678 q 18 690 15 685 q 27 703 20 697 q 39 711 34 707 q 52 719 43 713 q 56 722 54 720 q 58 724 57 722 q 69 732 62 727 q 110 764 90 750 q 155 799 125 776 q 159 802 157 800 q 161 804 160 803 q 197 833 178 819 q 236 861 217 848 q 304 916 259 879 q 308 918 307 918 q 321 928 312 921 q 347 948 327 933 q 361 960 354 954 q 377 970 368 967 q 393 972 385 972 q 412 972 403 972 q 598 972 475 972 q 635 974 616 972 q 646 975 640 975 q 671 971 659 975 q 692 952 685 966 q 693 949 693 951 q 694 945 693 948 q 696 939 696 943 q 696 932 696 935 q 697 913 697 922 q 696 895 696 905 q 696 104 696 632 z "},"2":{"ha":978,"x_min":47,"x_max":925,"o":"m 925 49 q 924 38 925 45 q 924 31 924 33 q 922 27 924 30 q 922 24 922 26 q 920 20 921 23 q 917 15 920 18 q 910 7 914 11 q 903 0 906 3 q 890 -12 884 -18 q 901 0 894 -7 q 895 -3 899 -1 q 890 -7 892 -4 q 887 -12 890 -7 q 882 -23 884 -18 q 873 -35 879 -30 q 861 -42 869 -38 q 849 -47 854 -47 q 842 -45 838 -46 q 849 -43 846 -45 q 838 -39 853 -42 q 826 -52 834 -43 q 807 -69 817 -60 q 791 -90 799 -77 q 780 -102 787 -94 q 774 -109 777 -106 q 769 -117 772 -113 q 757 -138 761 -127 q 754 -146 755 -141 q 749 -155 751 -151 q 735 -178 741 -171 q 719 -195 731 -184 q 712 -209 715 -199 q 703 -220 709 -217 q 694 -214 697 -221 q 686 -208 692 -208 q 681 -212 684 -209 q 680 -213 680 -212 q 667 -231 674 -218 q 654 -254 661 -244 q 642 -264 648 -263 q 644 -305 640 -279 q 652 -357 648 -332 q 654 -399 656 -384 q 643 -410 652 -410 q 636 -408 640 -410 q 616 -372 616 -399 q 624 -312 617 -345 q 631 -259 632 -281 q 628 -256 628 -256 q 627 -255 628 -255 q 627 -255 627 -255 q 620 -250 624 -252 q 614 -244 617 -245 q 612 -243 613 -243 q 609 -241 610 -243 q 605 -255 605 -247 q 602 -271 605 -264 q 600 -277 601 -274 q 595 -282 597 -279 q 594 -321 594 -296 q 594 -368 594 -346 q 594 -400 595 -391 q 590 -396 593 -410 q 585 -315 582 -363 q 581 -228 587 -267 q 571 -212 575 -221 q 564 -193 567 -203 q 553 -159 559 -175 q 543 -123 548 -141 q 529 -79 537 -100 q 509 -35 519 -57 q 506 -34 507 -35 q 503 -34 505 -34 q 498 -34 498 -34 q 495 -98 495 -64 q 491 -164 495 -132 q 488 -165 491 -165 q 486 -164 486 -165 q 483 -98 483 -132 q 480 -34 483 -64 q 479 -33 480 -33 q 473 -46 476 -39 q 468 -60 471 -53 q 465 -69 467 -64 q 461 -77 464 -73 q 446 -121 456 -98 q 439 -140 444 -130 q 430 -159 435 -149 q 422 -175 427 -164 q 414 -186 416 -183 q 404 -193 408 -191 q 395 -216 399 -203 q 381 -233 392 -228 q 365 -229 372 -237 q 349 -218 357 -221 q 343 -217 346 -218 q 340 -218 343 -218 q 324 -201 331 -216 q 315 -179 317 -187 q 313 -174 313 -176 q 312 -168 312 -171 q 300 -132 305 -151 q 285 -95 293 -113 q 281 -85 283 -92 q 279 -84 281 -84 q 279 -81 279 -83 q 270 -66 274 -73 q 258 -52 266 -58 q 256 -49 258 -52 q 254 -46 255 -47 q 247 -42 252 -45 q 241 -47 245 -43 q 236 -53 236 -52 q 233 -98 233 -75 q 231 -141 233 -119 q 227 -156 231 -141 q 220 -172 224 -170 q 214 -170 218 -174 q 209 -155 212 -165 q 199 -95 201 -125 q 193 -35 198 -65 q 191 -34 191 -35 q 190 -34 191 -34 q 190 -33 190 -33 q 189 -33 189 -33 q 180 -23 184 -27 q 174 -18 175 -19 q 171 -15 172 -18 q 168 -20 168 -16 q 165 -22 168 -23 q 159 -14 163 -22 q 156 -23 156 -18 q 153 -34 156 -27 q 148 -38 151 -41 q 146 -19 144 -31 q 141 -9 149 -8 q 137 -20 134 -9 q 136 -38 138 -31 q 134 -38 136 -39 q 130 -37 132 -38 q 125 -35 127 -37 q 119 -35 122 -35 q 95 -22 104 -33 q 79 0 85 -12 q 68 4 76 1 q 65 8 66 7 q 60 11 62 9 q 49 33 50 20 q 47 42 47 38 q 47 52 47 46 q 47 62 47 56 q 49 110 49 85 q 49 160 49 134 q 49 182 49 167 q 53 213 49 190 q 79 254 57 236 q 95 266 85 262 q 110 277 103 271 q 141 300 121 285 q 163 315 153 307 q 182 330 172 323 q 232 370 197 345 q 307 423 267 396 q 382 477 347 452 q 431 518 416 503 q 437 521 435 519 q 439 524 438 522 q 463 545 450 534 q 484 566 475 556 q 509 593 499 581 q 525 617 518 605 q 538 667 538 642 q 538 680 538 674 q 536 690 538 685 q 533 697 536 692 q 521 709 530 705 q 517 705 518 708 q 513 699 515 701 q 481 686 499 685 q 469 690 475 686 q 456 700 463 696 q 449 703 454 700 q 445 701 446 703 q 438 696 441 700 q 433 689 437 692 q 423 671 427 681 q 415 651 419 661 q 411 644 412 646 q 408 637 410 642 q 406 635 408 637 q 389 617 400 625 q 368 602 380 609 q 339 587 354 594 q 307 579 324 581 q 277 582 292 578 q 245 590 262 586 q 236 594 243 591 q 218 600 229 597 q 216 602 218 600 q 214 604 214 602 q 213 604 214 604 q 212 602 213 602 q 212 598 212 601 q 210 593 212 595 q 210 587 210 590 q 209 574 210 578 q 208 570 209 570 q 203 574 206 568 q 201 576 205 572 q 197 582 197 582 q 195 583 197 582 q 191 590 195 585 q 180 604 184 597 q 180 605 180 605 q 179 606 179 605 q 176 601 178 604 q 168 591 175 598 q 163 587 164 587 q 160 598 160 590 q 151 590 156 594 q 140 581 146 585 q 137 579 138 579 q 133 578 134 579 q 132 559 132 568 q 127 538 130 548 q 126 534 127 537 q 122 533 123 532 q 122 557 119 544 q 117 576 125 570 q 113 570 113 581 q 115 548 114 560 q 111 541 117 538 q 106 562 103 548 q 107 585 110 575 q 104 581 106 587 q 102 574 104 572 q 99 582 96 583 q 103 582 102 581 q 94 601 104 583 q 90 587 94 590 q 87 591 88 586 q 83 598 85 595 q 71 616 69 614 q 76 613 71 617 q 85 609 83 610 q 76 621 81 613 q 73 624 75 623 q 72 627 72 625 q 71 629 72 628 q 65 640 66 635 q 65 663 64 651 q 68 688 66 677 q 88 762 72 726 q 95 779 91 770 q 103 796 99 788 q 114 815 107 806 q 117 818 114 815 q 117 819 117 818 q 118 819 117 819 q 133 842 125 831 q 146 857 140 852 q 292 956 203 921 q 487 991 380 991 q 510 991 499 991 q 530 990 521 991 q 541 990 537 991 q 556 990 548 990 q 568 989 563 990 q 582 986 576 989 q 586 986 585 986 q 589 985 587 985 q 595 985 591 985 q 601 983 598 983 q 632 978 612 982 q 635 977 633 978 q 637 977 636 977 q 696 960 669 970 q 749 936 724 949 q 749 936 749 936 q 751 935 750 935 q 802 902 780 920 q 863 830 838 871 q 898 741 887 791 q 902 709 902 724 q 903 684 903 694 q 903 681 903 682 q 902 661 903 671 q 901 640 902 651 q 901 628 901 636 q 899 624 899 627 q 898 618 899 621 q 888 594 895 609 q 849 513 876 553 q 819 475 838 495 q 741 396 787 437 q 719 378 734 389 q 711 372 715 374 q 701 363 705 368 q 690 353 696 358 q 680 345 686 347 q 673 340 678 343 q 671 339 671 340 q 670 339 671 339 q 665 326 669 335 q 658 312 662 315 q 652 313 656 311 q 651 317 651 315 q 650 321 651 320 q 631 301 643 315 q 625 298 628 300 q 620 294 623 296 q 618 292 620 293 q 618 286 618 289 q 836 286 690 286 q 860 288 842 286 q 892 286 878 289 q 916 273 910 282 q 924 252 922 264 q 925 239 925 245 q 925 231 925 235 q 924 208 924 218 q 924 99 924 171 q 924 73 924 85 q 925 49 925 61 m 71 628 q 71 628 71 628 q 72 627 71 628 q 72 627 72 627 q 73 623 72 627 q 73 623 73 623 q 73 623 73 623 q 71 628 72 625 z "},"3":{"ha":985,"x_min":33,"x_max":939,"o":"m 914 429 q 933 381 926 414 q 939 307 939 347 q 932 235 939 269 q 911 186 925 201 q 905 175 909 180 q 899 164 902 170 q 878 134 888 148 q 867 123 872 129 q 856 111 863 117 q 848 103 853 109 q 842 99 845 102 q 836 94 841 98 q 830 87 833 91 q 823 77 826 83 q 818 68 822 75 q 814 57 817 62 q 807 46 810 52 q 802 38 804 41 q 798 34 800 37 q 792 31 795 33 q 788 27 789 27 q 784 16 785 22 q 780 3 784 9 q 777 -5 779 0 q 774 -8 776 -11 q 772 8 770 -1 q 769 26 772 18 q 762 30 766 38 q 754 23 757 22 q 751 31 751 26 q 750 38 753 35 q 745 33 749 35 q 743 30 745 31 q 736 22 741 24 q 731 16 734 19 q 730 16 731 16 q 728 15 730 15 q 728 15 728 15 q 727 12 728 14 q 724 -11 726 1 q 720 -35 724 -23 q 722 -47 720 -41 q 716 -58 722 -54 q 713 -54 713 -61 q 712 -43 713 -47 q 711 -22 711 -33 q 708 -1 711 -11 q 690 -19 703 -7 q 684 -27 685 -24 q 670 -45 677 -38 q 659 -57 663 -52 q 655 -62 658 -60 q 648 -68 651 -65 q 639 -77 644 -73 q 628 -88 633 -81 q 624 -91 627 -90 q 618 -96 621 -94 q 616 -107 617 -102 q 614 -121 616 -114 q 608 -160 612 -140 q 600 -199 604 -180 q 594 -228 597 -214 q 583 -255 590 -243 q 579 -260 582 -256 q 576 -262 578 -262 q 572 -262 574 -263 q 567 -252 567 -255 q 566 -194 564 -224 q 562 -137 568 -165 q 559 -141 559 -129 q 562 -174 560 -155 q 562 -206 563 -193 q 556 -213 562 -220 q 547 -170 541 -193 q 551 -123 553 -146 q 549 -126 551 -119 q 547 -138 548 -133 q 545 -142 547 -146 q 543 -122 541 -133 q 540 -102 543 -111 q 536 -99 538 -100 q 529 -90 532 -95 q 522 -80 525 -84 q 519 -76 521 -77 q 517 -71 518 -73 q 511 -61 514 -65 q 506 -50 509 -56 q 502 -41 505 -46 q 500 -39 502 -39 q 500 -38 500 -39 q 496 -27 499 -34 q 495 -26 495 -27 q 486 -16 488 -16 q 479 -14 483 -15 q 479 -18 477 -15 q 475 -20 479 -20 q 472 -18 473 -20 q 468 -14 471 -15 q 221 35 313 -11 q 83 141 129 81 q 52 194 64 164 q 34 252 41 224 q 33 259 34 255 q 33 264 33 263 q 33 282 33 270 q 57 305 37 301 q 73 307 64 307 q 91 305 81 305 q 286 305 156 305 q 320 307 302 305 q 353 304 338 308 q 372 298 363 302 q 387 286 381 293 q 396 278 389 283 q 397 277 396 278 q 401 273 399 275 q 403 273 406 271 q 426 263 415 266 q 446 258 437 262 q 450 258 449 258 q 453 256 452 256 q 460 256 456 256 q 467 255 464 256 q 488 255 475 255 q 505 256 499 255 q 538 267 522 259 q 564 288 555 274 q 574 308 572 298 q 575 317 575 311 q 575 343 578 330 q 572 350 574 346 q 570 357 572 354 q 567 362 570 359 q 559 372 564 366 q 551 374 553 374 q 514 370 532 378 q 479 355 498 362 q 457 350 469 351 q 433 349 445 349 q 430 347 431 347 q 419 349 427 346 q 378 363 397 350 q 339 385 359 378 q 331 388 334 388 q 321 387 327 387 q 293 395 305 387 q 275 416 279 403 q 273 435 273 427 q 273 449 273 442 q 274 461 274 456 q 274 540 274 487 q 279 568 274 559 q 286 582 281 574 q 301 595 293 591 q 309 600 304 597 q 315 604 312 602 q 321 606 317 605 q 331 613 327 610 q 340 618 335 616 q 351 624 346 620 q 361 628 355 627 q 369 633 365 631 q 395 646 378 637 q 465 686 412 656 q 468 688 467 688 q 471 689 469 688 q 477 693 473 692 q 486 697 481 696 q 487 701 487 699 q 480 699 483 700 q 472 693 476 696 q 450 684 463 688 q 426 678 439 680 q 419 678 422 678 q 411 680 415 680 q 403 677 407 678 q 395 674 399 675 q 374 671 388 673 q 368 669 372 670 q 361 665 363 667 q 349 662 355 663 q 335 659 342 661 q 316 652 326 655 q 294 654 305 651 q 274 656 282 655 q 271 632 273 646 q 271 602 271 618 q 271 572 271 587 q 270 541 271 557 q 270 518 270 534 q 269 507 270 513 q 269 498 269 502 q 266 499 269 496 q 264 500 266 500 q 264 500 264 500 q 263 503 264 503 q 263 506 263 505 q 256 515 258 513 q 254 524 255 519 q 250 530 252 526 q 245 545 247 537 q 240 562 243 555 q 227 602 233 582 q 214 642 221 623 q 209 655 212 648 q 203 669 206 662 q 195 684 201 673 q 195 682 195 684 q 193 650 193 667 q 190 618 193 633 q 187 621 189 616 q 184 631 186 628 q 182 637 183 633 q 179 643 180 640 q 172 654 176 648 q 168 663 170 658 q 167 673 167 669 q 165 681 167 677 q 163 674 164 678 q 163 663 163 671 q 159 589 160 633 q 156 511 159 543 q 155 491 156 505 q 152 469 153 477 q 151 468 152 461 q 152 521 148 488 q 157 585 156 553 q 144 637 159 617 q 137 635 137 650 q 138 591 136 620 q 144 536 141 564 q 144 494 146 509 q 137 490 144 477 q 125 543 123 511 q 129 604 125 574 q 132 656 134 636 q 132 651 132 663 q 129 624 130 637 q 126 617 129 610 q 123 643 122 635 q 123 661 123 651 q 117 694 123 673 q 113 700 117 694 q 107 707 110 704 q 104 711 106 709 q 102 712 103 711 q 95 724 99 716 q 94 726 95 726 q 94 728 94 727 q 92 734 94 731 q 91 746 91 741 q 91 757 91 751 q 91 770 91 764 q 92 783 92 776 q 92 936 92 833 q 95 948 92 940 q 99 958 96 951 q 109 966 103 964 q 118 971 113 970 q 137 974 127 974 q 145 974 141 974 q 174 972 160 972 q 796 972 381 972 q 812 972 804 972 q 830 974 821 974 q 842 974 837 974 q 853 971 848 974 q 864 966 860 970 q 869 959 868 962 q 878 937 876 949 q 880 914 880 928 q 878 890 879 902 q 878 798 878 860 q 879 774 878 788 q 878 751 879 762 q 875 739 878 747 q 867 720 873 730 q 859 709 864 715 q 850 700 854 704 q 845 681 849 694 q 842 665 842 669 q 831 624 836 644 q 822 582 827 602 q 821 579 822 579 q 819 567 819 574 q 815 555 818 562 q 814 548 814 552 q 812 541 814 544 q 848 517 829 532 q 913 431 888 481 q 913 430 913 430 q 914 429 914 430 m 758 616 q 755 614 757 614 q 753 613 754 614 q 750 605 751 610 q 746 595 749 601 q 743 586 745 591 q 739 576 742 581 q 760 568 746 574 q 765 566 765 566 q 765 587 765 572 q 765 602 765 594 q 764 617 764 610 q 762 616 762 617 q 760 616 761 616 q 758 616 760 616 z "},"4":{"ha":1021,"x_min":35,"x_max":983,"o":"m 982 231 q 983 206 982 220 q 983 199 983 202 q 981 180 983 190 q 977 175 979 178 q 964 161 972 165 q 956 153 962 159 q 951 144 954 149 q 944 133 947 138 q 928 115 937 121 q 922 115 922 115 q 918 121 921 117 q 914 126 916 125 q 906 134 909 130 q 901 141 903 138 q 895 149 899 144 q 894 146 894 148 q 894 146 894 146 q 890 140 892 144 q 883 133 886 136 q 878 129 879 129 q 876 137 869 137 q 875 133 883 136 q 872 132 873 133 q 868 127 871 132 q 864 113 865 121 q 863 96 864 104 q 860 80 861 90 q 857 65 860 72 q 853 60 856 64 q 852 57 852 56 q 850 94 849 69 q 841 132 852 118 q 837 136 838 133 q 833 138 836 137 q 830 144 830 141 q 827 142 829 142 q 822 146 823 144 q 822 60 822 117 q 823 42 822 52 q 819 23 823 33 q 815 15 818 20 q 807 7 814 14 q 799 1 804 4 q 780 -16 792 -4 q 773 -22 777 -18 q 762 -34 768 -27 q 749 -45 755 -41 q 726 -45 736 -52 q 722 -43 724 -45 q 719 -42 720 -42 q 709 -47 713 -41 q 703 -57 705 -54 q 700 -61 701 -58 q 697 -62 699 -64 q 692 -50 694 -58 q 686 -64 689 -58 q 681 -60 686 -64 q 675 -53 680 -57 q 670 -47 671 -49 q 665 -41 665 -41 q 662 -45 662 -42 q 659 -50 661 -47 q 652 -69 658 -57 q 636 -79 647 -81 q 621 -69 627 -76 q 610 -56 616 -61 q 593 -37 600 -47 q 587 -27 590 -34 q 581 -16 585 -24 q 575 -8 576 -8 q 571 -7 574 -8 q 566 -5 567 -7 q 562 -39 563 -22 q 560 -72 562 -57 q 559 -99 559 -81 q 557 -127 559 -115 q 555 -137 557 -140 q 556 -179 557 -163 q 538 -191 555 -194 q 521 -168 524 -187 q 522 -125 518 -151 q 530 -76 526 -100 q 533 -37 534 -52 q 530 -28 533 -34 q 526 -26 528 -23 q 525 -46 525 -34 q 525 -68 525 -60 q 524 -71 525 -77 q 519 -45 519 -52 q 519 -30 519 -38 q 514 1 521 -22 q 503 8 509 4 q 488 38 488 19 q 488 156 488 77 q 477 153 486 155 q 476 152 476 152 q 473 151 475 152 q 467 142 473 151 q 463 142 467 142 q 453 134 458 138 q 439 123 449 130 q 437 119 438 122 q 433 118 435 117 q 431 129 431 123 q 430 138 430 133 q 422 130 427 136 q 419 126 420 129 q 416 121 418 123 q 412 114 415 118 q 407 104 410 110 q 401 92 404 99 q 397 79 400 85 q 380 15 387 49 q 361 -50 373 -18 q 351 -75 355 -62 q 338 -99 346 -88 q 328 -109 334 -102 q 324 -111 327 -109 q 320 -172 321 -141 q 316 -233 320 -203 q 313 -236 316 -235 q 312 -237 312 -237 q 311 -236 311 -237 q 308 -193 308 -206 q 308 -172 308 -180 q 307 -151 308 -165 q 300 -103 305 -136 q 293 -94 296 -99 q 285 -83 289 -90 q 263 -60 275 -69 q 239 -38 250 -50 q 227 -22 232 -31 q 217 -3 222 -12 q 213 8 216 3 q 208 19 210 14 q 187 69 197 43 q 159 115 176 95 q 153 121 157 118 q 151 122 149 123 q 148 123 149 123 q 141 118 141 123 q 138 83 138 100 q 136 47 137 65 q 133 23 136 43 q 127 -14 130 4 q 123 -39 125 -34 q 122 -56 122 -47 q 118 -71 121 -64 q 117 -80 117 -76 q 113 -90 115 -84 q 110 -92 113 -91 q 107 -92 109 -94 q 99 -65 103 -84 q 96 -43 96 -45 q 94 30 94 -11 q 91 100 94 69 q 90 95 91 107 q 88 69 90 81 q 84 64 88 58 q 81 96 80 79 q 80 130 83 114 q 76 133 79 130 q 75 134 76 134 q 61 151 72 138 q 57 156 60 153 q 52 163 54 160 q 47 167 50 164 q 39 178 45 170 q 38 180 39 179 q 38 182 38 180 q 37 198 37 190 q 37 216 37 208 q 37 351 37 260 q 35 374 37 362 q 35 381 35 378 q 37 397 35 389 q 45 425 39 416 q 60 446 52 437 q 75 465 66 456 q 98 495 85 480 q 118 522 109 509 q 229 667 155 571 q 258 707 243 686 q 288 747 273 728 q 297 761 292 754 q 307 772 301 766 q 315 783 311 777 q 323 789 320 787 q 331 800 326 792 q 397 886 347 822 q 404 895 399 888 q 412 907 408 903 q 420 918 416 913 q 434 937 427 928 q 450 954 441 947 q 463 964 454 959 q 465 966 464 966 q 468 967 467 966 q 471 968 469 967 q 481 971 476 971 q 513 972 498 974 q 543 972 529 972 q 718 972 601 972 q 755 974 736 972 q 768 974 761 974 q 792 972 780 974 q 793 972 792 972 q 798 971 795 971 q 800 970 799 970 q 803 968 802 970 q 821 944 818 959 q 822 940 822 943 q 823 924 823 932 q 822 906 822 916 q 822 438 822 750 q 943 438 852 438 q 970 427 958 438 q 972 426 971 426 q 975 422 974 425 q 978 418 977 420 q 979 412 979 415 q 982 403 982 407 q 982 382 983 393 q 982 362 982 370 q 982 231 982 319 m 353 422 q 499 422 389 422 q 499 612 499 469 q 500 589 499 587 q 503 600 503 589 q 503 620 505 612 q 496 618 503 628 q 492 614 494 616 q 491 613 491 613 q 488 609 491 612 q 483 601 486 605 q 477 593 480 597 q 469 582 473 587 q 460 568 464 575 q 407 498 442 544 q 407 496 407 496 q 406 495 406 496 q 393 477 400 486 q 381 458 388 468 q 363 437 374 450 q 359 429 362 431 q 355 425 357 426 q 353 422 354 425 m 545 -39 q 545 -62 544 -49 q 547 -91 545 -75 q 547 -43 545 -62 q 545 -39 548 -23 z "},"5":{"ha":959,"x_min":31,"x_max":922,"o":"m 853 130 q 836 113 849 126 q 834 110 838 115 q 830 106 830 106 q 827 103 829 104 q 823 100 826 102 q 815 92 819 96 q 806 84 811 88 q 800 79 804 80 q 798 73 799 76 q 795 68 796 71 q 788 56 792 64 q 783 50 787 54 q 772 45 776 45 q 769 8 769 26 q 765 -30 769 -11 q 761 -27 764 -31 q 757 -22 758 -23 q 755 1 754 -3 q 751 26 755 4 q 747 19 750 23 q 742 11 745 14 q 739 7 741 9 q 736 4 738 3 q 736 5 736 4 q 735 5 736 5 q 732 -5 734 1 q 728 -18 731 -8 q 724 -35 727 -26 q 718 -52 720 -43 q 705 -98 712 -73 q 688 -141 699 -121 q 684 -149 686 -144 q 682 -151 682 -151 q 681 -153 682 -152 q 671 -163 677 -159 q 661 -174 667 -168 q 656 -180 659 -176 q 651 -187 654 -183 q 651 -189 651 -187 q 650 -189 651 -189 q 650 -191 650 -190 q 648 -193 648 -191 q 642 -210 644 -201 q 635 -229 637 -220 q 627 -254 632 -237 q 623 -264 621 -266 q 613 -279 624 -264 q 610 -282 613 -282 q 605 -285 606 -285 q 600 -308 601 -296 q 594 -332 597 -320 q 593 -354 593 -339 q 590 -365 591 -365 q 589 -362 590 -365 q 575 -345 574 -347 q 583 -346 576 -343 q 591 -346 590 -349 q 578 -330 593 -345 q 574 -302 572 -316 q 572 -275 575 -289 q 560 -256 564 -269 q 553 -236 556 -245 q 551 -227 552 -231 q 547 -217 548 -222 q 532 -156 538 -189 q 515 -95 525 -123 q 495 -42 509 -77 q 486 -24 492 -38 q 473 -16 483 -23 q 469 -47 468 -47 q 464 -16 471 -47 q 214 35 312 -14 q 69 161 115 84 q 65 170 68 164 q 61 179 62 174 q 56 187 58 183 q 41 228 46 209 q 34 267 37 247 q 31 282 33 274 q 31 289 31 286 q 33 300 31 294 q 34 305 34 302 q 35 308 34 307 q 47 321 39 316 q 62 326 54 326 q 91 327 76 328 q 115 326 106 326 q 282 326 171 326 q 308 326 294 326 q 334 327 321 327 q 347 326 340 327 q 359 324 354 326 q 373 317 368 321 q 387 311 380 316 q 395 301 393 304 q 408 288 401 294 q 419 274 414 281 q 431 264 423 270 q 450 256 441 259 q 475 254 461 254 q 532 279 503 256 q 564 338 560 302 q 563 350 564 345 q 562 361 563 355 q 557 373 560 368 q 552 385 555 380 q 541 399 547 393 q 534 406 540 401 q 533 407 533 406 q 532 407 533 407 q 498 414 518 418 q 461 407 477 410 q 445 407 453 406 q 427 404 437 407 q 415 397 420 403 q 401 391 408 392 q 388 388 396 389 q 373 385 380 388 q 358 370 363 380 q 340 358 351 361 q 315 362 330 355 q 290 374 300 369 q 279 381 285 381 q 271 381 277 382 q 264 382 267 381 q 262 382 263 382 q 258 384 259 384 q 255 382 256 384 q 251 380 254 381 q 229 370 243 373 q 217 369 224 369 q 197 370 210 369 q 183 374 190 370 q 155 381 170 378 q 125 387 140 385 q 102 395 111 389 q 94 400 98 397 q 88 406 91 403 q 84 416 83 416 q 83 422 84 416 q 84 449 81 433 q 90 476 88 465 q 92 498 90 483 q 92 505 92 502 q 94 513 94 509 q 111 678 99 567 q 117 732 114 704 q 121 783 119 760 q 122 791 122 787 q 123 800 122 796 q 125 812 125 807 q 126 821 125 817 q 127 829 127 825 q 129 837 127 833 q 130 850 130 845 q 132 863 130 857 q 138 925 134 883 q 157 960 141 948 q 191 972 174 972 q 769 972 384 972 q 783 972 776 972 q 793 974 788 972 q 810 974 802 974 q 826 971 818 974 q 846 956 838 967 q 850 945 849 949 q 852 935 852 940 q 853 883 853 914 q 852 819 853 852 q 852 766 852 788 q 852 755 852 764 q 852 741 852 749 q 850 727 853 734 q 842 713 849 720 q 830 705 837 708 q 829 700 830 704 q 825 694 827 694 q 823 696 823 693 q 819 699 822 699 q 818 699 819 699 q 812 690 812 697 q 808 682 811 685 q 806 684 807 681 q 803 688 806 688 q 798 685 802 689 q 787 678 793 682 q 742 667 764 669 q 718 667 734 667 q 708 663 712 665 q 697 659 703 662 q 681 655 689 658 q 663 648 673 651 q 642 651 652 647 q 620 655 631 654 q 589 659 604 658 q 559 663 574 661 q 530 671 544 667 q 503 682 517 677 q 500 684 502 684 q 498 685 499 684 q 491 685 495 685 q 486 686 488 686 q 458 686 472 686 q 431 692 446 688 q 414 700 426 694 q 411 701 416 700 q 408 701 406 703 q 407 685 408 696 q 404 673 406 680 q 404 658 404 665 q 400 628 403 648 q 399 617 400 623 q 399 610 399 612 q 401 605 400 609 q 403 606 403 605 q 403 606 403 606 q 411 613 407 610 q 419 617 415 616 q 444 628 431 624 q 450 631 446 631 q 457 633 454 632 q 467 637 460 635 q 477 640 472 639 q 487 643 481 642 q 496 644 491 644 q 506 646 500 644 q 522 648 514 648 q 547 651 534 650 q 571 651 559 651 q 593 651 582 651 q 614 650 602 651 q 640 646 623 648 q 654 643 646 646 q 655 643 654 643 q 655 642 655 643 q 807 568 743 623 q 815 562 811 566 q 821 557 818 560 q 825 552 823 555 q 903 438 876 502 q 918 387 914 422 q 922 323 922 351 q 922 317 922 321 q 894 199 921 255 q 872 159 886 172 q 853 130 864 144 z "},"6":{"ha":962,"x_min":27,"x_max":932,"o":"m 932 353 q 880 174 932 252 q 865 152 871 157 q 838 119 853 134 q 807 90 823 104 q 803 84 806 88 q 800 81 802 83 q 799 79 800 80 q 785 58 793 66 q 766 41 776 50 q 757 30 764 37 q 755 24 755 27 q 753 23 754 22 q 751 26 751 24 q 751 26 751 26 q 745 18 749 23 q 741 14 746 19 q 732 5 735 7 q 730 4 731 4 q 728 3 730 4 q 726 -8 727 -3 q 722 -18 726 -12 q 716 -26 722 -26 q 713 -22 715 -26 q 711 -16 712 -18 q 704 5 709 -9 q 703 8 704 7 q 699 16 701 11 q 693 20 694 20 q 692 20 693 20 q 692 18 692 19 q 688 5 690 16 q 684 -9 686 -1 q 678 -24 681 -18 q 673 -39 675 -33 q 667 -53 670 -46 q 644 -107 655 -79 q 621 -159 632 -134 q 612 -178 618 -168 q 597 -187 605 -186 q 595 -195 595 -191 q 591 -203 594 -199 q 586 -209 589 -209 q 585 -209 585 -209 q 579 -198 582 -208 q 578 -189 578 -194 q 575 -178 578 -183 q 571 -174 574 -175 q 568 -171 570 -172 q 566 -168 567 -170 q 563 -165 564 -167 q 553 -151 557 -159 q 543 -134 548 -142 q 528 -102 534 -119 q 514 -68 521 -84 q 509 -53 511 -61 q 507 -52 509 -53 q 507 -50 507 -52 q 503 -41 506 -46 q 498 -27 500 -33 q 488 -16 491 -16 q 481 -14 486 -15 q 480 -15 480 -14 q 477 -15 479 -15 q 476 -15 476 -15 q 473 -14 476 -14 q 248 31 349 -11 q 88 152 148 72 q 71 176 77 163 q 57 205 64 190 q 56 208 56 206 q 54 210 56 209 q 31 296 37 254 q 28 324 30 309 q 27 353 27 339 q 28 373 27 362 q 33 393 30 384 q 33 393 33 393 q 34 395 33 395 q 68 498 43 448 q 119 587 94 548 q 163 648 148 628 q 193 689 172 662 q 218 722 206 709 q 235 745 225 734 q 251 765 243 755 q 294 821 266 784 q 326 864 309 844 q 355 902 340 884 q 384 939 365 914 q 415 967 396 959 q 449 974 431 974 q 456 974 453 974 q 496 972 477 972 q 700 972 564 972 q 715 972 707 972 q 730 972 722 974 q 746 962 739 971 q 753 941 753 951 q 747 924 753 932 q 743 917 746 921 q 738 909 741 913 q 731 901 735 906 q 724 891 728 895 q 716 884 720 887 q 697 857 711 875 q 658 803 678 830 q 620 754 639 774 q 587 712 609 741 q 579 700 586 709 q 572 692 575 696 q 582 692 575 692 q 595 690 589 692 q 606 689 601 690 q 614 686 612 688 q 623 686 618 686 q 628 685 624 685 q 659 677 639 682 q 671 673 665 675 q 682 669 677 671 q 808 598 747 646 q 903 481 869 552 q 917 450 913 472 q 922 441 921 448 q 929 397 929 419 q 932 376 930 388 q 932 353 932 363 m 495 258 q 537 271 519 262 q 548 279 541 274 q 574 324 568 297 q 574 378 581 351 q 540 422 566 406 q 514 431 528 429 q 487 433 502 433 q 460 431 475 433 q 430 425 445 430 q 416 416 426 422 q 416 416 416 416 q 415 415 416 416 q 392 380 399 403 q 391 321 382 351 q 423 274 400 290 q 425 273 425 274 q 426 273 425 273 q 427 271 426 271 q 464 258 448 259 q 495 258 480 256 z "},"7":{"ha":868,"x_min":38,"x_max":833,"o":"m 400 -244 q 397 -247 400 -245 q 395 -247 396 -247 q 395 -245 395 -247 q 392 -186 393 -225 q 391 -109 392 -148 q 389 -49 391 -69 q 385 -47 389 -47 q 381 -47 381 -47 q 380 -49 380 -49 q 378 -52 380 -50 q 366 -62 372 -60 q 365 -71 365 -65 q 359 -77 363 -76 q 357 -72 357 -79 q 354 -66 357 -64 q 354 -87 351 -72 q 350 -99 357 -102 q 346 -87 345 -96 q 349 -69 347 -77 q 345 -62 351 -62 q 340 -72 339 -61 q 343 -91 342 -81 q 340 -98 346 -100 q 335 -77 331 -91 q 335 -54 339 -64 q 332 -61 332 -50 q 328 -75 334 -72 q 324 -64 328 -75 q 316 -50 320 -52 q 316 -52 316 -50 q 308 -60 316 -52 q 302 -64 305 -62 q 301 -69 297 -69 q 308 -69 304 -69 q 312 -76 313 -71 q 296 -96 311 -80 q 293 -92 294 -98 q 289 -84 290 -88 q 286 -75 288 -79 q 283 -64 286 -69 q 278 -58 281 -61 q 274 -54 277 -56 q 269 -52 271 -52 q 259 -46 255 -45 q 266 -52 263 -49 q 256 -49 270 -54 q 248 -38 250 -46 q 231 -16 236 -27 q 227 -14 229 -16 q 225 -18 227 -16 q 220 -20 224 -19 q 214 -20 216 -20 q 198 -14 205 -19 q 187 -1 193 -7 q 184 -1 186 0 q 179 0 182 -1 q 170 4 176 1 q 164 11 167 7 q 159 18 161 14 q 156 38 155 27 q 157 42 157 41 q 159 45 157 43 q 165 60 161 53 q 172 73 170 66 q 175 80 175 79 q 190 111 180 91 q 197 125 193 118 q 205 141 199 130 q 213 160 206 146 q 307 362 236 210 q 321 403 313 384 q 338 437 330 422 q 359 488 349 463 q 384 538 369 514 q 392 552 387 543 q 396 556 395 555 q 399 560 397 559 q 453 675 416 598 q 453 677 453 675 q 456 682 456 682 q 457 686 456 684 q 453 688 460 690 q 446 678 449 684 q 427 654 438 669 q 403 637 418 640 q 397 639 400 637 q 392 640 395 639 q 353 654 369 644 q 349 659 351 656 q 342 663 345 662 q 335 671 332 674 q 336 665 338 669 q 336 662 336 665 q 335 654 336 656 q 334 633 335 644 q 334 614 334 624 q 334 605 334 612 q 332 594 332 600 q 331 582 334 587 q 330 579 331 579 q 317 566 326 572 q 302 556 309 560 q 297 553 300 553 q 292 553 292 553 q 293 526 290 543 q 294 499 294 510 q 286 491 296 487 q 278 519 273 499 q 281 557 283 540 q 277 562 281 560 q 270 566 273 564 q 264 568 266 570 q 262 548 262 559 q 258 530 263 538 q 256 534 256 528 q 252 543 255 540 q 250 549 251 545 q 247 556 248 553 q 243 571 244 563 q 237 586 240 579 q 228 594 235 587 q 225 597 227 595 q 222 600 225 598 q 217 609 221 604 q 214 612 216 610 q 212 614 214 613 q 203 623 210 618 q 194 617 201 623 q 187 610 187 612 q 184 563 184 586 q 182 515 184 538 q 178 502 180 511 q 171 488 174 494 q 167 486 170 487 q 165 486 165 484 q 167 526 164 506 q 171 567 171 547 q 160 600 172 586 q 153 594 152 610 q 159 553 155 578 q 164 510 164 528 q 155 500 165 494 q 141 519 142 507 q 141 548 138 533 q 137 552 140 548 q 130 587 125 566 q 132 627 134 609 q 130 631 132 628 q 126 632 127 633 q 125 618 123 627 q 121 605 125 610 q 118 610 118 602 q 115 621 117 617 q 107 642 111 631 q 96 658 103 651 q 91 663 95 661 q 88 665 85 667 q 83 670 85 667 q 80 662 80 667 q 77 655 80 658 q 73 651 73 651 q 72 623 72 642 q 72 590 72 602 q 68 589 72 579 q 65 629 62 609 q 64 675 66 651 q 60 684 60 681 q 52 697 58 688 q 42 709 46 701 q 41 712 42 711 q 41 715 41 713 q 39 719 39 716 q 38 731 38 726 q 38 736 38 734 q 39 755 39 746 q 39 906 39 806 q 38 922 39 914 q 39 941 38 932 q 39 944 39 943 q 41 947 41 945 q 50 962 45 956 q 65 971 57 970 q 83 972 73 972 q 149 972 115 974 q 214 972 183 972 q 755 972 395 972 q 770 972 762 972 q 785 974 777 974 q 812 968 802 974 q 827 951 823 963 q 830 945 830 949 q 831 939 830 941 q 833 926 833 933 q 833 920 833 922 q 831 902 831 910 q 831 770 831 857 q 831 746 831 758 q 829 722 831 735 q 829 719 829 720 q 827 713 827 716 q 811 671 822 692 q 791 629 800 650 q 780 609 785 620 q 770 587 776 598 q 761 567 768 581 q 749 540 758 560 q 745 530 747 534 q 741 521 743 525 q 736 513 739 517 q 734 507 735 510 q 654 339 707 450 q 625 256 640 296 q 595 201 612 217 q 595 199 595 199 q 594 198 594 199 q 583 171 589 184 q 570 144 576 157 q 551 106 560 122 q 534 81 541 90 q 526 64 532 76 q 518 45 522 53 q 509 26 514 37 q 490 8 500 16 q 483 -19 486 -5 q 476 -46 480 -34 q 475 -54 475 -50 q 471 -64 473 -60 q 468 -76 469 -68 q 465 -80 467 -84 q 464 -53 463 -68 q 461 -26 464 -39 q 454 -34 458 -28 q 453 -34 454 -34 q 452 -35 453 -35 q 450 -35 450 -35 q 449 -37 450 -37 q 446 -61 448 -49 q 444 -85 446 -73 q 442 -104 444 -94 q 441 -123 442 -117 q 437 -126 441 -132 q 431 -94 430 -111 q 430 -58 433 -75 q 429 -53 430 -56 q 425 -50 426 -52 q 422 -41 422 -42 q 415 -43 420 -41 q 410 -46 412 -46 q 407 -46 408 -47 q 406 -47 406 -46 q 403 -107 404 -68 q 401 -184 403 -146 q 400 -244 401 -224 m 144 567 q 149 589 148 578 q 149 609 151 598 q 142 614 142 614 q 142 591 141 605 q 144 567 142 578 z "},"8":{"ha":989,"x_min":50,"x_max":939,"o":"m 939 300 q 925 212 939 252 q 910 170 920 189 q 888 138 901 151 q 869 114 879 125 q 849 94 859 103 q 838 83 845 90 q 830 76 837 81 q 836 33 830 60 q 844 -26 841 4 q 845 -84 848 -57 q 826 -125 842 -111 q 807 -118 811 -137 q 807 -61 804 -98 q 815 11 811 -24 q 818 65 818 47 q 792 27 800 50 q 774 -16 784 5 q 765 -39 772 -24 q 762 -46 764 -41 q 760 -49 760 -52 q 758 -26 758 -38 q 757 -3 757 -14 q 741 -37 751 -14 q 735 -49 739 -42 q 730 -64 732 -57 q 722 -81 727 -71 q 708 -94 716 -92 q 709 -133 707 -106 q 715 -194 712 -161 q 720 -256 719 -228 q 718 -300 722 -285 q 709 -309 715 -311 q 701 -307 705 -309 q 684 -269 686 -297 q 685 -203 681 -239 q 693 -134 689 -167 q 696 -88 697 -103 q 688 -79 693 -84 q 677 -65 682 -72 q 665 -54 673 -58 q 659 -65 659 -58 q 652 -117 652 -85 q 652 -175 652 -146 q 647 -227 654 -206 q 643 -262 646 -237 q 642 -270 642 -266 q 637 -279 640 -275 q 632 -285 635 -286 q 627 -274 627 -279 q 624 -218 625 -252 q 623 -151 624 -184 q 621 -96 623 -117 q 618 -91 620 -94 q 616 -85 617 -88 q 613 -77 614 -83 q 610 -73 612 -71 q 606 -98 605 -80 q 604 -106 606 -114 q 601 -75 600 -91 q 600 -43 602 -58 q 597 -42 598 -43 q 595 -41 594 -41 q 586 -33 590 -37 q 576 -23 582 -27 q 575 -23 576 -23 q 575 -20 575 -22 q 574 -20 574 -20 q 572 -19 574 -19 q 567 -26 571 -19 q 555 -31 559 -31 q 543 -24 548 -31 q 543 -23 543 -23 q 541 -22 541 -22 q 534 -19 540 -22 q 533 -23 533 -20 q 532 -27 533 -26 q 526 -37 530 -31 q 511 -49 522 -42 q 494 -52 500 -57 q 487 -42 488 -49 q 484 -34 486 -37 q 483 -23 483 -27 q 479 -14 481 -19 q 243 30 334 -11 q 106 132 152 71 q 103 134 103 134 q 88 157 95 146 q 76 180 81 170 q 75 184 75 182 q 53 259 60 214 q 50 304 50 283 q 53 336 50 321 q 71 403 57 372 q 107 460 84 433 q 118 472 110 464 q 137 490 126 481 q 157 506 148 499 q 165 511 160 507 q 171 514 168 511 q 163 519 167 517 q 156 526 159 524 q 140 541 148 533 q 126 557 133 548 q 99 612 109 585 q 84 678 88 642 q 84 712 84 689 q 85 718 84 715 q 85 724 85 720 q 87 731 85 728 q 88 738 88 735 q 92 760 91 749 q 98 780 95 770 q 106 800 100 787 q 106 802 106 800 q 114 819 109 812 q 236 936 151 888 q 476 986 323 983 q 492 987 484 987 q 499 987 495 987 q 522 986 511 986 q 537 985 532 986 q 548 985 543 985 q 559 983 553 985 q 568 982 564 983 q 579 982 574 982 q 776 920 704 968 q 876 806 848 872 q 882 796 879 802 q 884 784 883 791 q 886 780 884 783 q 886 777 886 779 q 894 742 888 766 q 898 707 898 724 q 895 671 899 689 q 895 659 895 665 q 892 646 894 652 q 892 644 892 646 q 876 589 887 617 q 852 548 865 567 q 834 530 846 543 q 829 525 831 528 q 821 519 825 522 q 818 517 819 518 q 815 514 817 515 q 833 505 822 510 q 853 490 845 498 q 868 476 861 483 q 871 473 869 476 q 890 450 882 463 q 903 433 898 442 q 913 414 909 423 q 926 381 922 404 q 932 361 929 370 q 936 340 935 351 q 939 327 937 335 q 939 307 939 317 q 939 300 939 305 m 431 734 q 431 732 431 732 q 430 731 430 732 q 414 709 420 722 q 408 658 401 686 q 441 616 415 631 q 445 613 444 614 q 450 610 448 612 q 481 602 469 602 q 506 602 494 601 q 526 606 517 604 q 545 616 536 610 q 560 625 555 620 q 562 627 560 625 q 571 637 566 629 q 582 677 582 656 q 582 685 582 681 q 579 693 581 689 q 564 724 578 708 q 553 734 562 728 q 552 735 553 735 q 552 735 552 735 q 544 739 549 736 q 522 743 534 743 q 499 743 510 745 q 468 743 488 743 q 452 741 461 742 q 437 735 444 739 q 434 734 435 735 q 431 734 433 734 m 412 251 q 419 244 415 248 q 427 237 423 240 q 460 224 444 228 q 496 220 477 220 q 510 221 506 220 q 518 221 514 221 q 526 224 522 222 q 537 228 530 225 q 571 250 557 235 q 590 297 587 270 q 585 334 591 315 q 562 362 576 351 q 560 362 562 362 q 560 363 560 362 q 559 365 559 363 q 557 365 559 365 q 526 374 544 373 q 494 374 509 374 q 460 373 477 373 q 427 363 442 372 q 407 339 414 354 q 396 308 399 324 q 412 251 395 278 z "},"9":{"ha":948,"x_min":28,"x_max":921,"o":"m 810 370 q 789 342 804 363 q 780 331 785 336 q 772 323 776 327 q 736 273 760 305 q 730 264 734 270 q 718 245 724 254 q 704 228 711 236 q 697 220 701 225 q 650 157 674 182 q 643 146 646 152 q 635 137 639 141 q 623 119 629 127 q 609 102 616 110 q 600 90 604 96 q 591 77 595 83 q 582 66 586 72 q 572 53 576 60 q 562 38 567 46 q 551 23 557 31 q 538 12 547 20 q 536 11 537 12 q 534 9 533 9 q 530 5 533 8 q 521 -3 525 0 q 513 -38 515 -19 q 505 -72 510 -56 q 500 -81 503 -73 q 494 -94 498 -91 q 483 -85 487 -95 q 477 -76 479 -77 q 471 -60 473 -66 q 465 -43 468 -53 q 461 -24 461 -27 q 461 -20 463 -22 q 457 -16 460 -18 q 454 -14 456 -15 q 450 -42 449 -34 q 452 -57 452 -52 q 445 -77 453 -64 q 427 -104 439 -87 q 425 -110 426 -106 q 422 -113 422 -115 q 419 -69 419 -91 q 416 -24 419 -47 q 415 -23 416 -22 q 411 -26 412 -24 q 403 -27 408 -27 q 374 -64 387 -43 q 351 -103 362 -83 q 350 -106 350 -104 q 349 -109 350 -107 q 340 -123 345 -115 q 332 -137 338 -130 q 324 -144 327 -142 q 320 -145 321 -145 q 316 -142 319 -145 q 312 -138 315 -141 q 309 -133 309 -136 q 307 -127 308 -130 q 302 -123 305 -125 q 293 -99 297 -111 q 281 -76 288 -88 q 260 -52 273 -61 q 239 -31 248 -43 q 222 -4 229 -16 q 221 -3 221 -3 q 220 0 221 -1 q 213 0 217 0 q 194 14 203 3 q 189 31 189 20 q 194 49 189 41 q 197 54 197 52 q 208 65 203 62 q 240 111 218 80 q 252 126 244 117 q 269 148 259 136 q 301 194 285 171 q 334 235 316 218 q 339 241 336 237 q 345 248 342 244 q 368 279 353 259 q 369 282 368 279 q 372 292 370 286 q 370 292 372 292 q 361 292 365 292 q 351 290 357 290 q 330 294 340 290 q 328 296 328 294 q 327 296 328 296 q 324 297 326 296 q 321 297 324 297 q 317 296 321 296 q 316 297 316 296 q 312 298 315 298 q 302 297 308 298 q 292 294 296 294 q 270 297 285 293 q 270 290 270 294 q 270 283 270 288 q 271 277 271 279 q 271 270 271 274 q 273 264 273 267 q 277 247 275 255 q 278 229 279 237 q 275 221 278 227 q 275 220 275 220 q 271 216 274 218 q 271 199 270 210 q 266 191 273 190 q 259 201 258 191 q 258 218 262 212 q 254 222 256 218 q 256 213 255 217 q 252 225 256 209 q 252 248 250 236 q 256 270 255 259 q 259 281 258 275 q 259 293 259 288 q 258 297 259 296 q 254 298 258 298 q 248 298 248 298 q 247 300 247 300 q 244 301 245 300 q 241 302 243 301 q 239 304 240 304 q 239 285 239 297 q 244 233 240 271 q 245 221 244 229 q 239 213 245 213 q 231 218 236 213 q 222 237 222 227 q 224 270 221 252 q 229 300 228 286 q 224 316 229 309 q 221 320 222 317 q 218 323 221 323 q 218 285 218 309 q 218 281 218 281 q 214 281 217 277 q 210 289 212 283 q 209 297 209 294 q 209 307 209 302 q 210 315 210 311 q 209 334 210 328 q 209 330 209 332 q 209 328 209 330 q 208 324 209 327 q 205 316 208 317 q 199 326 199 315 q 198 331 198 328 q 197 336 198 334 q 195 336 195 336 q 194 338 195 338 q 182 351 187 342 q 179 311 179 331 q 175 270 178 290 q 171 264 175 269 q 168 263 168 259 q 164 300 164 290 q 164 321 165 309 q 156 365 164 334 q 155 368 155 366 q 153 369 155 368 q 144 381 148 374 q 140 388 142 385 q 130 396 137 391 q 126 400 129 397 q 117 410 123 403 q 103 423 110 416 q 104 425 110 418 q 96 431 99 430 q 88 444 94 435 q 53 505 66 472 q 47 518 50 511 q 43 530 46 525 q 39 543 42 534 q 28 624 28 583 q 31 661 28 643 q 37 693 34 677 q 45 726 39 709 q 49 739 47 732 q 54 754 52 747 q 61 772 57 764 q 68 784 64 779 q 73 793 71 787 q 91 818 77 799 q 107 842 98 831 q 111 846 107 842 q 255 947 165 909 q 468 986 345 986 q 551 982 511 986 q 567 982 556 982 q 574 981 570 981 q 581 979 578 981 q 609 974 602 979 q 612 972 610 974 q 614 972 613 972 q 689 951 654 964 q 728 937 709 945 q 760 920 747 929 q 768 914 764 918 q 776 909 772 911 q 795 895 787 903 q 812 882 804 888 q 834 860 823 872 q 854 837 845 849 q 891 774 878 808 q 894 769 892 772 q 898 762 895 765 q 906 739 901 754 q 911 712 909 727 q 917 685 916 699 q 918 671 918 678 q 920 658 920 665 q 920 633 920 647 q 921 628 921 631 q 918 609 920 618 q 884 494 913 547 q 818 385 856 439 q 810 370 815 380 m 484 536 q 532 553 511 537 q 540 563 537 559 q 555 583 547 570 q 562 625 562 604 q 560 646 562 636 q 556 662 559 654 q 534 693 547 681 q 521 701 529 700 q 505 703 513 703 q 475 707 490 705 q 444 707 458 708 q 410 686 423 705 q 388 640 395 667 q 388 591 382 616 q 396 574 391 582 q 411 556 401 567 q 441 540 426 544 q 472 534 456 536 q 480 536 477 534 q 484 536 483 536 m 275 220 q 273 212 274 214 q 275 220 273 209 q 275 220 275 220 z "},"\u0000":{"ha":0,"x_min":0,"x_max":0,"o":""},"\r":{"ha":0,"x_min":0,"x_max":0,"o":""}," ":{"ha":258,"x_min":0,"x_max":0,"o":""},"!":{"ha":458,"x_min":71,"x_max":389,"o":"m 256 317 q 237 321 245 316 q 217 328 228 326 q 172 342 194 335 q 130 358 152 349 q 117 365 126 361 q 96 373 107 369 q 84 381 91 377 q 71 410 71 392 q 71 420 71 415 q 71 426 71 423 q 71 444 71 435 q 71 935 71 606 q 73 947 71 943 q 77 958 75 951 q 109 972 90 972 q 119 972 114 972 q 125 972 122 972 q 141 972 133 972 q 340 972 208 972 q 351 972 346 972 q 362 971 357 974 q 382 956 374 967 q 387 945 385 949 q 388 929 388 940 q 388 410 388 755 q 385 396 388 404 q 381 388 384 393 q 378 385 380 387 q 366 377 373 380 q 361 369 363 370 q 359 369 359 368 q 355 370 358 370 q 350 368 354 370 q 345 363 346 365 q 319 349 332 355 q 293 335 305 342 q 275 326 283 330 q 256 317 267 321 m 388 64 q 389 54 389 60 q 389 46 389 50 q 385 24 389 37 q 378 12 385 19 q 372 7 374 7 q 369 5 369 5 q 366 3 369 5 q 365 -14 365 -5 q 361 -30 363 -20 q 359 -42 359 -35 q 355 -57 358 -50 q 353 -66 354 -60 q 350 -69 351 -72 q 349 -42 347 -57 q 346 -16 350 -27 q 345 -18 346 -18 q 345 -18 345 -18 q 336 -20 343 -18 q 328 -22 330 -23 q 327 -15 327 -19 q 326 -16 326 -15 q 326 -16 326 -16 q 316 -33 320 -23 q 308 -49 312 -41 q 302 -61 305 -54 q 294 -73 298 -66 q 290 -79 293 -76 q 279 -88 288 -81 q 273 -142 274 -114 q 269 -199 271 -172 q 266 -220 267 -210 q 263 -240 266 -229 q 260 -250 262 -244 q 256 -258 259 -255 q 256 -259 256 -259 q 254 -256 255 -259 q 251 -251 251 -252 q 248 -235 250 -243 q 245 -217 247 -225 q 240 -157 241 -187 q 235 -99 239 -127 q 231 -94 233 -96 q 227 -88 228 -91 q 225 -87 225 -88 q 225 -85 225 -85 q 217 -69 221 -79 q 206 -53 213 -60 q 201 -49 205 -52 q 195 -45 198 -46 q 191 -53 191 -49 q 189 -87 189 -69 q 186 -121 189 -104 q 183 -125 184 -122 q 179 -125 182 -126 q 176 -118 176 -122 q 174 -109 175 -113 q 168 -73 171 -91 q 164 -39 167 -57 q 152 -24 157 -34 q 138 -8 146 -15 q 136 -11 136 -11 q 133 -11 134 -12 q 130 -7 132 -8 q 130 -7 130 -7 q 129 -5 129 -7 q 127 -16 127 -11 q 123 -26 126 -22 q 119 -34 122 -31 q 115 -42 117 -38 q 113 -94 114 -62 q 113 -156 113 -125 q 109 -209 113 -187 q 106 -206 107 -221 q 106 -165 106 -190 q 106 -129 106 -141 q 96 1 102 -85 q 91 5 94 3 q 84 8 88 7 q 71 38 71 19 q 71 255 71 110 q 71 279 71 267 q 77 301 71 292 q 85 309 80 304 q 109 316 96 316 q 271 316 163 316 q 292 317 282 316 q 308 317 301 317 q 328 319 312 317 q 357 316 345 320 q 378 304 369 315 q 387 290 385 297 q 387 286 387 289 q 388 283 388 285 q 389 266 389 275 q 389 256 389 262 q 388 232 388 243 q 388 64 388 176 z "},"\"":{"ha":720,"x_min":38,"x_max":682,"o":"m 677 967 q 682 943 682 956 q 682 932 682 937 q 677 895 680 911 q 675 894 677 899 q 675 886 675 888 q 674 882 675 888 q 674 871 674 875 q 673 865 674 868 q 669 823 671 845 q 662 783 665 803 q 656 715 659 747 q 648 662 652 682 q 647 651 648 659 q 647 643 647 647 q 646 635 647 639 q 644 625 646 628 q 642 605 644 617 q 642 600 642 602 q 639 594 640 597 q 631 579 636 585 q 623 572 625 574 q 618 552 620 563 q 617 530 618 541 q 612 495 616 515 q 605 458 609 475 q 601 441 604 454 q 594 420 598 426 q 590 418 593 418 q 587 420 589 418 q 583 426 585 425 q 582 437 582 431 q 578 446 581 442 q 568 473 572 463 q 563 502 566 483 q 559 524 562 507 q 553 552 556 540 q 547 559 551 559 q 545 557 544 559 q 541 548 544 556 q 540 548 540 548 q 540 547 540 547 q 533 533 537 541 q 522 522 529 525 q 513 522 518 519 q 503 532 505 528 q 496 540 500 534 q 492 547 495 543 q 487 555 490 552 q 487 556 487 556 q 486 557 486 557 q 483 563 484 560 q 480 567 481 566 q 471 567 477 567 q 465 568 469 568 q 464 568 464 568 q 461 570 463 570 q 439 587 446 574 q 430 614 431 598 q 427 644 429 631 q 422 692 425 659 q 415 758 418 724 q 408 817 411 785 q 401 875 404 848 q 400 883 401 879 q 400 891 400 887 q 393 925 397 907 q 395 959 391 943 q 396 963 396 962 q 397 967 396 966 q 408 979 401 975 q 410 979 410 979 q 411 981 410 981 q 425 986 416 983 q 446 987 437 987 q 467 986 457 986 q 605 986 513 986 q 628 989 617 987 q 633 989 631 989 q 650 986 642 989 q 669 978 662 983 q 677 967 674 974 m 327 948 q 327 937 328 943 q 326 924 327 930 q 323 890 324 907 q 317 857 321 873 q 317 853 317 856 q 316 848 316 850 q 315 831 315 838 q 313 822 313 825 q 312 812 313 819 q 304 728 308 769 q 296 667 300 686 q 296 661 296 663 q 294 655 294 658 q 292 640 293 651 q 292 624 292 632 q 289 606 290 616 q 283 590 288 598 q 273 576 279 582 q 264 568 270 572 q 256 562 259 566 q 250 555 255 559 q 239 534 244 544 q 229 513 233 524 q 224 500 227 505 q 221 488 222 496 q 218 484 220 480 q 216 515 216 500 q 213 547 216 532 q 202 528 208 537 q 190 510 197 518 q 182 500 187 506 q 170 498 176 496 q 167 498 168 498 q 165 499 167 499 q 164 500 165 500 q 164 500 164 500 q 157 510 160 503 q 141 533 148 522 q 132 555 136 544 q 129 560 130 557 q 126 567 127 564 q 117 567 123 567 q 111 568 115 568 q 109 568 110 568 q 107 570 109 570 q 87 586 94 575 q 77 610 80 597 q 76 624 76 617 q 75 639 75 632 q 72 656 75 644 q 66 700 69 673 q 61 757 64 727 q 53 825 57 788 q 46 891 49 861 q 39 925 43 907 q 38 941 38 933 q 41 959 38 949 q 42 963 42 962 q 43 967 42 966 q 54 979 47 975 q 56 979 56 979 q 57 981 56 981 q 71 986 62 983 q 92 987 81 987 q 113 986 103 986 q 233 986 153 986 q 256 987 244 986 q 281 987 270 987 q 286 987 279 987 q 296 986 293 986 q 313 978 305 985 q 317 975 316 977 q 320 972 317 974 q 326 960 326 966 q 327 948 327 954 z "},"#":{"ha":940,"x_min":54,"x_max":886,"o":"m 884 595 q 886 583 886 590 q 886 575 886 579 q 880 559 884 566 q 878 556 880 559 q 865 543 873 547 q 860 524 863 533 q 856 503 859 514 q 853 488 854 499 q 850 483 853 477 q 846 505 845 494 q 845 526 848 517 q 842 526 845 528 q 838 524 841 525 q 833 522 836 522 q 827 521 830 521 q 814 521 821 519 q 800 522 807 522 q 791 525 795 524 q 780 526 787 525 q 777 526 780 526 q 755 537 766 528 q 750 541 751 541 q 749 529 750 537 q 747 521 747 525 q 746 513 747 517 q 743 502 745 507 q 743 491 743 498 q 741 476 742 487 q 739 472 741 473 q 734 437 736 460 q 734 427 734 434 q 732 423 734 426 q 738 422 732 420 q 779 422 751 422 q 795 423 787 422 q 814 422 804 423 q 826 419 818 422 q 831 418 830 419 q 834 415 834 415 q 848 400 844 411 q 849 378 850 391 q 849 354 849 365 q 849 243 849 317 q 849 217 852 231 q 845 206 846 209 q 830 193 837 194 q 829 184 829 189 q 826 175 827 179 q 819 155 823 165 q 812 133 815 144 q 798 94 803 106 q 779 60 793 81 q 769 49 773 52 q 768 42 768 46 q 764 35 766 38 q 757 37 762 31 q 755 43 755 39 q 753 52 754 47 q 743 62 749 54 q 742 64 743 64 q 742 65 742 64 q 726 103 732 83 q 712 141 719 122 q 708 156 711 146 q 708 157 708 156 q 707 163 707 160 q 699 183 704 170 q 699 186 699 184 q 697 189 697 187 q 697 189 697 189 q 696 178 697 186 q 694 170 696 176 q 693 157 693 163 q 685 99 690 137 q 684 91 684 96 q 682 81 684 85 q 682 81 682 81 q 681 79 682 80 q 678 72 681 73 q 674 66 675 69 q 673 64 674 65 q 669 61 671 62 q 665 57 667 60 q 659 46 663 54 q 651 39 654 39 q 650 37 650 38 q 647 33 648 35 q 643 24 646 30 q 627 -5 635 9 q 612 -37 618 -20 q 609 -42 609 -42 q 605 -49 606 -45 q 601 -56 604 -53 q 595 -71 598 -64 q 586 -83 591 -77 q 575 -92 581 -92 q 559 -83 566 -94 q 548 -62 553 -72 q 540 -42 545 -56 q 534 -24 537 -34 q 528 -9 530 -16 q 515 15 522 3 q 503 39 510 27 q 503 39 503 39 q 502 42 503 41 q 500 27 500 35 q 498 14 500 20 q 495 16 496 12 q 491 22 494 20 q 488 27 490 24 q 486 33 487 31 q 475 47 480 39 q 463 65 468 56 q 458 72 461 68 q 456 79 456 77 q 456 94 454 85 q 458 107 457 100 q 467 161 461 125 q 467 165 467 163 q 469 183 468 170 q 471 187 468 182 q 465 189 472 191 q 464 182 464 186 q 460 176 463 178 q 457 179 458 176 q 453 174 456 176 q 449 156 452 160 q 438 151 446 153 q 425 159 430 151 q 414 159 418 157 q 408 161 408 161 q 404 161 408 160 q 401 164 403 163 q 399 167 400 165 q 397 138 396 153 q 393 114 400 125 q 388 123 388 107 q 388 151 389 140 q 384 178 385 178 q 381 178 384 176 q 380 176 381 183 q 380 165 380 168 q 378 161 380 164 q 378 156 378 159 q 377 152 378 155 q 377 148 377 151 q 376 144 377 146 q 374 140 374 141 q 370 100 373 127 q 369 98 370 99 q 365 76 369 88 q 361 69 362 71 q 354 62 358 65 q 347 54 351 58 q 336 47 343 50 q 332 45 334 45 q 330 20 331 34 q 327 -3 328 8 q 327 -26 327 -11 q 326 -50 327 -41 q 321 -53 326 -60 q 315 -19 312 -38 q 315 18 317 0 q 309 12 315 15 q 298 11 304 7 q 286 9 285 18 q 294 -18 289 0 q 302 -58 301 -38 q 288 -95 302 -79 q 285 -99 286 -99 q 283 -92 285 -99 q 283 -60 283 -79 q 282 -31 283 -41 q 281 9 281 -11 q 278 47 281 30 q 277 46 277 47 q 275 46 277 46 q 274 43 275 45 q 274 43 274 43 q 270 39 273 42 q 266 35 269 37 q 259 26 256 27 q 263 19 262 24 q 254 -5 266 15 q 251 -7 254 -7 q 248 -5 248 -7 q 245 12 244 8 q 240 38 247 15 q 240 39 240 39 q 239 39 239 39 q 239 39 239 39 q 237 41 239 41 q 235 46 237 41 q 232 42 233 42 q 228 45 229 41 q 224 52 227 49 q 222 50 224 52 q 216 45 222 49 q 213 34 214 39 q 210 23 213 30 q 209 12 209 19 q 205 7 209 4 q 199 24 198 9 q 198 34 201 41 q 197 14 194 26 q 198 -8 198 1 q 193 -15 199 -18 q 186 7 180 -9 q 187 38 190 23 q 186 41 187 39 q 182 42 183 43 q 180 24 179 34 q 176 8 182 15 q 172 12 174 4 q 171 26 172 20 q 164 43 165 42 q 165 41 164 45 q 168 38 168 37 q 164 54 170 39 q 157 57 161 56 q 152 60 157 57 q 149 62 152 60 q 146 65 148 64 q 141 72 144 66 q 140 79 140 75 q 140 85 140 83 q 141 96 140 92 q 142 107 142 102 q 148 130 144 115 q 152 163 148 138 q 152 168 152 165 q 153 172 153 171 q 152 189 152 178 q 149 187 151 189 q 148 184 148 186 q 144 182 148 183 q 142 180 141 176 q 137 170 142 183 q 136 163 137 165 q 136 146 136 155 q 133 129 134 137 q 132 121 133 126 q 127 107 130 114 q 126 103 126 106 q 123 95 123 98 q 123 94 123 95 q 122 92 122 94 q 119 88 123 94 q 113 79 115 81 q 106 79 111 77 q 103 83 104 80 q 99 85 102 84 q 98 90 99 88 q 98 91 98 91 q 95 98 95 96 q 80 136 84 117 q 72 171 75 156 q 71 176 71 172 q 69 186 69 179 q 69 191 69 187 q 68 197 68 195 q 61 206 64 198 q 56 218 58 210 q 56 365 56 267 q 54 380 56 372 q 54 384 54 382 q 56 395 54 389 q 58 403 56 397 q 60 404 58 404 q 60 406 60 404 q 65 412 61 408 q 77 420 72 419 q 87 422 81 422 q 96 422 92 422 q 126 423 109 423 q 163 422 144 422 q 190 422 172 422 q 193 441 191 427 q 194 452 193 448 q 203 505 197 469 q 205 514 205 510 q 206 525 205 519 q 201 541 205 530 q 195 534 197 537 q 183 522 190 529 q 168 511 176 515 q 132 513 151 499 q 119 524 127 515 q 114 530 115 532 q 111 519 111 529 q 109 515 111 511 q 104 530 104 522 q 104 548 106 538 q 98 559 99 555 q 92 571 95 563 q 91 586 91 578 q 92 602 92 594 q 92 707 92 637 q 91 724 92 715 q 92 742 91 734 q 99 761 92 751 q 104 768 102 764 q 107 769 109 770 q 111 772 110 772 q 114 772 113 772 q 126 774 122 774 q 243 774 165 774 q 244 787 243 777 q 245 791 244 789 q 245 795 245 793 q 251 831 248 807 q 252 838 252 833 q 256 861 254 846 q 258 872 258 864 q 262 886 258 878 q 288 910 269 906 q 308 911 294 911 q 323 910 315 911 q 338 910 331 910 q 454 910 377 910 q 475 902 467 910 q 484 884 483 892 q 484 872 486 879 q 481 857 483 864 q 473 803 479 838 q 473 799 473 802 q 471 780 473 793 q 471 776 471 779 q 475 774 469 773 q 559 774 503 774 q 560 787 559 777 q 560 791 560 789 q 562 795 562 793 q 566 817 563 802 q 568 841 566 822 q 574 869 570 848 q 575 880 574 878 q 586 901 578 891 q 613 910 594 910 q 726 910 650 910 q 736 910 731 910 q 749 911 743 910 q 768 911 755 911 q 773 910 770 911 q 776 910 774 910 q 800 884 796 906 q 800 875 802 880 q 798 857 799 868 q 789 799 793 831 q 787 780 788 792 q 785 776 787 779 q 791 774 785 773 q 818 774 799 774 q 840 776 829 776 q 860 773 850 776 q 882 753 876 769 q 884 746 884 750 q 886 731 886 739 q 884 713 884 722 q 884 595 884 674 m 416 422 q 506 422 439 422 q 507 437 506 426 q 509 445 509 439 q 514 480 511 463 q 519 513 517 498 q 522 536 521 521 q 524 541 525 541 q 519 541 522 541 q 515 541 518 541 q 513 540 514 540 q 494 537 503 538 q 473 534 484 534 q 446 538 464 536 q 435 541 444 540 q 433 530 434 538 q 433 528 433 530 q 431 522 431 525 q 430 514 431 518 q 429 498 429 506 q 425 480 427 488 q 420 446 423 469 q 419 435 422 450 q 416 422 416 420 z "},"$":{"ha":987,"x_min":35,"x_max":952,"o":"m 951 286 q 947 251 949 269 q 936 218 943 233 q 920 178 929 194 q 901 149 910 159 q 883 129 894 142 q 875 121 879 125 q 867 111 871 115 q 850 96 861 106 q 846 94 849 95 q 846 94 844 92 q 841 75 842 83 q 836 57 838 65 q 829 23 831 41 q 818 -8 825 7 q 812 -26 817 -15 q 800 -39 807 -37 q 791 -37 795 -41 q 785 -31 788 -34 q 772 -9 776 -20 q 760 14 766 3 q 755 24 758 18 q 754 27 754 26 q 753 31 754 30 q 741 8 746 20 q 731 -16 735 -4 q 722 -42 728 -24 q 716 -57 720 -47 q 703 -71 711 -68 q 697 -69 699 -71 q 688 -58 690 -66 q 685 -53 685 -53 q 677 -38 681 -46 q 671 -23 674 -31 q 665 -14 669 -18 q 654 -5 661 -8 q 652 -24 652 -15 q 650 -43 652 -34 q 647 -42 648 -45 q 644 -38 646 -39 q 642 -34 643 -35 q 639 -31 640 -33 q 636 -24 637 -27 q 632 -20 635 -22 q 628 -30 632 -26 q 624 -23 624 -31 q 623 -14 625 -16 q 620 -11 621 -11 q 617 -8 618 -9 q 609 0 614 -5 q 595 14 593 15 q 605 4 598 12 q 612 -9 614 -4 q 612 -79 612 -33 q 612 -92 612 -80 q 612 -111 613 -104 q 610 -114 610 -111 q 604 -123 609 -119 q 601 -127 602 -125 q 597 -130 600 -129 q 586 -140 594 -134 q 583 -145 585 -142 q 579 -151 582 -148 q 576 -153 578 -152 q 574 -157 575 -155 q 571 -160 572 -159 q 568 -164 570 -161 q 556 -176 564 -168 q 552 -179 555 -178 q 552 -179 548 -180 q 552 -180 552 -179 q 545 -209 547 -194 q 541 -239 544 -224 q 534 -275 537 -256 q 525 -313 530 -294 q 522 -330 524 -320 q 519 -335 521 -340 q 513 -328 515 -331 q 510 -324 511 -326 q 517 -336 513 -328 q 522 -354 522 -346 q 509 -365 522 -362 q 503 -366 506 -366 q 490 -354 492 -366 q 490 -315 487 -339 q 499 -267 495 -292 q 503 -228 505 -243 q 500 -227 503 -228 q 494 -222 498 -225 q 483 -212 487 -218 q 475 -198 479 -205 q 465 -186 472 -193 q 458 -180 458 -179 q 456 -205 456 -191 q 452 -228 457 -217 q 449 -224 450 -232 q 445 -212 448 -216 q 438 -195 444 -208 q 429 -172 433 -184 q 416 -151 425 -160 q 407 -141 414 -148 q 399 -138 404 -138 q 388 -134 395 -137 q 368 -102 368 -122 q 366 -92 368 -98 q 366 -62 365 -76 q 368 -37 368 -49 q 368 -5 368 -26 q 358 -4 366 -5 q 351 -9 354 -5 q 346 -16 349 -14 q 340 -23 343 -22 q 339 -30 339 -24 q 335 -31 336 -33 q 334 -30 334 -31 q 334 -20 334 -27 q 332 -15 332 -18 q 332 -9 334 -12 q 331 -8 332 -8 q 331 -7 331 -7 q 330 -23 327 -12 q 330 -31 330 -27 q 331 -38 331 -35 q 330 -42 331 -41 q 328 -45 330 -45 q 326 -46 327 -46 q 321 -45 323 -46 q 321 -43 321 -45 q 320 -43 321 -43 q 321 -50 321 -45 q 316 -61 321 -60 q 313 -62 316 -62 q 308 -62 312 -62 q 305 -81 309 -75 q 297 -84 302 -84 q 286 -76 289 -85 q 288 -53 285 -68 q 292 -26 290 -39 q 292 -11 292 -22 q 292 -11 292 -11 q 289 -9 290 -11 q 281 -11 288 -11 q 279 -11 281 -11 q 278 -9 279 -11 q 275 -11 277 -11 q 275 -16 275 -11 q 275 -23 275 -19 q 277 -30 277 -26 q 282 -56 279 -43 q 286 -83 285 -69 q 286 -94 286 -83 q 286 -106 288 -103 q 277 -117 283 -114 q 274 -146 274 -130 q 271 -176 274 -161 q 267 -178 270 -178 q 264 -176 264 -178 q 262 -144 262 -160 q 259 -113 262 -127 q 254 -102 255 -109 q 254 -95 252 -99 q 254 -85 254 -91 q 258 -65 255 -76 q 263 -42 262 -53 q 264 -27 263 -37 q 264 -26 264 -27 q 266 -23 264 -24 q 266 -9 266 -19 q 259 -9 264 -9 q 254 -30 255 -19 q 248 -50 251 -39 q 247 -71 247 -57 q 243 -77 245 -83 q 239 -50 237 -64 q 237 -22 240 -37 q 236 -18 237 -19 q 233 -19 233 -16 q 233 -41 232 -26 q 233 -62 233 -54 q 228 -66 233 -72 q 214 -47 213 -52 q 222 -43 216 -43 q 232 -41 231 -45 q 218 -20 233 -37 q 214 -12 214 -18 q 213 0 216 -5 q 210 7 212 3 q 208 15 210 11 q 201 20 203 18 q 193 27 198 22 q 189 33 191 30 q 187 34 189 34 q 187 12 187 26 q 189 5 187 8 q 189 -1 189 1 q 190 -7 189 -4 q 190 -12 190 -9 q 191 -19 190 -14 q 189 -26 191 -23 q 184 -27 189 -30 q 180 -23 184 -27 q 178 -18 178 -20 q 176 -16 176 -16 q 176 -15 176 -15 q 175 -1 175 -8 q 176 11 175 5 q 179 27 178 19 q 178 43 179 37 q 178 45 178 45 q 176 46 176 45 q 174 47 176 47 q 172 38 172 45 q 172 27 172 33 q 174 18 174 22 q 172 11 174 12 q 168 11 172 7 q 161 18 167 11 q 156 24 156 23 q 160 24 155 26 q 164 22 159 24 q 171 18 171 18 q 171 20 171 20 q 167 24 171 20 q 164 30 164 27 q 146 58 148 42 q 144 62 144 58 q 141 66 142 65 q 138 72 140 69 q 136 76 137 75 q 134 83 134 79 q 132 90 134 85 q 126 95 129 92 q 119 100 122 98 q 115 103 118 100 q 106 113 110 109 q 98 123 102 118 q 38 248 49 182 q 38 251 38 250 q 35 259 37 255 q 35 270 35 264 q 35 277 35 271 q 37 289 35 285 q 37 292 37 290 q 45 304 39 298 q 52 309 49 308 q 58 312 56 311 q 68 312 61 312 q 279 312 138 312 q 315 313 296 312 q 349 311 334 315 q 378 297 365 307 q 396 285 388 292 q 414 274 404 279 q 437 264 426 267 q 457 259 448 263 q 467 258 463 258 q 476 256 471 258 q 491 256 481 256 q 513 258 503 256 q 533 259 524 258 q 538 260 536 259 q 544 262 541 262 q 551 263 547 263 q 555 264 553 263 q 559 264 557 264 q 566 267 562 266 q 570 269 568 269 q 574 270 572 269 q 591 283 586 275 q 593 285 591 285 q 593 286 593 285 q 595 296 595 292 q 593 311 595 305 q 586 317 589 316 q 571 328 581 324 q 555 334 562 332 q 552 335 553 334 q 505 340 529 340 q 456 340 479 342 q 427 338 442 340 q 397 340 412 336 q 395 339 396 339 q 366 324 381 332 q 335 317 353 315 q 315 324 326 320 q 297 335 305 330 q 269 358 282 346 q 240 381 254 369 q 213 403 227 392 q 186 426 198 415 q 172 439 179 431 q 159 452 165 448 q 156 452 157 453 q 155 453 155 452 q 152 456 153 454 q 151 460 152 458 q 144 465 151 460 q 137 471 138 471 q 134 473 137 472 q 123 486 129 479 q 114 498 118 491 q 92 530 100 511 q 71 581 77 555 q 64 595 65 587 q 60 637 60 616 q 58 652 58 644 q 58 667 58 659 q 103 819 58 751 q 118 842 110 833 q 133 860 126 853 q 149 875 140 867 q 165 888 157 882 q 186 905 175 898 q 209 920 197 913 q 209 920 209 920 q 212 921 210 921 q 220 926 216 924 q 231 932 225 929 q 241 937 236 935 q 251 941 245 940 q 275 951 263 947 q 298 960 288 956 q 317 966 308 963 q 336 970 327 968 q 359 975 351 975 q 370 975 363 975 q 396 974 395 975 q 391 971 399 972 q 373 972 382 971 q 368 982 365 975 q 368 1074 368 1012 q 380 1100 368 1089 q 406 1111 391 1111 q 525 1111 445 1111 q 553 1112 538 1111 q 563 1114 557 1114 q 581 1111 571 1114 q 597 1103 591 1109 q 610 1085 604 1097 q 612 1072 613 1080 q 612 1057 612 1063 q 612 972 612 1028 q 632 968 616 971 q 636 967 633 967 q 671 958 652 963 q 705 943 690 951 q 707 943 705 943 q 707 941 707 943 q 826 867 777 911 q 898 774 875 822 q 898 774 898 774 q 899 772 899 773 q 902 765 902 766 q 906 757 903 762 q 917 715 916 734 q 917 711 917 718 q 918 699 918 704 q 910 678 918 686 q 899 670 905 671 q 891 667 894 669 q 880 667 887 663 q 857 663 872 665 q 834 661 844 662 q 831 659 833 659 q 762 658 800 651 q 745 663 754 661 q 724 669 735 667 q 712 669 718 669 q 700 667 705 669 q 684 663 692 665 q 667 659 675 661 q 593 667 629 655 q 576 674 583 670 q 568 680 571 678 q 559 686 563 682 q 548 694 555 690 q 536 693 538 692 q 522 699 529 694 q 509 703 515 701 q 498 705 503 704 q 487 708 494 707 q 481 711 484 711 q 476 708 479 711 q 458 703 469 705 q 448 701 453 701 q 437 701 444 701 q 427 701 433 701 q 423 699 425 699 q 418 690 420 696 q 416 684 416 686 q 415 674 415 681 q 422 659 416 665 q 431 648 426 654 q 449 642 441 644 q 464 636 458 639 q 465 635 465 636 q 467 635 465 635 q 502 627 481 631 q 547 620 521 624 q 556 618 547 620 q 570 617 564 618 q 578 616 574 617 q 585 616 582 616 q 606 613 595 614 q 627 609 617 612 q 822 548 750 587 q 925 446 894 510 q 932 437 929 442 q 935 426 933 430 q 944 400 940 414 q 948 373 947 388 q 952 326 952 357 q 952 298 952 316 q 952 293 952 296 q 951 286 951 289 m 305 -41 q 307 -37 305 -39 q 307 -34 307 -35 q 308 -27 307 -31 q 308 -20 308 -23 q 308 -15 308 -19 q 307 -8 308 -11 q 305 -8 307 -8 q 302 -9 304 -8 q 302 -20 301 -15 q 304 -33 302 -24 q 305 -35 304 -34 q 305 -41 305 -38 m 316 -19 q 317 -27 316 -23 q 317 -37 317 -33 q 319 -27 317 -33 q 320 -20 320 -22 q 321 -9 320 -18 q 320 -8 320 -9 q 316 -14 316 -11 q 316 -19 316 -16 z "},"%":{"ha":1175,"x_min":35,"x_max":1139,"o":"m 254 479 q 68 571 122 483 q 57 589 62 579 q 50 605 53 597 q 46 620 49 613 q 43 633 45 627 q 37 680 38 655 q 35 703 35 692 q 37 726 35 715 q 37 749 37 736 q 38 776 37 762 q 39 787 39 783 q 39 796 39 791 q 53 860 42 831 q 60 876 56 868 q 66 888 62 883 q 75 901 72 898 q 267 979 133 979 q 282 979 271 979 q 453 902 397 972 q 461 888 458 895 q 468 875 465 882 q 488 802 484 842 q 491 768 491 785 q 491 735 491 751 q 490 659 494 701 q 473 593 487 618 q 460 571 467 581 q 458 570 460 570 q 458 568 458 570 q 422 529 444 545 q 419 526 420 528 q 416 524 418 525 q 408 513 412 518 q 399 503 404 509 q 381 490 391 496 q 362 476 372 483 q 349 467 355 471 q 331 458 340 461 q 298 463 315 457 q 269 476 281 468 q 264 473 266 473 q 259 475 256 473 q 263 476 262 475 q 254 479 266 477 m 468 175 q 456 159 465 171 q 435 133 442 141 q 393 79 420 115 q 372 52 384 65 q 350 23 361 38 q 339 11 347 19 q 331 4 336 8 q 323 -3 327 0 q 308 -16 317 -7 q 294 -31 301 -23 q 281 -46 288 -39 q 279 -47 281 -47 q 279 -49 279 -47 q 277 -52 279 -49 q 270 -56 274 -53 q 267 -92 269 -73 q 264 -130 267 -111 q 264 -149 263 -137 q 258 -160 266 -161 q 251 -146 250 -157 q 252 -126 252 -134 q 251 -90 251 -107 q 247 -53 250 -71 q 239 -42 244 -50 q 233 -30 237 -39 q 222 -9 228 -19 q 220 -14 222 -16 q 218 -9 218 -12 q 217 -3 218 -5 q 216 -4 216 -3 q 214 -4 216 -4 q 210 -12 212 -5 q 209 -19 210 -18 q 206 -27 208 -22 q 203 -33 206 -34 q 199 -27 199 -30 q 191 -34 194 -34 q 180 -27 187 -35 q 172 -19 176 -23 q 167 -9 170 -14 q 163 -24 164 -16 q 159 -39 163 -33 q 156 -35 157 -41 q 156 -24 156 -30 q 152 0 155 -16 q 149 1 151 0 q 146 1 148 1 q 129 14 133 7 q 126 37 122 23 q 129 41 126 38 q 133 47 130 42 q 140 57 137 52 q 149 68 144 62 q 157 79 153 73 q 170 94 161 84 q 243 191 187 118 q 278 241 262 217 q 308 281 294 266 q 350 335 331 311 q 382 373 368 359 q 503 533 422 427 q 555 605 530 572 q 594 656 579 639 q 643 720 621 693 q 675 761 663 749 q 686 774 681 768 q 697 789 692 783 q 776 892 724 823 q 783 901 777 895 q 796 918 787 906 q 810 939 803 929 q 825 958 817 948 q 846 970 834 967 q 869 972 857 972 q 983 972 907 972 q 1010 972 996 972 q 1035 966 1025 974 q 1043 936 1050 952 q 1043 935 1043 935 q 1042 932 1042 933 q 1038 925 1040 929 q 1032 918 1035 922 q 1029 916 1029 918 q 1019 902 1025 910 q 1004 883 1010 892 q 994 869 998 876 q 982 854 989 861 q 916 765 960 825 q 898 738 906 751 q 878 713 888 726 q 846 674 861 689 q 787 593 814 629 q 745 541 758 556 q 625 385 705 490 q 624 384 625 385 q 624 382 624 384 q 581 323 601 353 q 540 269 560 293 q 498 210 517 235 q 468 175 477 184 m 231 663 q 264 629 235 631 q 273 631 270 629 q 277 632 277 632 q 294 651 290 639 q 298 678 297 663 q 300 692 300 685 q 300 705 300 699 q 300 751 302 730 q 300 766 300 758 q 298 780 300 773 q 298 789 298 784 q 297 798 297 793 q 294 806 297 802 q 286 819 293 812 q 267 826 279 826 q 245 821 254 825 q 244 821 244 821 q 243 819 243 819 q 233 802 235 814 q 229 779 231 791 q 228 754 228 766 q 228 728 228 741 q 228 701 228 713 q 229 677 228 689 q 231 663 229 669 m 1139 197 q 1135 161 1138 179 q 1127 129 1134 144 q 1127 127 1127 127 q 1126 125 1126 126 q 1114 95 1120 107 q 1096 69 1107 81 q 1097 71 1103 76 q 1089 61 1092 64 q 1085 56 1090 62 q 1077 49 1080 50 q 1076 47 1076 47 q 1073 45 1074 46 q 1067 42 1072 43 q 1061 16 1066 34 q 1061 11 1061 14 q 1059 5 1059 8 q 1058 -7 1058 0 q 1055 -9 1058 -12 q 1051 -18 1054 -12 q 1046 -24 1048 -22 q 1039 -26 1043 -26 q 1032 -18 1034 -23 q 1025 -4 1027 -9 q 1016 -14 1017 -8 q 1015 -18 1015 -15 q 1012 -22 1015 -19 q 1019 -49 1015 -34 q 1016 -85 1024 -65 q 1012 -85 1016 -88 q 1009 -81 1009 -83 q 1008 -64 1008 -72 q 1006 -46 1008 -56 q 1000 -69 1005 -57 q 997 -76 1000 -72 q 994 -83 996 -79 q 989 -91 991 -88 q 985 -95 987 -92 q 982 -96 983 -96 q 979 -98 981 -96 q 977 -121 978 -102 q 972 -161 975 -140 q 967 -191 971 -182 q 964 -193 967 -193 q 962 -191 963 -193 q 958 -174 959 -182 q 956 -156 958 -165 q 954 -125 954 -140 q 949 -96 952 -110 q 939 -83 944 -94 q 935 -73 937 -77 q 929 -62 932 -68 q 928 -57 928 -60 q 926 -54 928 -56 q 918 -33 924 -46 q 918 -30 918 -31 q 917 -24 917 -26 q 916 -20 917 -22 q 914 -16 914 -18 q 913 -11 914 -14 q 911 -9 913 -9 q 911 -7 911 -8 q 902 -7 907 -7 q 715 84 769 -3 q 705 102 709 94 q 697 119 700 111 q 693 133 696 126 q 690 148 692 140 q 684 193 685 170 q 684 239 682 217 q 684 263 684 250 q 685 290 684 277 q 686 300 686 296 q 686 309 686 304 q 700 373 689 346 q 707 389 703 382 q 713 403 709 397 q 722 414 719 411 q 799 472 750 452 q 911 494 848 494 q 930 494 918 494 q 939 491 936 494 q 947 491 943 491 q 956 490 951 491 q 982 486 972 490 q 993 483 986 486 q 1010 477 1002 480 q 1027 471 1020 475 q 1035 468 1031 469 q 1044 463 1040 465 q 1046 463 1044 463 q 1046 461 1046 463 q 1088 427 1072 449 q 1093 423 1090 426 q 1111 397 1103 414 q 1123 373 1118 385 q 1133 343 1127 362 q 1137 304 1137 324 q 1139 264 1138 283 q 1139 197 1139 241 m 944 178 q 945 184 945 179 q 948 235 948 209 q 947 282 948 259 q 947 288 947 285 q 945 294 945 292 q 940 324 945 312 q 925 339 936 335 q 911 338 920 339 q 899 335 905 336 q 891 335 897 335 q 886 328 888 332 q 882 321 883 326 q 876 293 876 309 q 875 267 875 281 q 875 241 875 254 q 875 217 875 229 q 876 193 875 205 q 878 178 876 183 q 911 142 882 144 q 920 144 917 142 q 924 146 924 146 q 939 160 935 152 q 944 178 943 168 z "},"&":{"ha":1088,"x_min":47,"x_max":1066,"o":"m 1066 23 q 1061 9 1066 15 q 1054 3 1058 5 q 1048 -15 1051 -4 q 1046 -23 1047 -19 q 1042 -33 1044 -27 q 1039 -45 1040 -37 q 1036 -49 1039 -53 q 1032 -37 1032 -43 q 1032 -22 1034 -30 q 1029 -27 1031 -24 q 1025 -33 1028 -30 q 1017 -45 1021 -39 q 1008 -58 1012 -52 q 1005 -65 1006 -60 q 1002 -66 1004 -69 q 1001 -52 1001 -60 q 1000 -39 1000 -45 q 997 -41 997 -39 q 996 -91 996 -65 q 991 -141 994 -117 q 991 -142 991 -142 q 989 -141 990 -142 q 986 -137 986 -138 q 981 -102 978 -118 q 986 -71 983 -85 q 979 -41 989 -56 q 978 -75 978 -57 q 975 -110 978 -92 q 972 -113 975 -111 q 970 -117 971 -114 q 956 -132 964 -123 q 936 -140 947 -138 q 917 -127 921 -142 q 914 -90 913 -111 q 921 -47 917 -66 q 925 -27 925 -30 q 920 -27 925 -27 q 914 -39 917 -31 q 910 -41 913 -41 q 909 -45 909 -42 q 907 -65 907 -54 q 902 -85 909 -76 q 898 -80 899 -92 q 895 -64 898 -69 q 890 -37 891 -42 q 887 -30 888 -31 q 880 -20 887 -27 q 875 -19 875 -20 q 872 -56 872 -38 q 869 -95 872 -75 q 869 -96 869 -95 q 869 -96 869 -96 q 869 -98 869 -103 q 861 -91 869 -92 q 861 -119 864 -109 q 846 -126 859 -129 q 831 -114 834 -123 q 829 -92 827 -104 q 814 -94 823 -95 q 795 -79 803 -91 q 780 -58 788 -68 q 761 -33 770 -45 q 739 -8 750 -20 q 736 -5 738 -7 q 735 -1 736 -3 q 726 12 731 3 q 715 22 719 16 q 704 31 709 26 q 704 31 704 31 q 703 33 704 33 q 693 41 697 38 q 689 45 693 42 q 686 47 686 47 q 680 43 684 46 q 678 42 678 42 q 674 39 677 41 q 671 35 673 38 q 655 19 666 30 q 652 3 654 11 q 650 -12 651 -5 q 648 -28 648 -20 q 644 -43 647 -37 q 643 -52 643 -47 q 639 -58 642 -56 q 636 -57 637 -60 q 635 -53 635 -54 q 632 -41 633 -47 q 629 -30 631 -35 q 628 -14 628 -22 q 625 3 628 -4 q 620 -1 624 3 q 614 -8 616 -5 q 604 -20 609 -14 q 593 -31 600 -27 q 590 -60 590 -45 q 587 -90 590 -73 q 587 -103 586 -95 q 582 -115 589 -113 q 576 -107 576 -117 q 576 -92 578 -98 q 575 -58 575 -75 q 572 -26 575 -42 q 559 -12 567 -22 q 557 -20 557 -16 q 555 -26 557 -23 q 548 -24 555 -24 q 534 -24 538 -24 q 529 -27 533 -26 q 517 -43 525 -34 q 500 -65 510 -54 q 491 -72 495 -71 q 490 -77 490 -73 q 487 -81 490 -80 q 484 -80 486 -83 q 481 -79 483 -77 q 479 -84 479 -80 q 476 -92 479 -90 q 473 -92 475 -94 q 471 -91 471 -92 q 468 -81 468 -85 q 465 -72 468 -76 q 463 -69 464 -69 q 460 -66 461 -68 q 457 -62 457 -64 q 456 -62 456 -62 q 456 -61 456 -61 q 454 -60 456 -60 q 454 -58 454 -60 q 449 -50 452 -56 q 446 -43 448 -47 q 444 -37 445 -41 q 439 -27 442 -34 q 437 -20 438 -24 q 431 -14 435 -16 q 419 -14 427 -14 q 210 27 297 -11 q 80 138 123 65 q 69 161 73 149 q 61 186 64 174 q 57 199 60 191 q 47 258 50 222 q 47 282 47 270 q 50 330 47 307 q 68 385 56 365 q 69 387 68 387 q 69 388 69 387 q 110 452 84 423 q 171 507 136 480 q 178 513 174 510 q 184 517 182 515 q 198 525 191 521 q 210 532 205 529 q 228 543 218 538 q 221 549 225 545 q 216 557 218 553 q 195 582 203 570 q 187 594 193 586 q 184 600 186 597 q 182 602 183 601 q 153 674 161 639 q 149 692 152 684 q 146 711 148 701 q 146 746 146 723 q 164 821 151 788 q 171 837 167 830 q 277 943 203 901 q 473 986 351 985 q 502 986 483 986 q 509 986 505 986 q 517 985 513 986 q 530 985 525 986 q 537 985 533 985 q 541 983 540 983 q 707 920 644 971 q 791 804 769 869 q 793 795 793 800 q 796 788 795 791 q 798 777 796 784 q 799 773 799 776 q 799 770 799 772 q 800 765 800 768 q 802 743 802 755 q 802 720 803 732 q 800 712 802 716 q 800 704 800 708 q 799 701 800 703 q 799 697 799 700 q 798 688 798 694 q 795 677 796 682 q 792 669 795 673 q 784 646 789 656 q 773 624 779 635 q 765 612 769 618 q 755 597 761 604 q 747 586 753 594 q 743 582 746 585 q 730 567 739 576 q 727 564 728 566 q 719 559 722 560 q 708 548 713 553 q 701 541 703 543 q 701 540 701 540 q 700 538 700 540 q 697 536 700 538 q 689 522 693 529 q 680 509 686 515 q 671 498 677 505 q 677 502 677 502 q 662 486 678 502 q 655 479 659 481 q 644 476 651 475 q 636 480 640 477 q 628 486 632 483 q 627 487 628 487 q 624 490 621 494 q 628 484 627 487 q 635 477 631 483 q 635 477 635 477 q 636 476 635 476 q 642 469 640 472 q 646 467 644 468 q 647 464 646 465 q 669 444 654 457 q 674 437 671 441 q 681 429 678 431 q 694 415 685 425 q 701 408 697 412 q 711 397 705 404 q 715 393 712 396 q 718 392 718 392 q 722 387 719 389 q 728 381 724 385 q 731 384 728 381 q 738 393 734 388 q 743 400 741 396 q 749 408 746 404 q 757 420 751 412 q 773 450 765 433 q 779 458 776 454 q 784 468 783 464 q 789 483 787 475 q 796 496 792 490 q 799 500 798 499 q 803 503 802 502 q 818 509 811 509 q 830 510 825 510 q 845 509 837 510 q 857 509 852 509 q 994 509 903 509 q 1012 510 1002 509 q 1031 510 1023 511 q 1036 509 1034 509 q 1042 507 1040 509 q 1055 495 1051 503 q 1058 479 1058 490 q 1055 460 1058 469 q 1048 442 1051 450 q 1046 434 1047 438 q 1042 427 1044 430 q 1016 378 1032 406 q 979 324 998 351 q 937 269 964 296 q 935 263 936 266 q 929 256 932 259 q 921 247 925 251 q 914 239 918 243 q 903 227 909 233 q 892 216 899 221 q 911 197 899 209 q 936 171 917 191 q 959 148 947 160 q 982 123 971 134 q 1006 98 994 110 q 1031 72 1019 84 q 1047 57 1038 65 q 1061 41 1055 50 q 1066 23 1066 34 m 533 712 q 534 720 534 716 q 534 730 534 726 q 534 734 534 732 q 533 738 533 736 q 529 746 532 741 q 509 766 524 760 q 488 769 499 769 q 471 766 479 769 q 452 762 460 766 q 433 731 435 749 q 437 705 431 718 q 448 682 442 692 q 448 680 448 681 q 449 678 449 680 q 457 669 450 677 q 469 655 465 659 q 480 661 473 658 q 503 674 486 665 q 507 677 506 675 q 510 680 509 678 q 529 701 524 692 q 530 704 529 701 q 530 705 530 707 q 533 712 533 711 m 503 228 q 515 235 506 229 q 502 248 511 239 q 498 254 500 251 q 491 258 495 256 q 431 321 472 279 q 423 330 427 326 q 415 339 419 334 q 393 361 408 346 q 388 358 393 361 q 388 358 388 358 q 387 357 388 357 q 385 351 385 354 q 382 347 385 349 q 382 347 382 347 q 381 346 382 347 q 381 346 381 346 q 381 346 381 346 q 381 346 378 343 q 378 349 384 349 q 350 294 351 328 q 366 250 350 271 q 437 218 396 218 q 450 218 441 218 q 473 221 458 220 q 503 228 488 222 m 837 -49 q 841 -27 841 -30 q 836 -18 841 -24 q 836 -33 834 -23 q 837 -49 836 -41 m 853 -19 q 856 -58 852 -34 q 856 -38 856 -47 q 853 -19 856 -30 z "},"'":{"ha":366,"x_min":38,"x_max":327,"o":"m 309 791 q 302 716 305 751 q 294 663 298 682 q 293 639 293 651 q 290 613 293 625 q 283 589 289 601 q 266 570 278 579 q 263 563 264 567 q 245 538 255 548 q 240 532 241 530 q 237 544 237 540 q 237 543 237 543 q 236 541 236 541 q 222 506 229 524 q 209 469 217 487 q 199 453 205 460 q 191 441 194 446 q 180 429 189 435 q 179 420 179 426 q 175 414 179 414 q 171 420 171 415 q 170 429 171 426 q 164 433 168 429 q 161 438 164 437 q 159 441 159 439 q 144 476 149 456 q 136 515 138 496 q 132 540 133 529 q 126 567 129 552 q 117 567 123 567 q 111 568 115 568 q 109 568 110 568 q 107 570 109 570 q 84 587 92 574 q 76 614 77 598 q 73 644 75 631 q 68 692 71 659 q 61 758 64 724 q 53 817 57 785 q 47 875 50 848 q 46 883 47 879 q 46 891 46 887 q 39 925 43 907 q 38 941 38 933 q 41 959 38 949 q 42 963 42 962 q 43 967 42 966 q 54 979 47 975 q 56 979 56 979 q 57 981 56 981 q 71 986 62 983 q 92 987 81 987 q 113 986 103 986 q 251 986 159 986 q 274 989 263 987 q 279 989 277 989 q 296 986 288 989 q 298 986 297 986 q 300 985 298 985 q 304 983 302 985 q 309 981 307 982 q 313 978 312 981 q 324 966 320 975 q 327 948 327 958 q 327 941 327 945 q 327 932 327 939 q 326 920 327 926 q 324 909 326 914 q 321 884 323 901 q 320 879 321 882 q 320 872 320 875 q 319 871 320 871 q 317 868 317 869 q 309 791 315 842 z "},"(":{"ha":587,"x_min":41,"x_max":559,"o":"m 557 -138 q 559 -168 557 -153 q 559 -175 559 -172 q 556 -195 559 -186 q 555 -198 556 -197 q 555 -198 555 -198 q 553 -199 555 -199 q 553 -201 553 -199 q 547 -210 551 -205 q 541 -213 544 -212 q 536 -217 538 -216 q 536 -231 534 -222 q 530 -243 536 -239 q 526 -244 530 -244 q 526 -243 526 -243 q 525 -243 525 -243 q 522 -232 522 -241 q 519 -221 521 -228 q 515 -221 518 -221 q 518 -250 514 -232 q 511 -267 522 -267 q 505 -250 500 -267 q 509 -221 510 -232 q 494 -221 503 -221 q 441 -214 467 -218 q 388 -205 414 -212 q 354 -194 369 -199 q 327 -183 338 -189 q 301 -172 315 -178 q 277 -157 288 -167 q 121 19 183 -99 q 45 327 58 137 q 43 330 43 328 q 42 343 42 336 q 42 359 42 351 q 41 391 41 374 q 41 423 41 406 q 41 467 41 438 q 42 499 42 483 q 45 530 43 515 q 45 541 45 534 q 47 568 46 556 q 50 594 49 582 q 50 600 50 597 q 52 604 52 602 q 60 655 54 629 q 69 705 64 681 q 76 724 72 713 q 149 887 104 819 q 176 926 160 911 q 331 1043 243 1008 q 519 1078 419 1077 q 533 1077 528 1078 q 552 1061 545 1069 q 557 1046 555 1057 q 557 1028 557 1040 q 557 1009 559 1019 q 557 994 557 1001 q 557 909 557 966 q 557 891 557 901 q 559 873 559 882 q 559 865 559 869 q 557 857 559 861 q 556 852 557 854 q 553 848 556 850 q 551 842 553 845 q 541 833 547 838 q 537 807 538 821 q 533 780 536 795 q 529 738 532 758 q 519 697 526 716 q 511 675 517 690 q 507 662 510 671 q 506 659 506 661 q 505 655 506 658 q 503 654 505 654 q 503 651 503 652 q 495 642 500 646 q 490 639 494 640 q 490 639 487 637 q 488 632 488 636 q 484 625 487 628 q 483 623 484 624 q 480 623 481 621 q 475 635 477 624 q 471 647 471 646 q 458 663 463 655 q 450 686 456 671 q 444 718 446 701 q 438 749 441 734 q 435 766 437 758 q 435 779 435 773 q 431 785 435 779 q 431 796 431 788 q 426 787 430 788 q 423 784 426 785 q 415 773 418 777 q 404 760 410 766 q 393 745 399 753 q 389 738 392 742 q 385 730 388 734 q 382 724 382 727 q 366 684 372 704 q 354 643 359 662 q 342 579 346 612 q 340 562 340 570 q 339 545 340 553 q 338 521 338 532 q 336 502 338 510 q 334 438 335 475 q 335 368 334 400 q 338 335 336 353 q 340 297 339 316 q 353 220 345 254 q 354 217 353 218 q 354 216 354 217 q 357 205 355 210 q 359 193 358 199 q 366 174 362 183 q 373 155 369 164 q 391 118 381 136 q 414 84 400 100 q 422 75 416 81 q 445 57 433 65 q 468 45 456 50 q 481 39 475 42 q 496 35 488 37 q 499 34 498 35 q 526 30 513 34 q 540 23 532 30 q 547 18 543 22 q 556 4 555 11 q 559 -16 559 -7 q 557 -31 559 -23 q 557 -46 557 -39 q 557 -138 557 -77 z "},")":{"ha":587,"x_min":28,"x_max":548,"o":"m 545 487 q 548 453 548 471 q 548 445 548 449 q 547 403 547 422 q 547 385 547 397 q 547 370 547 378 q 545 354 545 362 q 544 334 544 345 q 543 312 544 324 q 541 307 543 308 q 541 292 541 298 q 538 277 540 283 q 537 255 537 266 q 533 233 536 244 q 532 227 532 231 q 530 221 532 224 q 513 136 524 168 q 511 134 513 134 q 511 133 511 134 q 509 125 511 130 q 491 66 502 95 q 468 20 481 38 q 456 -4 464 12 q 419 -58 438 -41 q 400 -81 410 -71 q 380 -104 391 -94 q 362 -119 373 -110 q 359 -122 359 -122 q 354 -126 357 -123 q 350 -136 351 -130 q 345 -146 347 -140 q 328 -176 339 -160 q 302 -198 317 -191 q 292 -199 297 -201 q 282 -194 286 -197 q 278 -205 281 -198 q 273 -203 277 -208 q 267 -199 270 -199 q 259 -208 259 -201 q 250 -205 259 -214 q 248 -214 250 -212 q 239 -221 248 -214 q 228 -231 229 -229 q 225 -236 227 -232 q 222 -237 224 -239 q 220 -228 221 -233 q 220 -220 220 -224 q 218 -220 218 -220 q 217 -221 218 -221 q 216 -221 217 -221 q 216 -222 216 -221 q 212 -225 214 -222 q 209 -231 210 -228 q 206 -237 209 -235 q 199 -250 205 -240 q 189 -258 194 -258 q 182 -250 183 -258 q 179 -240 179 -240 q 176 -243 176 -243 q 174 -245 176 -243 q 167 -251 171 -248 q 160 -256 164 -254 q 140 -278 153 -264 q 133 -282 137 -279 q 126 -285 130 -285 q 123 -285 125 -285 q 113 -277 118 -285 q 103 -260 107 -269 q 90 -237 100 -252 q 84 -233 88 -236 q 81 -232 83 -233 q 80 -231 79 -231 q 77 -228 80 -229 q 76 -229 76 -228 q 73 -233 75 -232 q 71 -233 72 -235 q 68 -233 68 -232 q 65 -251 64 -250 q 61 -221 66 -251 q 50 -217 57 -220 q 46 -213 49 -214 q 42 -210 45 -212 q 31 -189 33 -199 q 30 -167 30 -178 q 31 -144 31 -156 q 31 -43 31 -111 q 30 -20 31 -37 q 33 5 30 -5 q 47 23 37 16 q 65 31 53 27 q 84 34 72 34 q 100 37 96 35 q 121 45 107 39 q 176 88 153 60 q 206 133 193 109 q 220 168 214 151 q 231 205 225 186 q 231 208 231 206 q 232 210 232 209 q 233 213 233 212 q 235 218 235 216 q 236 225 235 222 q 245 273 241 248 q 250 321 248 296 q 254 384 252 354 q 254 429 254 414 q 254 457 254 441 q 252 495 254 473 q 252 503 252 499 q 251 514 251 509 q 248 547 250 528 q 244 589 247 567 q 237 633 241 613 q 225 675 232 655 q 224 677 225 677 q 224 678 224 677 q 217 699 221 689 q 209 718 213 708 q 206 724 208 720 q 203 731 205 728 q 194 745 198 738 q 184 760 190 753 q 175 772 179 766 q 165 783 171 776 q 164 784 165 783 q 157 789 161 787 q 151 795 155 793 q 146 796 151 796 q 144 793 144 795 q 141 791 142 792 q 134 785 138 788 q 136 777 136 783 q 136 770 136 773 q 136 764 138 766 q 132 762 134 762 q 129 764 129 762 q 126 777 123 768 q 126 785 126 780 q 126 798 129 792 q 125 802 126 800 q 122 802 123 803 q 121 785 121 798 q 122 777 122 783 q 122 770 122 773 q 123 768 122 769 q 121 764 123 765 q 117 764 119 762 q 107 776 110 766 q 104 789 103 787 q 103 792 103 791 q 102 804 102 796 q 100 807 102 806 q 100 785 99 798 q 96 776 103 772 q 91 787 94 777 q 90 804 90 795 q 84 798 85 799 q 79 791 81 792 q 73 789 77 789 q 75 761 72 779 q 68 747 77 743 q 61 768 58 753 q 60 798 64 784 q 58 799 60 798 q 54 806 57 800 q 50 814 53 808 q 47 822 49 818 q 45 829 46 826 q 43 831 45 831 q 38 842 42 837 q 33 853 35 848 q 28 871 28 861 q 30 878 28 873 q 31 903 31 890 q 31 1006 31 937 q 30 1023 31 1015 q 31 1040 30 1032 q 41 1065 31 1053 q 57 1077 45 1073 q 68 1078 61 1078 q 84 1078 76 1078 q 125 1076 103 1078 q 183 1065 156 1073 q 251 1044 225 1057 q 263 1040 256 1043 q 274 1035 269 1038 q 285 1029 281 1032 q 296 1024 290 1027 q 305 1019 301 1023 q 307 1017 307 1017 q 323 1008 316 1012 q 335 998 330 1002 q 475 825 419 939 q 543 532 530 709 q 544 529 544 530 q 545 509 544 519 q 545 487 545 499 m 138 793 q 141 798 140 793 q 138 799 141 798 q 137 795 137 798 q 134 789 136 792 q 138 793 136 791 z "},"*":{"ha":617,"x_min":39,"x_max":578,"o":"m 575 738 q 571 731 572 732 q 568 730 570 730 q 562 724 567 727 q 560 711 560 719 q 559 708 560 709 q 559 704 559 707 q 557 692 559 699 q 557 684 557 686 q 549 647 555 669 q 541 605 544 627 q 541 602 541 605 q 540 590 540 595 q 538 576 538 583 q 537 564 538 572 q 536 563 537 563 q 536 562 536 562 q 534 563 534 562 q 533 571 533 566 q 533 582 533 576 q 532 597 532 589 q 532 612 532 604 q 524 598 529 606 q 522 595 522 597 q 521 593 522 594 q 518 593 519 591 q 517 594 518 594 q 502 576 502 579 q 507 578 502 575 q 515 581 514 582 q 507 563 518 578 q 495 536 503 553 q 491 533 494 534 q 488 528 490 530 q 484 519 484 519 q 483 529 483 524 q 483 538 483 533 q 479 533 481 536 q 472 528 475 529 q 469 524 471 526 q 465 519 468 519 q 456 534 464 521 q 453 537 456 534 q 445 533 449 533 q 444 513 444 524 q 441 490 444 502 q 435 496 441 490 q 431 479 433 487 q 427 461 430 471 q 426 457 426 460 q 425 454 426 456 q 423 448 423 452 q 420 442 423 445 q 418 437 420 439 q 418 435 418 435 q 416 435 416 435 q 414 431 414 431 q 406 433 408 426 q 397 439 401 437 q 391 448 395 444 q 380 461 388 453 q 377 465 378 463 q 372 468 374 467 q 366 475 369 471 q 361 481 363 477 q 357 494 359 486 q 354 505 354 499 q 350 511 351 507 q 345 517 347 515 q 342 521 342 519 q 336 532 339 524 q 330 559 331 547 q 321 581 327 566 q 320 583 321 582 q 320 586 320 585 q 317 591 317 589 q 316 594 316 594 q 309 612 315 600 q 309 616 309 612 q 307 612 308 612 q 304 602 305 606 q 300 593 302 598 q 297 583 298 587 q 293 571 296 578 q 293 568 293 570 q 292 567 292 568 q 286 551 289 559 q 281 534 283 541 q 275 521 278 526 q 273 518 273 518 q 264 507 267 510 q 263 506 263 506 q 262 505 262 506 q 259 505 262 505 q 258 498 258 502 q 256 491 258 495 q 256 488 256 490 q 255 483 255 486 q 254 473 255 480 q 252 468 254 469 q 252 465 252 467 q 248 444 252 460 q 248 441 248 442 q 247 438 247 441 q 247 437 247 437 q 247 437 247 437 q 247 437 247 437 q 247 435 247 446 q 239 425 247 425 q 235 435 236 427 q 232 448 233 444 q 231 453 232 450 q 231 458 231 456 q 228 473 229 464 q 227 480 228 476 q 227 488 227 484 q 225 496 227 491 q 225 503 225 500 q 222 506 225 505 q 221 507 220 509 q 165 548 193 528 q 110 590 137 570 q 104 594 107 591 q 92 604 100 598 q 80 620 83 612 q 79 628 79 624 q 81 639 79 633 q 84 646 81 643 q 90 652 84 648 q 96 656 95 655 q 104 663 99 659 q 109 669 107 667 q 113 671 111 670 q 157 703 127 681 q 161 704 157 700 q 168 713 165 708 q 167 715 171 719 q 161 712 164 713 q 156 707 159 709 q 141 699 149 701 q 123 696 133 694 q 114 700 118 697 q 104 704 110 703 q 98 704 102 705 q 95 701 96 703 q 92 697 95 699 q 85 703 88 696 q 81 711 84 709 q 79 701 79 708 q 76 696 79 693 q 65 708 76 696 q 61 708 64 708 q 57 715 60 708 q 52 724 54 720 q 49 728 50 727 q 46 731 47 730 q 42 742 42 738 q 39 753 39 747 q 41 760 39 755 q 45 773 42 766 q 49 788 47 780 q 57 810 53 799 q 64 831 61 821 q 80 882 69 849 q 90 910 84 894 q 107 935 94 925 q 113 937 110 937 q 119 939 117 937 q 130 937 126 939 q 137 936 133 937 q 146 930 141 933 q 157 924 153 928 q 168 916 163 920 q 183 906 175 910 q 195 895 190 902 q 209 887 199 892 q 224 876 212 884 q 221 884 222 879 q 218 894 220 888 q 216 903 218 899 q 212 920 214 913 q 209 929 210 926 q 199 956 206 939 q 195 972 199 960 q 194 979 194 977 q 194 983 194 982 q 203 1004 194 994 q 225 1015 213 1015 q 263 1016 244 1016 q 274 1016 269 1016 q 323 1015 298 1016 q 361 1015 335 1015 q 384 1015 372 1015 q 404 1010 395 1016 q 415 1001 410 1009 q 420 994 418 1000 q 422 989 420 991 q 422 983 422 986 q 422 977 422 981 q 419 966 420 971 q 416 958 418 962 q 412 943 415 952 q 408 933 411 941 q 403 911 407 928 q 400 902 401 907 q 397 892 399 898 q 396 879 397 888 q 400 882 399 882 q 401 883 400 883 q 407 887 404 886 q 411 888 410 887 q 419 894 414 891 q 422 898 419 895 q 423 899 425 901 q 438 907 430 903 q 450 917 445 911 q 463 925 454 920 q 465 928 464 926 q 468 929 467 928 q 469 930 468 929 q 475 933 471 932 q 484 937 481 937 q 498 939 488 939 q 510 935 505 939 q 522 922 515 933 q 525 917 524 920 q 526 911 525 914 q 530 902 529 906 q 532 892 530 898 q 541 863 536 883 q 559 815 545 850 q 563 804 562 810 q 566 793 564 799 q 572 773 570 784 q 578 753 576 764 q 576 747 578 753 q 575 738 576 742 m 528 681 q 525 677 528 680 q 518 671 522 675 q 513 663 515 667 q 517 661 514 663 q 525 654 519 659 q 532 647 528 652 q 530 663 530 655 q 528 681 530 673 z "},"+":{"ha":825,"x_min":38,"x_max":788,"o":"m 787 378 q 787 361 787 369 q 787 343 788 351 q 784 330 787 338 q 779 323 780 324 q 770 313 776 320 q 766 305 769 312 q 760 294 764 297 q 755 297 757 293 q 750 292 753 300 q 741 256 743 275 q 732 220 739 237 q 727 208 732 218 q 715 197 722 197 q 705 210 709 198 q 701 222 701 221 q 694 250 694 243 q 694 264 694 256 q 689 293 694 273 q 686 296 689 293 q 685 293 685 294 q 684 289 685 290 q 677 282 682 286 q 667 278 671 278 q 655 283 661 278 q 650 279 652 281 q 647 281 648 279 q 646 282 646 283 q 644 259 644 274 q 644 235 644 244 q 640 232 644 225 q 633 266 631 247 q 635 298 637 283 q 629 290 632 296 q 629 290 633 294 q 623 288 625 285 q 621 274 621 281 q 618 259 621 267 q 617 252 618 256 q 613 250 616 248 q 608 258 609 252 q 605 267 606 263 q 602 281 604 274 q 598 294 601 288 q 595 289 598 292 q 590 290 595 289 q 585 292 583 292 q 570 292 576 292 q 557 292 564 290 q 553 281 557 279 q 548 289 551 282 q 541 302 545 296 q 533 311 538 305 q 521 326 518 327 q 530 315 524 324 q 536 301 538 307 q 536 133 536 245 q 537 117 536 125 q 536 100 537 109 q 534 71 538 81 q 529 61 529 60 q 526 58 528 60 q 515 50 522 53 q 513 42 514 46 q 510 34 513 38 q 509 22 509 30 q 505 15 510 14 q 502 16 503 15 q 480 -37 495 -1 q 465 -77 473 -57 q 458 -92 463 -84 q 450 -107 456 -100 q 444 -117 448 -111 q 431 -122 439 -121 q 427 -125 430 -123 q 420 -130 425 -126 q 415 -138 418 -136 q 411 -141 414 -141 q 410 -140 411 -141 q 403 -125 406 -137 q 400 -111 400 -111 q 391 -102 395 -107 q 384 -92 388 -98 q 378 -81 381 -88 q 378 -80 378 -81 q 362 -41 369 -61 q 349 -1 355 -20 q 343 14 346 5 q 338 26 340 20 q 330 46 335 33 q 316 47 326 46 q 311 50 313 49 q 305 54 308 53 q 292 83 292 65 q 292 290 292 152 q 286 307 290 294 q 279 294 285 305 q 275 281 275 282 q 273 271 274 278 q 270 267 273 264 q 267 278 267 270 q 266 274 266 277 q 264 269 266 271 q 262 263 263 267 q 256 259 259 258 q 251 278 252 262 q 250 244 250 262 q 247 212 250 228 q 243 199 247 210 q 236 187 237 189 q 231 176 235 182 q 228 170 229 175 q 225 167 227 165 q 222 222 222 194 q 220 278 222 250 q 214 277 220 277 q 213 275 213 277 q 212 275 213 275 q 208 275 210 275 q 203 270 206 273 q 198 274 203 270 q 186 275 190 274 q 182 275 182 275 q 179 214 179 244 q 176 152 179 183 q 171 159 175 151 q 168 161 170 160 q 165 164 167 163 q 155 176 161 168 q 149 189 149 183 q 146 237 146 213 q 142 285 146 262 q 138 281 141 283 q 132 275 134 278 q 121 213 118 245 q 119 148 122 179 q 118 133 119 141 q 114 129 115 125 q 99 153 99 144 q 106 170 100 163 q 114 186 113 176 q 103 210 115 194 q 99 241 98 231 q 95 281 102 252 q 94 282 94 281 q 90 288 91 285 q 80 296 85 290 q 79 288 79 292 q 76 281 79 283 q 69 288 76 281 q 64 296 66 293 q 60 304 62 298 q 57 309 60 304 q 54 313 57 311 q 42 330 46 320 q 41 331 42 331 q 41 334 41 332 q 39 345 39 336 q 38 362 38 353 q 39 380 39 372 q 38 426 39 403 q 39 472 38 450 q 38 487 38 480 q 41 509 38 499 q 56 526 45 522 q 77 533 65 533 q 98 534 88 534 q 117 533 107 533 q 292 533 175 533 q 292 705 292 576 q 290 735 292 719 q 293 762 289 750 q 302 776 297 770 q 330 788 311 788 q 431 788 363 788 q 469 789 450 788 q 483 789 476 789 q 506 788 495 789 q 529 772 521 787 q 536 750 536 761 q 536 589 536 696 q 537 567 536 579 q 536 544 537 556 q 536 533 536 541 q 606 533 553 533 q 648 534 627 533 q 693 534 671 534 q 720 534 703 534 q 736 534 728 534 q 749 533 745 533 q 766 529 760 533 q 779 518 773 525 q 779 517 779 518 q 785 506 785 511 q 787 498 787 500 q 788 487 788 491 q 787 477 788 481 q 787 378 787 445 z "},",":{"ha":420,"x_min":24,"x_max":389,"o":"m 370 236 q 358 201 368 228 q 353 186 355 194 q 339 151 346 168 q 326 117 332 132 q 316 98 323 110 q 298 39 307 66 q 279 -5 289 11 q 267 -34 275 -15 q 256 -58 263 -47 q 240 -84 251 -69 q 236 -90 239 -85 q 228 -96 233 -94 q 221 -104 221 -103 q 225 -100 222 -103 q 227 -100 228 -99 q 218 -109 225 -102 q 210 -114 216 -110 q 210 -115 210 -114 q 208 -121 209 -117 q 205 -126 208 -123 q 201 -133 203 -129 q 202 -132 201 -132 q 201 -133 203 -130 q 201 -132 198 -140 q 193 -127 205 -123 q 191 -129 193 -129 q 183 -138 187 -133 q 168 -155 179 -142 q 164 -159 167 -156 q 155 -172 159 -164 q 140 -182 151 -180 q 137 -182 138 -182 q 122 -176 129 -182 q 110 -160 113 -168 q 107 -153 109 -157 q 104 -144 107 -149 q 99 -138 104 -144 q 92 -133 94 -133 q 84 -126 88 -130 q 76 -119 80 -122 q 69 -114 72 -115 q 71 -134 68 -123 q 65 -152 72 -146 q 62 -141 60 -156 q 61 -121 64 -127 q 57 -117 60 -118 q 56 -118 56 -115 q 52 -134 50 -133 q 49 -104 54 -134 q 37 -99 41 -102 q 27 -88 31 -95 q 24 -79 24 -81 q 24 -72 24 -76 q 26 -61 24 -66 q 30 -43 27 -52 q 33 -33 33 -38 q 33 -24 33 -26 q 39 20 35 -1 q 46 65 43 43 q 50 92 49 79 q 54 115 53 106 q 57 132 56 121 q 58 145 58 138 q 60 157 58 152 q 68 213 62 175 q 69 221 69 217 q 71 231 69 227 q 73 247 72 235 q 76 263 75 258 q 92 296 79 281 q 103 307 96 302 q 109 309 106 309 q 125 316 117 315 q 140 316 133 316 q 358 316 213 316 q 373 312 368 316 q 387 301 385 307 q 389 286 388 294 q 388 277 389 281 q 385 267 387 273 q 382 258 385 263 q 377 247 380 252 q 370 236 373 241 z "},"-":{"ha":654,"x_min":62,"x_max":593,"o":"m 591 338 q 591 321 591 330 q 590 311 590 313 q 587 302 590 308 q 586 300 590 305 q 581 293 582 294 q 575 288 579 292 q 570 285 572 285 q 567 281 570 283 q 563 273 566 278 q 559 266 562 269 q 551 252 556 262 q 529 224 540 239 q 507 194 518 210 q 499 182 505 190 q 491 175 496 180 q 487 171 490 174 q 484 170 483 168 q 484 170 484 170 q 481 168 483 170 q 477 126 480 157 q 471 79 475 95 q 464 76 467 75 q 461 85 463 80 q 458 98 460 92 q 454 129 456 113 q 449 160 454 144 q 437 146 442 155 q 425 127 430 137 q 420 119 423 122 q 415 114 418 117 q 415 114 415 114 q 414 113 414 114 q 412 111 412 113 q 410 111 411 111 q 412 64 408 96 q 419 0 416 33 q 420 -52 423 -33 q 411 -65 419 -65 q 403 -62 407 -65 q 385 -33 388 -54 q 387 18 384 -9 q 395 73 391 47 q 396 118 399 100 q 395 119 395 118 q 381 140 391 125 q 378 144 378 142 q 377 145 377 144 q 377 146 377 146 q 368 152 373 149 q 365 141 363 153 q 368 115 366 130 q 362 94 369 102 q 357 96 357 88 q 357 118 357 104 q 357 140 358 132 q 351 144 351 146 q 349 127 349 138 q 346 122 349 117 q 342 136 342 132 q 343 148 343 140 q 338 171 345 155 q 320 209 328 186 q 305 241 311 232 q 301 247 304 244 q 293 258 298 250 q 292 259 292 258 q 289 259 290 259 q 283 259 283 259 q 281 220 281 240 q 278 179 281 198 q 267 180 273 180 q 255 175 258 178 q 244 161 250 170 q 228 152 237 153 q 221 153 227 152 q 217 156 217 155 q 214 206 216 180 q 212 256 214 231 q 210 258 212 258 q 210 256 210 258 q 208 241 208 250 q 205 225 208 233 q 201 221 203 224 q 197 220 198 218 q 195 235 195 227 q 193 248 194 241 q 191 216 191 232 q 189 182 191 198 q 187 183 189 179 q 183 189 186 187 q 178 198 182 195 q 170 214 174 206 q 163 229 167 222 q 156 237 160 233 q 152 247 153 241 q 151 254 151 250 q 149 259 151 256 q 146 250 146 255 q 141 241 146 244 q 136 247 140 239 q 129 251 134 248 q 123 256 126 254 q 117 263 119 259 q 107 275 111 270 q 90 282 103 281 q 79 288 83 285 q 64 317 64 298 q 64 476 64 370 q 64 490 64 483 q 62 505 62 498 q 64 511 62 509 q 64 519 64 514 q 106 553 68 553 q 476 553 229 553 q 511 553 490 553 q 526 553 519 553 q 553 553 540 553 q 590 519 586 553 q 593 505 593 513 q 591 498 593 500 q 590 475 590 484 q 590 467 590 472 q 591 404 590 441 q 591 338 591 368 z "},".":{"ha":433,"x_min":58,"x_max":376,"o":"m 374 278 q 376 264 376 271 q 376 258 376 262 q 374 237 374 247 q 374 31 374 168 q 373 26 374 31 q 370 20 372 20 q 369 18 370 19 q 366 14 369 16 q 363 11 365 12 q 361 8 362 9 q 351 -1 350 -3 q 357 5 351 0 q 351 1 355 4 q 349 -1 347 -3 q 350 -3 347 -3 q 343 -8 351 -1 q 340 -12 342 -9 q 338 -12 340 -14 q 328 -23 332 -18 q 320 -34 324 -27 q 315 -38 317 -35 q 309 -42 312 -41 q 304 -46 307 -43 q 304 -83 302 -64 q 298 -119 305 -103 q 297 -122 297 -122 q 296 -118 296 -122 q 294 -94 294 -109 q 293 -71 296 -77 q 292 -71 293 -68 q 288 -73 290 -73 q 283 -71 286 -73 q 278 -62 281 -68 q 275 -54 277 -60 q 273 -53 274 -50 q 269 -62 269 -58 q 266 -52 267 -58 q 262 -38 264 -46 q 254 -46 259 -41 q 250 -50 254 -47 q 244 -54 247 -52 q 243 -61 243 -57 q 239 -64 241 -65 q 236 -56 235 -61 q 233 -47 236 -52 q 225 -33 228 -41 q 220 -16 222 -23 q 217 -18 217 -16 q 214 -57 214 -38 q 212 -96 214 -76 q 209 -98 212 -98 q 206 -98 206 -99 q 203 -61 203 -79 q 201 -24 205 -43 q 195 -31 195 -31 q 191 -31 194 -31 q 182 -35 187 -35 q 176 -33 176 -37 q 172 -22 175 -27 q 163 -14 170 -19 q 160 -14 161 -14 q 156 -26 160 -23 q 152 -19 156 -26 q 153 -45 151 -30 q 146 -61 157 -60 q 141 -50 138 -61 q 144 -30 142 -41 q 140 -16 148 -18 q 136 -26 133 -15 q 138 -49 137 -38 q 134 -57 141 -60 q 130 -38 125 -53 q 129 -12 134 -22 q 126 -19 126 -5 q 123 -38 126 -33 q 121 -34 122 -39 q 118 -26 119 -30 q 100 -9 110 -15 q 83 1 92 -4 q 77 5 80 3 q 72 8 75 7 q 58 38 58 19 q 58 255 58 110 q 58 279 58 267 q 65 301 58 292 q 73 309 68 304 q 96 316 83 316 q 258 316 151 316 q 279 317 270 316 q 296 317 289 317 q 316 319 300 317 q 323 319 319 319 q 345 316 335 319 q 373 290 366 311 q 374 278 374 286 z "},"/":{"ha":804,"x_min":30,"x_max":774,"o":"m 703 883 q 690 842 697 861 q 677 807 684 822 q 674 802 675 804 q 671 796 673 799 q 651 745 661 768 q 631 709 642 720 q 534 480 598 633 q 529 465 532 472 q 524 449 526 457 q 490 345 506 393 q 458 281 473 296 q 450 262 454 271 q 444 243 448 252 q 415 178 427 205 q 395 144 401 152 q 377 103 388 130 q 372 88 374 96 q 366 73 369 80 q 358 52 362 62 q 349 31 353 41 q 347 27 347 30 q 346 24 347 26 q 338 5 342 15 q 330 -14 334 -5 q 315 -47 323 -30 q 300 -81 308 -66 q 279 -106 293 -96 q 277 -109 278 -107 q 274 -113 275 -110 q 264 -127 269 -119 q 255 -144 262 -136 q 248 -159 252 -152 q 243 -165 245 -164 q 243 -167 243 -167 q 241 -168 241 -167 q 232 -178 237 -174 q 229 -182 231 -179 q 225 -187 228 -184 q 221 -195 225 -189 q 214 -201 217 -201 q 214 -199 214 -201 q 209 -194 212 -199 q 206 -186 208 -190 q 203 -176 206 -180 q 198 -171 201 -174 q 194 -165 195 -168 q 191 -163 191 -163 q 191 -160 191 -161 q 190 -159 190 -160 q 186 -149 187 -155 q 180 -140 183 -144 q 178 -134 180 -140 q 178 -133 178 -134 q 175 -127 175 -130 q 172 -145 174 -136 q 170 -161 172 -155 q 164 -163 170 -163 q 159 -164 160 -164 q 156 -165 157 -164 q 153 -165 155 -167 q 152 -151 152 -159 q 151 -136 152 -142 q 142 -141 148 -137 q 141 -146 141 -142 q 137 -151 140 -149 q 129 -152 125 -157 q 134 -144 133 -146 q 134 -144 134 -144 q 133 -146 133 -144 q 130 -148 132 -146 q 126 -152 129 -149 q 119 -159 122 -156 q 110 -163 117 -163 q 81 -149 100 -163 q 71 -134 76 -142 q 69 -132 69 -133 q 66 -129 68 -130 q 60 -117 65 -125 q 53 -117 57 -117 q 47 -114 53 -117 q 38 -107 42 -111 q 31 -95 33 -100 q 30 -85 30 -91 q 31 -79 30 -81 q 37 -65 31 -73 q 47 -38 39 -56 q 56 -15 52 -24 q 62 0 61 -5 q 130 163 85 54 q 144 209 137 186 q 159 244 152 231 q 171 277 163 255 q 179 298 174 288 q 189 320 183 309 q 194 328 191 326 q 205 342 198 336 q 309 598 239 427 q 345 708 328 656 q 377 774 361 760 q 388 802 382 789 q 400 826 393 814 q 414 849 404 834 q 445 924 422 867 q 458 962 452 943 q 473 993 467 979 q 479 1008 476 1000 q 484 1024 481 1016 q 495 1048 488 1036 q 509 1069 500 1059 q 529 1085 517 1080 q 559 1092 540 1092 q 694 1092 604 1092 q 715 1093 705 1092 q 726 1093 720 1093 q 735 1093 730 1093 q 743 1092 739 1093 q 750 1092 747 1092 q 774 1061 774 1086 q 774 1057 774 1059 q 770 1043 773 1053 q 764 1025 768 1034 q 755 1008 760 1017 q 747 987 753 1001 q 747 987 747 987 q 746 986 747 986 q 703 883 731 952 z "},":":{"ha":448,"x_min":64,"x_max":385,"o":"m 65 716 q 64 739 64 728 q 66 761 64 751 q 72 773 69 769 q 80 783 75 776 q 96 789 88 788 q 114 791 104 791 q 122 791 118 791 q 148 789 136 789 q 351 789 216 789 q 357 788 353 788 q 368 783 365 785 q 377 770 370 779 q 382 751 382 764 q 382 564 382 689 q 384 544 382 555 q 384 537 384 540 q 382 522 384 529 q 377 505 382 513 q 370 496 373 499 q 365 491 368 495 q 359 486 362 488 q 355 477 358 483 q 354 469 354 475 q 350 465 353 464 q 347 471 347 465 q 345 479 347 476 q 339 476 343 480 q 311 464 330 472 q 274 456 293 458 q 245 452 259 452 q 228 454 236 452 q 212 461 220 458 q 201 460 206 460 q 190 460 195 460 q 163 465 176 461 q 137 473 151 469 q 129 477 133 476 q 119 480 125 479 q 118 480 118 480 q 114 480 117 479 q 109 484 111 483 q 104 486 106 484 q 96 486 102 486 q 91 487 95 487 q 85 490 88 488 q 80 494 83 491 q 65 524 65 505 q 65 716 65 587 m 382 80 q 384 46 382 56 q 373 15 385 37 q 366 7 373 14 q 365 4 365 5 q 361 -1 363 1 q 357 -1 359 -3 q 350 -1 353 1 q 345 -14 347 -5 q 339 -26 343 -19 q 334 -38 336 -33 q 323 -47 330 -45 q 311 -42 317 -49 q 307 -27 305 -31 q 304 -18 307 -24 q 297 -19 300 -19 q 289 -18 293 -18 q 285 -18 285 -18 q 281 -26 283 -22 q 275 -37 278 -31 q 270 -45 273 -39 q 256 -57 264 -53 q 255 -69 255 -62 q 251 -83 254 -76 q 250 -90 250 -84 q 245 -92 248 -94 q 241 -85 241 -91 q 239 -79 240 -81 q 237 -68 237 -72 q 233 -57 236 -62 q 233 -56 233 -57 q 232 -56 233 -56 q 227 -49 232 -54 q 225 -47 227 -47 q 216 -34 220 -42 q 209 -20 213 -26 q 199 -39 198 -27 q 205 -66 201 -52 q 201 -103 208 -83 q 197 -107 201 -104 q 190 -111 193 -110 q 184 -113 184 -111 q 183 -66 183 -90 q 179 -22 182 -45 q 175 -24 178 -22 q 164 -54 164 -39 q 163 -88 165 -69 q 160 -109 161 -95 q 157 -117 160 -123 q 153 -83 152 -100 q 152 -47 155 -65 q 146 -49 152 -49 q 136 -46 141 -49 q 130 -42 133 -45 q 127 -38 129 -41 q 125 -37 126 -35 q 126 -71 123 -49 q 129 -111 127 -92 q 130 -140 132 -130 q 126 -145 129 -145 q 119 -140 123 -145 q 107 -106 107 -125 q 113 -64 109 -85 q 114 -23 117 -43 q 111 -18 114 -20 q 109 -18 110 -15 q 107 -39 106 -27 q 103 -58 110 -50 q 99 -50 98 -64 q 100 -30 100 -37 q 91 1 96 -19 q 80 7 84 4 q 72 15 77 9 q 66 26 69 18 q 65 49 64 38 q 65 71 65 61 q 65 221 65 121 q 65 236 65 228 q 64 252 64 244 q 65 271 64 262 q 72 288 66 281 q 80 296 75 290 q 90 300 84 298 q 98 302 94 301 q 119 305 109 305 q 138 302 129 304 q 283 302 187 302 q 298 302 290 302 q 313 304 307 302 q 334 305 324 304 q 351 302 343 305 q 374 288 366 301 q 382 269 382 278 q 382 247 384 258 q 382 227 382 236 q 382 80 382 178 z "},";":{"ha":452,"x_min":26,"x_max":403,"o":"m 395 502 q 387 494 392 499 q 381 483 382 487 q 374 475 381 479 q 372 473 373 473 q 369 472 370 472 q 368 475 370 472 q 363 477 363 477 q 358 479 359 477 q 350 477 354 477 q 342 473 346 476 q 334 467 339 472 q 326 460 330 460 q 321 463 327 460 q 316 464 316 465 q 313 463 316 463 q 309 460 311 460 q 298 456 304 458 q 288 454 293 454 q 281 454 285 454 q 248 454 264 452 q 236 456 241 454 q 222 458 229 457 q 214 458 218 458 q 205 461 210 460 q 202 461 203 461 q 199 463 201 463 q 184 469 191 465 q 168 476 176 473 q 159 479 164 477 q 149 481 155 480 q 110 487 136 484 q 104 490 107 488 q 100 494 103 491 q 84 524 84 505 q 84 716 84 587 q 83 742 83 728 q 88 765 83 755 q 114 788 95 785 q 140 789 126 791 q 167 789 155 789 q 302 789 212 789 q 338 791 320 789 q 350 792 345 792 q 372 789 362 792 q 381 787 378 788 q 388 783 385 785 q 395 773 393 776 q 401 751 401 762 q 401 568 401 690 q 403 541 401 556 q 403 533 403 537 q 400 514 403 524 q 400 514 403 521 q 395 502 397 507 m 373 313 q 389 296 387 307 q 391 286 391 293 q 389 277 391 281 q 385 264 388 271 q 380 250 382 256 q 372 233 374 241 q 365 217 368 225 q 361 205 363 213 q 357 194 358 198 q 343 160 353 183 q 328 115 336 137 q 312 77 320 94 q 292 30 301 47 q 279 -8 286 11 q 264 -45 273 -26 q 264 -46 264 -45 q 259 -54 263 -47 q 254 -68 258 -60 q 244 -81 250 -75 q 239 -90 243 -84 q 239 -90 239 -90 q 237 -91 237 -90 q 232 -94 232 -94 q 228 -102 231 -96 q 227 -103 228 -103 q 227 -104 227 -103 q 225 -114 227 -110 q 224 -125 224 -118 q 218 -130 224 -132 q 212 -152 216 -140 q 203 -174 209 -163 q 194 -189 199 -180 q 191 -194 191 -194 q 187 -198 187 -198 q 180 -201 182 -201 q 183 -252 179 -217 q 191 -324 187 -288 q 193 -384 195 -361 q 183 -399 191 -399 q 175 -396 179 -399 q 157 -359 160 -385 q 157 -301 155 -334 q 165 -241 161 -270 q 170 -197 171 -213 q 164 -189 168 -193 q 161 -186 163 -189 q 153 -172 157 -179 q 148 -161 151 -167 q 144 -155 144 -156 q 137 -141 142 -151 q 132 -141 136 -141 q 127 -141 127 -141 q 125 -212 125 -172 q 122 -283 125 -251 q 119 -281 121 -286 q 117 -275 117 -277 q 114 -205 114 -243 q 111 -136 114 -167 q 111 -126 111 -133 q 102 -137 107 -134 q 99 -140 100 -138 q 96 -141 98 -140 q 94 -157 95 -149 q 91 -175 92 -167 q 90 -216 90 -190 q 91 -266 91 -241 q 91 -301 92 -290 q 84 -298 90 -312 q 71 -262 69 -283 q 79 -217 72 -240 q 90 -171 88 -193 q 75 -134 91 -151 q 71 -127 72 -132 q 65 -121 68 -123 q 62 -113 64 -117 q 57 -104 60 -110 q 50 -104 54 -104 q 45 -102 50 -104 q 27 -80 30 -95 q 26 -73 26 -77 q 30 -49 26 -62 q 34 -24 33 -37 q 50 83 39 11 q 50 84 50 84 q 52 95 52 91 q 53 103 53 99 q 60 148 56 118 q 62 161 60 148 q 66 193 64 175 q 72 225 69 212 q 73 239 73 239 q 76 247 75 243 q 76 255 76 251 q 77 263 77 258 q 85 288 80 275 q 92 296 88 290 q 104 307 100 304 q 110 309 107 309 q 126 316 118 315 q 141 316 134 316 q 361 316 214 316 q 373 313 365 316 z "},"<":{"ha":747,"x_min":33,"x_max":677,"o":"m 655 -174 q 652 -176 655 -175 q 651 -176 651 -176 q 650 -175 650 -176 q 647 -123 648 -155 q 646 -62 646 -94 q 644 -12 646 -34 q 624 -4 635 -12 q 610 4 618 -1 q 597 14 604 8 q 583 22 590 18 q 544 49 564 37 q 505 76 524 62 q 464 102 491 84 q 461 100 463 102 q 460 100 461 99 q 458 104 458 102 q 456 110 458 109 q 444 99 446 100 q 442 88 446 84 q 439 106 435 91 q 437 118 444 121 q 433 107 431 117 q 437 90 435 98 q 431 83 438 81 q 426 100 422 88 q 427 122 430 113 q 422 123 426 123 q 418 125 418 127 q 419 103 416 117 q 420 77 420 90 q 412 71 422 68 q 404 96 399 76 q 408 129 411 115 q 404 129 408 129 q 393 133 399 132 q 385 134 389 133 q 350 144 366 138 q 317 161 334 151 q 300 178 308 168 q 285 197 292 187 q 275 209 282 201 q 271 216 271 217 q 269 208 269 210 q 266 216 267 212 q 262 227 264 221 q 259 221 259 231 q 259 205 259 213 q 256 198 259 195 q 244 217 245 210 q 243 228 241 224 q 241 232 243 231 q 228 256 237 244 q 221 260 225 259 q 216 264 218 262 q 206 273 210 267 q 190 288 201 278 q 179 294 184 292 q 168 301 174 297 q 164 305 167 304 q 159 307 163 307 q 156 305 157 307 q 155 304 156 304 q 152 311 153 307 q 151 312 152 315 q 148 301 146 309 q 144 294 149 293 q 141 302 138 296 q 140 315 142 309 q 137 316 138 316 q 134 315 136 315 q 130 316 130 320 q 132 296 129 308 q 133 273 133 282 q 125 264 134 263 q 118 286 111 267 q 121 320 123 305 q 118 321 121 323 q 111 323 114 321 q 92 335 104 326 q 88 339 91 336 q 81 343 84 342 q 77 349 77 347 q 77 346 77 347 q 76 342 76 345 q 77 311 76 328 q 72 301 79 294 q 60 326 57 316 q 66 339 61 335 q 64 338 66 338 q 60 345 58 336 q 58 358 60 353 q 57 369 57 363 q 54 381 57 374 q 52 384 53 382 q 47 388 50 387 q 46 391 46 389 q 42 396 42 395 q 38 401 39 399 q 35 414 35 407 q 34 427 34 420 q 34 441 34 435 q 33 456 34 448 q 33 471 33 464 q 33 479 33 475 q 34 487 34 483 q 47 521 35 509 q 69 540 57 532 q 92 555 80 547 q 159 598 114 568 q 167 604 161 601 q 189 620 174 609 q 216 640 199 631 q 270 677 237 655 q 336 718 301 697 q 500 829 391 755 q 538 856 519 844 q 579 883 559 869 q 593 892 583 887 q 606 903 601 898 q 632 918 620 913 q 640 921 636 921 q 644 921 643 921 q 667 910 659 921 q 674 898 671 907 q 675 876 675 887 q 675 864 675 871 q 674 831 674 848 q 674 705 674 789 q 675 682 674 694 q 674 658 677 670 q 670 643 673 654 q 667 640 669 642 q 665 637 667 639 q 661 629 663 633 q 654 624 656 627 q 646 614 651 620 q 639 604 642 609 q 631 594 635 598 q 620 571 625 583 q 605 548 614 560 q 591 536 600 541 q 578 521 583 530 q 574 513 576 518 q 568 499 571 507 q 560 484 566 490 q 544 488 553 479 q 538 505 538 502 q 536 511 537 509 q 526 522 536 514 q 517 517 524 521 q 515 475 515 496 q 513 433 515 454 q 510 430 513 431 q 509 429 509 427 q 506 468 506 449 q 503 507 506 487 q 499 505 503 509 q 494 503 496 505 q 488 503 491 503 q 471 498 479 502 q 452 487 461 494 q 434 477 444 481 q 415 471 425 473 q 407 465 412 468 q 401 463 404 464 q 396 460 399 461 q 387 454 389 456 q 392 452 385 454 q 404 444 396 449 q 419 434 411 439 q 431 425 426 429 q 530 363 465 404 q 590 328 545 355 q 597 323 593 326 q 604 317 601 321 q 623 307 613 312 q 642 294 632 301 q 661 278 652 288 q 665 271 662 275 q 669 267 669 269 q 669 266 669 266 q 670 264 670 266 q 671 260 671 263 q 673 256 671 258 q 675 231 675 244 q 674 206 675 218 q 674 72 674 161 q 675 42 674 58 q 674 11 677 24 q 673 9 674 9 q 673 7 673 8 q 671 4 671 5 q 670 0 671 1 q 665 -5 669 -3 q 662 -7 662 -7 q 661 -8 662 -7 q 659 -60 659 -30 q 658 -121 658 -91 q 655 -174 658 -153 m 444 102 q 448 109 444 103 q 446 114 446 110 q 444 102 444 111 z "},"=":{"ha":783,"x_min":71,"x_max":712,"o":"m 72 505 q 72 519 72 511 q 72 529 72 524 q 72 555 72 541 q 72 671 72 593 q 92 704 72 692 q 99 707 94 704 q 121 709 110 709 q 142 708 132 708 q 633 708 307 708 q 659 709 646 708 q 666 711 663 711 q 685 707 675 709 q 703 692 699 703 q 709 671 709 682 q 709 643 709 662 q 711 616 709 629 q 711 586 711 601 q 711 533 711 568 q 711 522 709 528 q 709 510 711 517 q 688 473 709 490 q 680 461 680 461 q 674 467 680 461 q 673 468 674 468 q 673 468 673 468 q 667 467 671 468 q 661 464 663 465 q 642 453 651 458 q 623 441 632 448 q 604 429 613 435 q 585 416 595 422 q 567 412 575 414 q 548 408 559 411 q 529 404 538 407 q 507 403 518 403 q 488 407 498 404 q 468 411 479 410 q 412 415 442 415 q 355 422 384 415 q 331 435 343 426 q 327 438 328 438 q 301 438 313 438 q 275 439 289 438 q 245 448 259 442 q 216 458 231 453 q 208 456 212 457 q 198 456 203 456 q 171 457 184 454 q 144 464 157 461 q 130 468 140 465 q 126 469 129 468 q 121 469 123 469 q 103 472 110 472 q 92 476 99 473 q 88 480 91 479 q 83 483 85 481 q 72 505 73 494 m 708 151 q 704 141 707 148 q 693 130 701 138 q 685 111 688 122 q 682 104 684 109 q 680 98 681 100 q 675 81 678 92 q 661 49 670 68 q 633 31 652 30 q 614 50 617 33 q 606 79 613 69 q 601 75 604 77 q 594 68 600 73 q 587 61 591 65 q 579 54 583 57 q 574 41 576 49 q 571 33 572 37 q 567 23 570 27 q 562 19 564 16 q 557 26 559 22 q 556 33 557 30 q 552 52 552 47 q 548 58 552 56 q 541 68 544 62 q 534 75 537 72 q 529 79 532 77 q 524 73 525 77 q 518 65 521 68 q 513 62 515 62 q 509 68 511 64 q 507 68 507 71 q 505 46 506 61 q 505 23 505 33 q 502 22 505 15 q 498 61 496 42 q 498 99 500 80 q 490 104 495 102 q 487 107 486 109 q 481 111 483 111 q 480 109 480 110 q 479 104 480 107 q 476 103 477 103 q 473 104 475 104 q 460 113 467 106 q 458 111 458 113 q 457 111 458 111 q 449 106 453 110 q 441 98 445 102 q 438 94 439 96 q 435 92 437 91 q 431 103 431 98 q 422 81 427 94 q 407 66 416 69 q 401 66 406 65 q 396 69 397 66 q 393 94 395 77 q 392 92 393 92 q 387 90 387 90 q 387 57 384 73 q 389 27 391 41 q 373 15 389 16 q 370 15 372 15 q 355 22 359 15 q 351 42 351 31 q 342 31 351 30 q 332 49 331 35 q 336 77 335 62 q 334 77 335 76 q 331 77 332 77 q 323 80 327 77 q 313 83 317 81 q 311 84 312 84 q 308 85 308 84 q 307 92 307 90 q 304 98 307 96 q 301 72 301 84 q 297 46 300 58 q 296 46 297 45 q 292 47 293 47 q 286 50 290 49 q 281 53 282 52 q 263 65 271 58 q 247 77 255 72 q 243 83 247 79 q 236 88 237 88 q 225 88 232 88 q 216 94 220 91 q 205 102 210 98 q 194 113 199 107 q 193 107 194 109 q 190 106 191 106 q 187 104 189 106 q 171 100 179 100 q 144 106 157 99 q 119 119 130 113 q 103 125 110 119 q 92 129 99 126 q 88 133 91 132 q 83 136 85 134 q 72 157 73 146 q 72 296 72 203 q 72 311 72 302 q 72 326 71 317 q 75 339 72 331 q 81 349 76 343 q 88 354 83 353 q 99 359 91 357 q 100 359 99 359 q 115 361 104 361 q 680 361 304 361 q 708 335 701 355 q 711 315 711 326 q 709 294 709 304 q 709 209 709 266 q 711 179 709 194 q 712 172 712 175 q 708 151 712 160 m 351 45 q 354 69 353 56 q 354 92 355 83 q 351 95 354 94 q 349 94 349 96 q 350 69 347 83 q 351 45 351 56 z "},">":{"ha":747,"x_min":72,"x_max":716,"o":"m 245 505 q 245 487 248 495 q 244 486 245 486 q 241 488 241 483 q 241 490 241 490 q 245 503 241 495 q 243 496 244 500 q 240 490 240 494 q 240 488 240 488 q 239 486 239 487 q 235 483 236 481 q 231 490 231 486 q 231 496 231 494 q 231 498 231 496 q 229 499 231 498 q 225 496 227 495 q 222 499 224 498 q 221 503 222 502 q 217 506 221 505 q 214 509 214 506 q 191 526 201 517 q 170 545 180 536 q 164 552 167 548 q 159 560 161 556 q 156 557 159 555 q 152 567 155 557 q 151 567 151 567 q 149 568 151 568 q 146 563 149 562 q 142 566 142 563 q 136 574 137 571 q 137 541 134 560 q 132 530 140 524 q 129 556 122 538 q 127 586 134 574 q 126 579 125 591 q 126 555 126 567 q 122 547 127 543 q 119 570 114 556 q 118 594 123 585 q 117 591 117 598 q 117 575 117 583 q 113 570 117 567 q 109 570 111 568 q 102 581 103 572 q 103 595 102 587 q 100 601 100 597 q 99 609 100 605 q 95 620 98 612 q 91 625 92 623 q 88 628 90 627 q 84 631 85 629 q 81 635 81 633 q 73 661 75 646 q 73 673 73 665 q 73 688 73 680 q 73 694 73 690 q 73 715 73 705 q 73 830 73 754 q 73 863 73 846 q 73 895 72 880 q 80 910 76 906 q 88 916 83 913 q 98 920 92 918 q 107 920 100 920 q 114 917 109 920 q 130 910 122 916 q 146 898 138 905 q 161 886 155 891 q 178 875 170 880 q 239 833 198 861 q 245 829 240 833 q 247 829 247 829 q 248 827 247 827 q 266 817 254 825 q 269 814 266 817 q 401 724 301 791 q 454 694 429 709 q 496 663 480 680 q 530 640 507 656 q 551 627 541 633 q 564 616 559 621 q 583 601 575 606 q 605 589 594 595 q 625 574 616 581 q 655 553 635 567 q 669 545 662 548 q 680 536 674 541 q 688 530 685 533 q 701 518 692 528 q 704 515 703 517 q 705 513 704 514 q 713 490 712 505 q 716 475 716 483 q 715 467 716 471 q 713 442 713 454 q 713 420 713 435 q 713 414 713 418 q 712 408 712 408 q 709 403 709 403 q 696 382 705 389 q 690 377 693 380 q 685 370 688 373 q 677 362 681 366 q 670 354 673 358 q 644 319 655 336 q 618 283 632 301 q 598 259 609 271 q 579 237 589 248 q 547 193 568 222 q 544 187 545 190 q 540 182 543 184 q 538 179 538 180 q 534 175 537 178 q 533 174 534 174 q 528 167 532 171 q 526 165 528 167 q 525 164 525 165 q 522 164 524 164 q 519 157 521 161 q 515 151 518 153 q 513 142 514 148 q 510 138 513 137 q 506 149 506 142 q 505 161 507 156 q 499 167 503 164 q 494 171 496 170 q 481 183 490 175 q 479 187 480 186 q 476 189 477 187 q 472 186 475 189 q 465 182 468 184 q 458 175 461 178 q 454 172 457 174 q 453 171 453 172 q 456 129 452 156 q 463 72 460 103 q 464 15 467 42 q 445 -26 460 -11 q 439 -28 444 -27 q 435 -27 435 -30 q 433 28 433 -7 q 431 99 431 64 q 429 156 431 134 q 426 151 429 153 q 418 137 422 142 q 407 125 414 130 q 407 125 407 125 q 404 123 406 123 q 396 113 401 121 q 393 109 395 111 q 391 103 392 106 q 388 53 389 77 q 385 3 388 27 q 382 -20 385 0 q 377 -60 380 -41 q 373 -84 373 -80 q 369 -115 372 -96 q 361 -148 365 -134 q 355 -161 358 -156 q 353 -163 354 -163 q 350 -163 351 -163 q 342 -140 346 -157 q 339 -122 339 -123 q 338 -64 338 -102 q 338 9 338 -26 q 332 68 338 47 q 331 68 331 79 q 331 37 331 57 q 332 -5 332 15 q 332 -38 334 -26 q 327 -39 331 -49 q 317 27 312 -8 q 321 94 324 62 q 317 100 321 92 q 313 113 315 109 q 311 100 313 103 q 308 103 309 99 q 305 111 307 109 q 305 111 305 111 q 304 110 304 111 q 305 109 304 109 q 301 104 305 109 q 298 102 301 102 q 298 100 298 100 q 297 99 297 100 q 283 62 290 79 q 277 47 281 56 q 270 33 274 39 q 266 24 269 31 q 263 20 264 23 q 259 19 262 18 q 258 37 258 27 q 256 54 258 46 q 248 38 254 49 q 247 34 248 37 q 245 33 244 31 q 243 26 244 30 q 239 20 241 23 q 236 18 236 18 q 235 15 235 15 q 233 15 233 15 q 229 14 232 14 q 228 12 229 12 q 228 12 228 12 q 220 8 222 9 q 210 8 217 5 q 208 11 209 9 q 205 14 206 12 q 202 18 203 15 q 198 19 201 20 q 193 9 193 19 q 187 1 191 0 q 183 9 183 4 q 180 16 183 14 q 180 1 179 9 q 178 -14 180 -7 q 168 -15 175 -15 q 157 -12 163 -15 q 140 -8 152 -9 q 140 -35 138 -18 q 125 -54 140 -52 q 109 -45 117 -56 q 102 -30 103 -38 q 98 -14 100 -22 q 95 -14 96 -14 q 94 -12 95 -12 q 73 16 73 -5 q 73 37 72 26 q 73 54 73 46 q 73 208 73 104 q 73 228 73 218 q 73 247 72 237 q 75 254 75 250 q 76 259 75 256 q 81 269 79 264 q 85 277 83 273 q 90 279 88 278 q 92 282 91 281 q 106 293 98 288 q 127 305 113 297 q 155 323 134 309 q 155 324 155 324 q 156 324 156 324 q 182 340 168 332 q 209 357 194 349 q 307 419 241 378 q 327 430 312 422 q 330 433 328 431 q 332 435 331 433 q 339 439 334 437 q 340 441 340 441 q 343 442 342 441 q 361 453 349 445 q 354 457 359 454 q 347 458 351 458 q 309 468 327 461 q 305 471 308 469 q 300 473 302 472 q 281 477 290 476 q 263 480 273 477 q 254 484 258 481 q 245 487 250 486 q 247 491 247 488 q 245 505 248 496 m 163 570 q 157 570 160 572 q 163 570 159 570 m 157 567 q 157 568 157 567 q 157 567 157 568 m 171 562 q 171 560 171 562 q 172 557 171 560 q 161 562 171 556 q 159 564 160 563 q 157 568 157 567 q 157 567 157 567 q 161 562 157 566 q 172 557 171 555 q 172 559 172 557 q 172 560 172 559 q 171 563 172 562 q 164 570 168 564 q 171 562 170 564 z "},"?":{"ha":907,"x_min":33,"x_max":872,"o":"m 872 738 q 872 712 872 731 q 856 636 869 671 q 852 625 854 632 q 792 534 829 576 q 789 532 791 533 q 787 528 788 529 q 779 519 780 522 q 766 507 774 515 q 755 495 762 503 q 741 479 747 486 q 700 434 722 460 q 654 382 678 408 q 652 380 652 381 q 650 374 651 378 q 642 365 646 369 q 633 357 637 361 q 631 354 636 359 q 628 350 627 349 q 623 343 625 349 q 620 338 621 342 q 617 336 620 335 q 614 339 616 338 q 613 342 614 340 q 610 349 613 349 q 609 347 609 347 q 606 346 606 347 q 605 346 606 346 q 604 339 604 343 q 600 332 602 335 q 598 334 598 331 q 594 338 597 338 q 589 336 591 339 q 583 332 586 334 q 570 326 578 328 q 555 323 562 324 q 540 323 547 321 q 525 327 532 326 q 517 331 521 330 q 507 335 513 334 q 492 335 502 338 q 476 332 483 332 q 453 336 465 334 q 429 340 442 339 q 414 336 420 340 q 396 332 406 334 q 384 332 391 332 q 370 335 378 334 q 339 340 354 338 q 309 351 324 343 q 288 377 288 357 q 289 388 288 384 q 290 389 289 389 q 290 392 290 391 q 298 415 293 403 q 309 435 304 426 q 323 454 313 441 q 384 525 349 491 q 450 589 418 559 q 464 602 457 595 q 475 616 469 610 q 483 625 479 621 q 490 636 487 631 q 503 661 500 651 q 503 684 506 670 q 499 693 502 688 q 495 700 498 694 q 494 701 494 700 q 483 708 488 705 q 473 700 480 708 q 461 680 467 690 q 445 662 456 670 q 425 669 433 656 q 410 686 416 680 q 399 697 406 690 q 392 689 397 696 q 385 678 388 685 q 384 677 384 678 q 384 677 384 677 q 382 674 382 675 q 381 673 382 673 q 381 671 381 673 q 369 651 374 661 q 353 635 363 642 q 345 618 349 628 q 332 605 342 610 q 315 612 323 601 q 298 624 307 623 q 293 623 296 624 q 290 623 292 623 q 288 623 289 624 q 285 602 285 605 q 283 600 283 601 q 281 595 283 597 q 278 597 279 595 q 277 597 278 597 q 273 593 273 595 q 266 590 273 589 q 256 598 259 593 q 248 606 252 604 q 245 610 248 606 q 240 614 241 613 q 239 614 239 614 q 239 616 239 616 q 237 616 237 616 q 236 617 237 617 q 235 610 235 614 q 233 601 235 605 q 231 601 232 600 q 228 602 229 602 q 225 605 227 604 q 222 609 224 606 q 217 617 220 612 q 206 610 213 610 q 197 613 201 610 q 190 620 193 617 q 190 618 190 620 q 189 618 190 618 q 183 617 189 617 q 174 618 176 617 q 167 614 171 617 q 164 609 165 612 q 161 602 164 605 q 159 597 160 601 q 156 594 159 593 q 153 605 153 597 q 151 610 153 613 q 149 593 146 604 q 144 582 152 581 q 140 590 138 582 q 140 606 141 598 q 129 583 136 595 q 123 575 126 581 q 121 570 122 574 q 118 568 118 567 q 117 585 117 576 q 114 601 115 593 q 113 600 114 600 q 113 600 113 600 q 107 600 107 600 q 104 587 104 594 q 102 576 106 579 q 95 591 100 576 q 88 606 91 605 q 85 604 85 606 q 83 597 85 600 q 73 594 77 590 q 68 604 69 598 q 62 614 65 609 q 60 617 60 614 q 57 623 58 621 q 50 632 53 627 q 43 642 46 637 q 38 650 41 644 q 33 674 33 659 q 35 694 33 684 q 37 699 35 697 q 39 713 38 705 q 42 728 41 720 q 52 758 46 743 q 65 788 58 773 q 80 812 72 800 q 98 834 88 823 q 102 841 100 837 q 106 845 103 844 q 251 945 159 905 q 481 986 343 986 q 515 986 494 986 q 541 985 529 985 q 567 982 555 983 q 582 981 574 981 q 597 978 590 981 q 620 974 605 977 q 648 968 639 971 q 669 962 656 966 q 789 898 746 937 q 852 817 831 859 q 856 808 854 814 q 859 800 857 804 q 861 793 860 798 q 865 777 863 789 q 867 774 867 776 q 868 769 867 772 q 869 760 868 764 q 871 757 869 762 q 871 746 871 750 q 872 738 872 743 m 620 41 q 620 34 620 38 q 610 12 617 19 q 606 9 609 11 q 602 5 605 8 q 600 4 601 4 q 597 1 598 3 q 595 -3 595 0 q 593 -8 595 -5 q 582 -34 590 -16 q 579 -20 579 -31 q 575 -34 576 -26 q 571 -47 574 -41 q 562 -75 567 -61 q 551 -104 557 -90 q 543 -118 545 -110 q 532 -132 538 -125 q 526 -134 526 -137 q 524 -91 524 -113 q 521 -46 524 -68 q 518 -43 521 -43 q 515 -43 517 -45 q 510 -39 513 -42 q 505 -37 507 -38 q 499 -37 499 -37 q 496 -109 498 -66 q 494 -183 496 -152 q 487 -184 494 -184 q 479 -184 486 -184 q 471 -180 472 -183 q 469 -107 469 -149 q 465 -35 468 -65 q 460 -35 465 -35 q 457 -34 458 -34 q 452 -41 456 -37 q 439 -54 446 -50 q 430 -109 429 -75 q 433 -170 431 -141 q 426 -209 437 -198 q 419 -214 422 -214 q 415 -208 415 -213 q 415 -172 412 -195 q 420 -126 418 -151 q 420 -88 423 -102 q 419 -91 419 -79 q 418 -119 418 -103 q 418 -149 418 -137 q 415 -153 418 -161 q 411 -102 408 -127 q 410 -49 412 -75 q 403 -42 407 -46 q 401 -41 401 -42 q 400 -41 401 -41 q 392 -33 396 -37 q 387 -23 389 -27 q 381 -18 384 -20 q 374 -14 378 -15 q 370 -11 374 -14 q 365 -7 366 -7 q 363 -9 363 -7 q 361 -12 362 -11 q 358 -15 359 -14 q 355 -16 355 -15 q 353 -60 353 -38 q 350 -102 353 -80 q 345 -106 350 -109 q 336 -92 340 -104 q 334 -80 334 -80 q 331 -46 332 -64 q 328 -11 331 -30 q 327 -9 328 -9 q 327 -7 327 -8 q 321 -1 323 -3 q 321 -1 315 4 q 315 1 327 -5 q 305 7 309 4 q 290 38 290 18 q 290 146 290 73 q 290 193 290 170 q 289 237 290 216 q 289 251 289 243 q 297 281 289 269 q 301 285 298 283 q 304 288 302 286 q 321 296 309 293 q 347 297 334 298 q 372 296 361 296 q 540 296 429 296 q 560 297 548 296 q 581 296 571 297 q 594 294 590 296 q 614 278 606 289 q 620 266 620 273 q 620 255 620 258 q 620 236 621 245 q 620 218 620 227 q 620 88 620 175 q 621 65 620 77 q 620 41 623 53 z "},"@":{"ha":1190,"x_min":53,"x_max":1149,"o":"m 1149 438 q 1149 426 1149 435 q 1147 373 1149 400 q 1146 326 1147 347 q 1123 237 1143 275 q 1073 170 1104 199 q 1058 152 1065 163 q 1055 142 1057 148 q 1050 132 1053 137 q 1046 122 1048 129 q 1042 114 1042 114 q 1040 117 1040 115 q 1040 117 1040 117 q 1038 113 1039 115 q 1036 110 1038 111 q 1035 107 1036 109 q 1035 104 1035 107 q 1034 103 1035 103 q 1032 100 1034 102 q 1032 102 1032 100 q 1029 107 1032 102 q 1028 115 1028 111 q 1028 125 1029 119 q 1027 127 1028 126 q 1027 129 1027 127 q 1025 129 1025 129 q 1024 127 1025 127 q 1020 123 1024 126 q 1019 122 1017 121 q 1017 122 1017 122 q 1017 121 1017 121 q 998 107 1006 115 q 981 95 990 100 q 964 88 974 92 q 947 81 956 83 q 930 81 939 80 q 914 80 922 81 q 892 77 905 79 q 871 77 882 76 q 852 88 860 80 q 833 102 844 96 q 818 113 826 109 q 802 122 810 117 q 784 132 793 129 q 765 140 773 134 q 754 152 760 146 q 742 163 747 157 q 735 170 739 165 q 728 170 732 170 q 728 168 728 170 q 724 160 727 164 q 718 155 720 157 q 705 140 712 148 q 692 127 699 133 q 675 117 684 122 q 658 106 667 111 q 629 91 644 98 q 598 83 614 84 q 572 84 585 83 q 547 88 560 85 q 529 87 537 88 q 511 88 519 85 q 495 96 502 92 q 491 95 494 96 q 488 95 490 95 q 468 100 477 95 q 450 110 458 104 q 437 123 444 117 q 425 133 430 127 q 412 144 419 137 q 410 149 411 148 q 406 152 407 151 q 401 156 404 155 q 396 161 399 159 q 377 186 387 172 q 359 216 368 199 q 347 247 355 227 q 331 324 335 285 q 330 335 331 331 q 328 357 328 346 q 328 380 328 368 q 328 406 328 388 q 330 429 328 412 q 332 448 332 446 q 335 465 334 457 q 339 481 336 473 q 384 586 353 543 q 461 648 414 629 q 479 655 469 652 q 495 659 487 658 q 555 663 524 667 q 614 652 583 663 q 628 647 621 650 q 642 637 636 643 q 671 612 658 628 q 674 609 671 610 q 678 612 674 609 q 678 623 678 614 q 682 633 678 628 q 693 646 686 642 q 699 648 696 648 q 715 652 707 652 q 815 652 749 652 q 833 648 825 652 q 836 647 834 647 q 837 646 836 647 q 849 632 848 639 q 850 629 850 632 q 853 616 853 621 q 853 351 853 528 q 959 294 918 327 q 971 321 968 305 q 974 339 974 331 q 974 358 974 349 q 974 404 974 373 q 974 435 974 418 q 972 471 974 453 q 963 525 970 491 q 944 591 956 557 q 922 658 935 628 q 894 701 910 688 q 883 712 891 705 q 882 712 883 712 q 869 720 876 716 q 854 727 861 724 q 849 730 854 727 q 822 734 836 734 q 788 731 804 735 q 755 726 772 727 q 745 726 750 722 q 739 727 743 726 q 734 730 736 730 q 726 727 731 730 q 716 726 720 726 q 690 724 704 724 q 665 724 678 724 q 639 731 650 722 q 617 747 628 739 q 600 757 609 753 q 583 762 591 760 q 575 768 579 765 q 567 772 571 770 q 562 772 564 772 q 556 770 559 770 q 530 760 540 769 q 506 745 521 750 q 476 741 491 739 q 446 738 461 743 q 438 734 442 736 q 430 728 435 731 q 411 719 420 722 q 389 713 400 716 q 359 711 374 711 q 334 703 345 711 q 305 675 317 689 q 270 618 285 648 q 247 560 255 587 q 236 502 239 533 q 229 446 232 471 q 228 433 229 441 q 228 418 228 425 q 232 331 228 380 q 245 248 237 294 q 264 161 252 201 q 289 99 275 121 q 296 91 292 96 q 297 90 296 90 q 336 50 313 66 q 381 24 349 38 q 452 3 412 12 q 530 -14 491 -7 q 597 -24 570 -20 q 627 -26 613 -26 q 656 -27 642 -26 q 705 -24 684 -26 q 746 -20 728 -23 q 788 -12 766 -18 q 825 1 807 -7 q 859 19 842 8 q 880 35 869 26 q 903 49 890 43 q 910 52 905 50 q 925 53 916 53 q 955 53 940 54 q 983 53 970 53 q 1023 54 1002 53 q 1061 53 1043 56 q 1081 47 1074 53 q 1088 43 1086 46 q 1093 37 1090 41 q 1096 33 1096 34 q 1096 30 1096 31 q 1097 27 1097 30 q 1096 3 1101 14 q 1095 1 1096 1 q 1095 0 1095 1 q 1086 -12 1092 -4 q 1050 -49 1069 -34 q 1039 -58 1044 -54 q 1028 -68 1035 -62 q 1020 -84 1025 -73 q 1006 -104 1015 -95 q 991 -123 998 -114 q 970 -152 985 -138 q 966 -202 967 -172 q 963 -263 964 -232 q 959 -313 962 -293 q 956 -339 958 -327 q 952 -363 956 -351 q 951 -374 951 -369 q 947 -385 949 -381 q 941 -380 945 -388 q 939 -362 940 -370 q 936 -347 937 -354 q 933 -320 935 -334 q 930 -294 930 -307 q 929 -232 929 -263 q 925 -171 928 -201 q 922 -159 924 -164 q 917 -149 922 -155 q 916 -152 916 -151 q 913 -183 913 -167 q 910 -214 913 -198 q 907 -217 910 -216 q 905 -222 906 -220 q 901 -232 901 -231 q 898 -205 898 -218 q 895 -176 898 -190 q 884 -199 892 -184 q 882 -206 883 -203 q 878 -212 880 -209 q 867 -228 872 -222 q 863 -232 865 -231 q 859 -236 861 -233 q 856 -237 860 -235 q 854 -239 853 -240 q 852 -275 852 -256 q 849 -312 852 -294 q 848 -331 848 -323 q 845 -349 848 -340 q 841 -346 844 -350 q 838 -342 838 -343 q 837 -323 837 -332 q 834 -302 836 -312 q 833 -275 830 -279 q 826 -259 834 -273 q 811 -283 817 -271 q 806 -293 808 -288 q 802 -301 804 -297 q 788 -335 795 -317 q 772 -368 780 -353 q 761 -387 768 -374 q 745 -404 754 -399 q 742 -449 742 -426 q 739 -495 742 -471 q 738 -495 739 -495 q 735 -495 736 -495 q 732 -494 732 -495 q 730 -446 730 -469 q 727 -401 730 -423 q 722 -397 726 -400 q 711 -380 715 -391 q 701 -359 705 -369 q 692 -338 696 -349 q 682 -315 688 -327 q 667 -281 675 -297 q 650 -245 658 -264 q 643 -229 646 -239 q 633 -213 639 -221 q 625 -201 631 -209 q 621 -198 624 -199 q 617 -195 620 -197 q 614 -236 614 -216 q 613 -275 616 -255 q 610 -271 612 -277 q 606 -264 609 -267 q 605 -229 605 -247 q 601 -195 604 -213 q 334 -145 442 -193 q 161 -16 227 -98 q 159 -16 160 -16 q 159 -15 159 -15 q 151 -5 156 -12 q 140 8 144 1 q 132 22 136 15 q 62 214 77 109 q 61 218 61 216 q 57 247 58 232 q 56 275 57 262 q 56 297 56 282 q 54 311 54 304 q 54 326 54 317 q 54 353 54 334 q 53 389 54 366 q 53 404 53 396 q 54 438 53 420 q 57 515 56 475 q 68 578 60 556 q 71 586 69 582 q 73 594 72 590 q 76 601 75 597 q 79 606 77 604 q 117 692 94 650 q 170 770 138 734 q 182 787 176 780 q 193 799 187 793 q 197 802 195 802 q 198 803 197 803 q 350 905 259 864 q 562 949 439 944 q 589 949 571 949 q 871 906 762 949 q 1040 789 979 863 q 1059 766 1051 779 q 1076 741 1067 753 q 1088 720 1082 732 q 1100 694 1095 708 q 1109 670 1105 684 q 1118 643 1114 656 q 1126 616 1122 629 q 1133 587 1130 602 q 1137 572 1134 582 q 1139 557 1139 567 q 1142 537 1141 548 q 1146 487 1146 513 q 1149 438 1147 463 m 650 475 q 642 481 644 480 q 629 486 636 484 q 616 486 623 486 q 587 486 601 486 q 560 483 574 486 q 540 480 552 483 q 513 441 522 467 q 502 389 505 414 q 505 349 502 369 q 518 308 509 328 q 522 301 521 302 q 525 294 524 300 q 551 271 536 279 q 552 270 552 271 q 555 270 553 270 q 572 266 563 266 q 582 264 576 264 q 598 264 587 264 q 616 267 606 266 q 633 273 625 269 q 644 279 639 275 q 627 355 614 331 q 678 385 640 380 q 677 404 678 395 q 677 411 677 407 q 675 418 677 415 q 673 430 675 422 q 671 438 673 435 q 650 475 665 458 z "},"A":{"ha":1048,"x_min":0,"x_max":1050,"o":"m 1040 60 q 1048 42 1044 52 q 1050 31 1050 37 q 1048 23 1050 27 q 1044 15 1047 18 q 1039 8 1042 11 q 1035 4 1038 7 q 1032 -3 1034 1 q 1029 -9 1032 -7 q 1027 -18 1028 -14 q 1024 -26 1027 -22 q 1021 -38 1023 -31 q 1019 -43 1021 -46 q 1015 -33 1015 -39 q 1015 -20 1015 -26 q 1002 -35 1008 -27 q 990 -50 996 -43 q 971 -83 981 -65 q 952 -117 962 -100 q 941 -140 947 -127 q 929 -164 936 -153 q 920 -179 921 -178 q 910 -189 918 -180 q 909 -189 909 -189 q 903 -193 907 -190 q 901 -218 902 -206 q 898 -244 901 -232 q 894 -241 895 -247 q 891 -233 892 -236 q 890 -210 890 -222 q 887 -187 890 -198 q 879 -175 883 -183 q 879 -172 879 -174 q 878 -172 878 -172 q 871 -153 873 -163 q 863 -134 867 -144 q 848 -113 856 -121 q 845 -111 846 -111 q 844 -110 845 -111 q 841 -113 842 -111 q 837 -115 838 -114 q 827 -126 825 -123 q 834 -130 829 -129 q 842 -140 842 -133 q 826 -161 842 -146 q 822 -153 822 -167 q 821 -134 822 -140 q 819 -118 819 -126 q 815 -100 818 -109 q 803 -80 807 -92 q 795 -66 799 -73 q 789 -52 792 -58 q 785 -41 788 -47 q 780 -33 784 -37 q 773 -26 776 -30 q 773 -26 773 -24 q 773 -26 773 -26 q 755 -37 770 -26 q 757 -37 755 -38 q 773 -26 758 -35 q 772 -24 773 -26 q 769 -22 772 -24 q 754 -41 751 -41 q 765 -34 757 -41 q 774 -24 773 -27 q 755 -37 776 -22 q 753 -39 754 -37 q 750 -34 751 -38 q 749 -33 749 -30 q 746 -56 746 -41 q 743 -65 746 -72 q 741 -43 741 -58 q 738 -16 741 -30 q 730 -3 734 -9 q 722 12 727 5 q 719 15 719 12 q 713 22 716 18 q 711 24 709 26 q 708 31 709 27 q 705 35 707 34 q 696 62 700 49 q 686 91 692 76 q 685 95 685 94 q 684 98 685 96 q 681 106 684 100 q 680 110 681 109 q 678 114 680 111 q 677 117 678 117 q 674 125 677 119 q 674 126 674 126 q 669 126 674 126 q 667 118 667 123 q 661 110 667 113 q 654 95 658 103 q 646 80 650 88 q 627 41 636 62 q 609 -4 618 19 q 597 -38 602 -20 q 583 -68 590 -54 q 572 -94 578 -80 q 560 -118 567 -107 q 555 -126 559 -121 q 545 -130 552 -130 q 534 -126 540 -132 q 526 -109 529 -118 q 519 -90 522 -99 q 507 -53 513 -73 q 498 -9 502 -33 q 487 34 491 12 q 475 69 481 54 q 471 80 473 73 q 469 85 469 83 q 467 94 468 90 q 463 103 464 99 q 460 106 461 104 q 458 106 458 109 q 456 76 456 92 q 453 45 456 60 q 450 47 452 39 q 448 61 449 57 q 442 84 438 80 q 450 92 446 90 q 444 110 454 95 q 439 104 442 110 q 438 102 438 103 q 437 99 438 100 q 430 91 433 95 q 423 84 427 88 q 419 81 420 81 q 418 50 418 66 q 414 19 416 35 q 411 16 414 18 q 408 16 408 15 q 406 50 406 34 q 403 85 406 68 q 391 103 396 94 q 381 118 385 113 q 369 142 368 142 q 373 133 370 141 q 373 121 377 123 q 369 111 369 113 q 366 103 368 107 q 363 96 365 100 q 358 79 361 88 q 353 64 355 71 q 345 41 350 56 q 340 30 343 35 q 335 20 338 24 q 324 9 331 14 q 317 1 321 7 q 313 -8 316 -1 q 307 -33 311 -19 q 298 -56 302 -45 q 298 -57 298 -57 q 297 -58 297 -58 q 293 -77 296 -68 q 288 -96 290 -85 q 286 -100 286 -98 q 285 -106 286 -103 q 277 -140 281 -122 q 269 -172 274 -157 q 262 -198 266 -186 q 252 -224 256 -212 q 248 -236 251 -229 q 241 -248 244 -241 q 233 -259 239 -252 q 222 -267 229 -264 q 220 -298 221 -282 q 217 -330 220 -313 q 213 -335 216 -332 q 210 -336 210 -336 q 210 -336 210 -336 q 208 -298 208 -316 q 205 -263 208 -281 q 199 -256 201 -259 q 194 -252 197 -254 q 182 -239 190 -248 q 179 -233 180 -236 q 174 -228 176 -231 q 161 -212 168 -220 q 152 -194 156 -203 q 125 -141 136 -168 q 102 -88 114 -114 q 91 -65 96 -76 q 77 -42 84 -53 q 76 -39 76 -41 q 73 -37 75 -38 q 66 -26 71 -31 q 58 -19 61 -20 q 57 -19 58 -19 q 57 -16 57 -18 q 56 -16 56 -16 q 54 -15 56 -15 q 49 -31 50 -22 q 45 -46 49 -39 q 41 -52 45 -52 q 33 -42 35 -53 q 31 -35 31 -33 q 27 -47 24 -64 q 23 0 30 -31 q 20 1 22 1 q 18 3 19 1 q 7 11 14 4 q 1 19 4 14 q 0 30 0 23 q 0 37 0 33 q 4 53 1 45 q 9 68 7 61 q 16 85 12 77 q 20 95 19 94 q 68 229 37 140 q 81 282 75 256 q 96 326 88 308 q 96 328 96 327 q 98 331 98 330 q 102 342 100 336 q 107 353 104 347 q 113 363 110 358 q 117 370 115 368 q 189 578 141 439 q 202 625 195 602 q 214 662 209 648 q 221 689 218 677 q 229 713 225 703 q 239 742 233 730 q 267 800 254 788 q 292 872 275 825 q 311 926 297 886 q 331 958 315 941 q 377 972 346 972 q 675 972 476 972 q 703 967 692 972 q 715 960 707 966 q 731 943 726 952 q 741 922 736 933 q 743 914 741 920 q 747 901 745 909 q 749 892 749 898 q 751 886 750 888 q 764 856 755 876 q 765 853 764 854 q 765 852 765 853 q 768 842 768 846 q 776 821 772 831 q 783 799 779 810 q 785 792 784 796 q 788 785 787 788 q 791 774 788 781 q 808 742 799 766 q 830 684 819 718 q 834 670 831 678 q 852 624 845 647 q 865 576 860 600 q 879 537 872 563 q 891 484 886 513 q 960 292 914 420 q 977 251 968 278 q 996 190 986 224 q 1001 176 998 183 q 1004 163 1002 170 q 1035 75 1015 133 q 1040 60 1039 68 m 522 650 q 521 646 522 648 q 519 640 519 643 q 513 621 517 631 q 507 600 510 612 q 475 491 496 564 q 472 481 473 486 q 468 469 471 476 q 464 452 467 461 q 458 433 461 444 q 456 422 457 427 q 452 411 454 416 q 450 408 450 410 q 449 403 450 406 q 449 401 449 403 q 448 401 449 401 q 446 399 448 400 q 446 397 446 399 q 566 397 486 397 q 579 397 572 397 q 591 397 586 399 q 602 397 595 397 q 598 412 602 401 q 594 426 595 419 q 590 438 593 431 q 586 450 589 442 q 575 484 581 465 q 566 521 571 503 q 564 526 564 522 q 540 600 556 551 q 532 629 538 608 q 530 635 532 629 q 526 647 528 642 q 525 650 525 648 q 522 650 525 650 z "},"B":{"ha":1020,"x_min":76,"x_max":981,"o":"m 981 285 q 972 221 981 256 q 888 81 951 136 q 886 79 887 80 q 883 76 884 77 q 887 39 883 60 q 891 1 891 19 q 879 -27 892 -16 q 867 -22 868 -38 q 871 18 867 -7 q 875 61 875 43 q 848 16 864 37 q 844 12 846 15 q 837 7 841 9 q 833 3 833 3 q 831 14 831 8 q 830 23 830 18 q 808 -5 819 9 q 788 -35 799 -19 q 755 -92 769 -62 q 720 -149 742 -122 q 701 -171 711 -160 q 681 -194 690 -183 q 671 -206 677 -199 q 661 -214 667 -212 q 655 -239 658 -221 q 648 -264 652 -255 q 647 -267 648 -266 q 644 -269 646 -269 q 643 -269 643 -269 q 640 -258 640 -264 q 637 -247 639 -252 q 636 -228 636 -237 q 633 -210 636 -220 q 627 -205 632 -209 q 621 -197 623 -199 q 620 -195 620 -195 q 618 -193 620 -194 q 612 -182 616 -190 q 605 -172 609 -178 q 600 -164 602 -168 q 597 -161 600 -164 q 589 -156 594 -160 q 581 -142 583 -151 q 572 -129 576 -134 q 552 -95 562 -113 q 533 -60 541 -77 q 528 -47 530 -52 q 524 -35 526 -41 q 517 -22 519 -30 q 511 -24 515 -23 q 509 -81 510 -53 q 506 -137 509 -110 q 503 -148 506 -141 q 500 -152 502 -155 q 498 -92 498 -121 q 495 -34 498 -62 q 494 -33 495 -31 q 488 -35 491 -35 q 483 -38 486 -38 q 475 -49 480 -41 q 463 -69 472 -54 q 449 -102 454 -84 q 437 -133 444 -118 q 431 -142 435 -137 q 431 -145 431 -144 q 430 -148 430 -146 q 425 -156 427 -152 q 418 -163 422 -160 q 412 -165 415 -165 q 407 -198 408 -182 q 401 -231 406 -216 q 399 -239 400 -233 q 396 -243 399 -243 q 392 -239 393 -243 q 391 -231 392 -233 q 385 -199 387 -216 q 380 -170 385 -184 q 370 -178 374 -174 q 362 -184 366 -182 q 359 -197 361 -189 q 350 -195 357 -206 q 349 -190 349 -193 q 346 -183 347 -186 q 340 -176 343 -180 q 336 -170 339 -172 q 335 -168 336 -168 q 335 -167 335 -168 q 317 -133 326 -151 q 296 -102 309 -115 q 293 -98 294 -99 q 290 -95 292 -96 q 281 -85 288 -92 q 274 -80 278 -83 q 269 -75 271 -77 q 255 -61 263 -68 q 240 -47 248 -53 q 235 -46 232 -45 q 237 -49 236 -47 q 231 -46 240 -50 q 221 -38 225 -43 q 212 -33 218 -34 q 193 -34 201 -31 q 175 -39 184 -37 q 159 -41 164 -42 q 153 -39 153 -41 q 151 -114 151 -69 q 148 -190 151 -159 q 145 -187 148 -193 q 141 -180 142 -182 q 134 -159 137 -170 q 127 -138 130 -149 q 127 -80 126 -110 q 121 -22 127 -52 q 121 -24 119 -14 q 119 -50 121 -37 q 114 -72 119 -65 q 110 -62 109 -79 q 111 -37 111 -46 q 102 1 109 -23 q 92 7 96 4 q 76 38 76 18 q 76 895 76 324 q 76 916 76 906 q 76 922 76 918 q 76 935 76 929 q 79 949 76 944 q 88 963 81 956 q 114 972 100 972 q 282 972 170 972 q 332 972 296 972 q 414 972 368 972 q 503 972 460 972 q 575 972 545 972 q 613 971 594 972 q 647 970 631 971 q 658 968 652 970 q 669 968 662 968 q 694 966 682 967 q 719 963 707 966 q 732 960 727 962 q 745 958 739 959 q 749 956 747 958 q 760 952 755 954 q 768 948 764 951 q 776 945 772 947 q 784 943 779 944 q 873 892 834 925 q 882 887 878 890 q 888 880 886 883 q 901 868 895 873 q 918 844 909 860 q 932 822 926 833 q 941 798 937 810 q 959 713 954 760 q 959 659 962 686 q 947 616 958 632 q 944 608 945 612 q 940 600 943 604 q 930 582 936 590 q 918 566 925 574 q 913 559 916 563 q 907 552 910 555 q 894 538 903 547 q 882 528 890 536 q 880 509 880 518 q 879 490 880 500 q 895 480 887 486 q 906 471 903 473 q 926 450 913 464 q 949 416 937 439 q 981 305 981 363 q 981 285 981 298 m 435 732 q 423 734 431 732 q 423 606 423 701 q 541 606 453 606 q 555 609 548 606 q 581 629 570 614 q 594 663 591 646 q 594 686 595 675 q 587 707 593 697 q 574 722 583 715 q 574 723 574 722 q 572 724 574 724 q 552 730 563 731 q 529 728 540 730 q 502 727 515 727 q 473 728 487 727 q 454 730 464 728 q 435 732 445 731 m 423 239 q 552 239 456 239 q 570 241 559 239 q 608 281 595 248 q 609 340 620 313 q 605 347 608 343 q 597 357 602 351 q 562 368 583 370 q 521 362 538 363 q 494 363 507 361 q 467 366 480 365 q 450 370 458 369 q 435 372 442 370 q 423 363 431 369 q 423 239 423 332 z "},"C":{"ha":1019,"x_min":47,"x_max":986,"o":"m 920 142 q 911 134 917 141 q 905 126 909 130 q 898 119 902 122 q 890 111 895 117 q 886 109 887 109 q 873 96 882 104 q 867 88 868 91 q 861 64 864 76 q 856 41 859 52 q 850 18 853 30 q 845 -4 848 7 q 827 -64 838 -24 q 825 -76 826 -69 q 819 -91 822 -83 q 807 -117 815 -104 q 803 -121 806 -118 q 800 -123 802 -122 q 798 -126 799 -125 q 795 -136 796 -130 q 791 -144 793 -140 q 784 -144 788 -148 q 774 -134 773 -137 q 779 -132 776 -132 q 776 -136 783 -133 q 770 -138 774 -137 q 769 -141 769 -140 q 768 -142 768 -142 q 761 -155 764 -149 q 753 -167 757 -161 q 749 -171 751 -168 q 742 -174 746 -174 q 735 -170 738 -174 q 732 -167 734 -168 q 727 -156 730 -161 q 722 -144 726 -151 q 722 -142 722 -142 q 720 -140 720 -141 q 701 -88 711 -114 q 678 -38 690 -62 q 674 -31 675 -33 q 671 -30 673 -31 q 667 -30 670 -30 q 661 -30 661 -30 q 666 -73 659 -47 q 673 -119 673 -100 q 655 -137 674 -138 q 639 -118 639 -136 q 644 -73 639 -99 q 650 -33 651 -50 q 644 -47 648 -41 q 637 -61 640 -54 q 628 -77 635 -66 q 624 -81 627 -79 q 620 -85 623 -83 q 618 -88 618 -87 q 613 -91 613 -91 q 612 -119 612 -104 q 613 -151 613 -134 q 600 -126 610 -127 q 589 -134 591 -123 q 590 -107 589 -121 q 589 -81 590 -95 q 586 -80 587 -81 q 585 -79 583 -79 q 579 -73 583 -77 q 563 -56 575 -69 q 547 -42 555 -49 q 528 -24 538 -35 q 518 -18 517 -16 q 522 -18 521 -18 q 511 -14 524 -19 q 509 -23 509 -16 q 510 -31 510 -31 q 505 -14 510 -31 q 266 31 369 -11 q 106 165 163 73 q 69 247 81 205 q 61 269 65 255 q 61 273 61 271 q 60 275 60 274 q 52 330 54 296 q 49 397 49 363 q 49 453 49 431 q 47 506 49 472 q 47 529 47 518 q 49 576 47 552 q 53 637 50 613 q 54 650 54 644 q 56 659 54 654 q 56 662 56 661 q 57 663 57 662 q 79 746 64 708 q 115 817 94 785 q 140 849 123 831 q 300 952 203 918 q 517 986 397 986 q 551 986 528 986 q 557 985 555 986 q 770 939 671 979 q 929 815 871 898 q 948 788 940 803 q 962 755 956 772 q 977 708 971 734 q 983 658 982 684 q 985 652 983 656 q 985 647 985 647 q 985 646 985 647 q 986 635 985 640 q 985 625 986 631 q 983 621 983 624 q 982 617 983 620 q 978 612 979 614 q 977 610 978 610 q 968 600 974 605 q 963 593 964 595 q 960 590 963 590 q 958 593 959 590 q 954 597 958 595 q 952 597 956 598 q 948 594 949 594 q 932 586 937 591 q 918 572 924 581 q 906 557 913 564 q 899 551 903 555 q 891 543 895 545 q 883 551 883 541 q 876 555 883 559 q 871 551 875 555 q 865 545 865 545 q 848 532 857 538 q 825 522 837 524 q 812 525 818 522 q 799 529 806 528 q 776 540 788 534 q 754 548 765 545 q 728 555 742 553 q 704 564 715 557 q 688 575 696 570 q 671 587 680 582 q 669 590 670 589 q 663 591 667 590 q 658 595 659 595 q 658 594 658 595 q 656 589 656 591 q 655 586 655 587 q 652 582 655 583 q 650 585 650 579 q 648 587 648 586 q 647 590 648 589 q 643 598 643 594 q 637 609 640 602 q 627 624 631 616 q 613 656 618 640 q 593 686 606 673 q 590 690 591 689 q 587 693 589 692 q 586 693 586 693 q 585 694 585 694 q 581 697 582 697 q 576 697 581 697 q 568 699 571 697 q 562 697 564 699 q 559 696 560 697 q 555 694 557 693 q 553 697 553 694 q 537 681 543 692 q 526 661 532 670 q 519 648 524 655 q 509 637 515 640 q 505 635 507 636 q 503 635 503 633 q 500 665 500 650 q 499 693 502 680 q 491 682 495 688 q 483 671 487 677 q 477 665 481 670 q 469 662 472 661 q 464 665 467 662 q 456 674 458 669 q 450 685 453 681 q 449 690 449 688 q 446 694 449 693 q 442 690 445 693 q 431 678 438 686 q 431 677 431 677 q 430 675 430 677 q 430 674 430 674 q 429 673 429 674 q 419 650 423 663 q 412 616 414 632 q 412 590 412 606 q 411 551 411 571 q 411 511 411 530 q 411 423 411 481 q 412 396 411 410 q 412 369 412 384 q 414 358 412 363 q 414 345 414 351 q 415 340 415 343 q 416 335 415 338 q 418 330 416 331 q 422 319 419 324 q 425 308 423 313 q 465 279 438 290 q 522 269 491 270 q 578 278 555 267 q 591 288 585 282 q 604 300 598 293 q 614 317 610 307 q 618 331 617 326 q 623 342 621 336 q 628 354 625 349 q 640 366 632 359 q 644 368 643 368 q 647 369 646 368 q 662 373 654 372 q 678 373 670 373 q 694 373 686 373 q 709 372 703 372 q 914 372 777 372 q 930 373 917 372 q 954 372 944 373 q 975 363 967 372 q 985 347 983 355 q 986 338 986 343 q 986 328 986 334 q 982 296 985 317 q 939 172 972 228 q 920 142 932 159 m 590 -193 q 587 -161 589 -178 q 589 -134 586 -144 q 589 -163 589 -149 q 590 -193 589 -178 m 605 -221 q 604 -227 604 -227 q 604 -222 604 -227 q 609 -197 605 -214 q 613 -164 613 -180 q 612 -193 613 -178 q 605 -221 610 -208 m 590 -193 q 593 -208 591 -199 q 594 -218 593 -214 q 590 -193 590 -206 z "},"D":{"ha":1028,"x_min":76,"x_max":981,"o":"m 979 475 q 979 431 979 464 q 978 382 979 410 q 974 331 978 354 q 964 282 970 305 q 949 237 959 259 q 940 210 944 222 q 929 191 936 198 q 929 190 929 190 q 928 189 928 190 q 910 160 918 171 q 895 141 905 151 q 879 123 887 132 q 864 110 872 117 q 850 96 857 103 q 849 96 850 96 q 849 95 849 96 q 834 73 842 88 q 833 71 833 72 q 831 68 833 69 q 827 61 830 65 q 826 57 826 60 q 823 56 825 56 q 810 38 818 46 q 793 24 803 33 q 774 14 785 16 q 768 14 773 14 q 765 3 766 8 q 760 -9 762 -4 q 758 -14 758 -11 q 754 -19 757 -16 q 751 -22 753 -20 q 750 -26 750 -23 q 747 -72 749 -42 q 746 -136 747 -103 q 746 -201 746 -171 q 745 -247 746 -232 q 739 -243 745 -248 q 736 -235 738 -239 q 734 -227 736 -231 q 719 -164 728 -206 q 712 -113 712 -142 q 712 -52 712 -81 q 708 -1 713 -22 q 708 -3 708 -1 q 707 -4 707 -3 q 705 -4 707 -5 q 703 -3 704 -3 q 697 1 700 -1 q 693 4 696 3 q 689 7 692 5 q 681 -4 684 1 q 678 -8 678 -7 q 670 -18 675 -12 q 646 -61 654 -38 q 637 -85 643 -69 q 625 -122 632 -103 q 604 -156 618 -140 q 598 -161 595 -164 q 600 -159 600 -160 q 594 -164 598 -160 q 589 -168 589 -167 q 582 -172 589 -171 q 576 -171 581 -172 q 571 -171 574 -170 q 568 -171 570 -171 q 564 -172 567 -172 q 555 -179 560 -175 q 547 -184 552 -180 q 537 -184 541 -189 q 536 -180 536 -183 q 532 -176 534 -178 q 529 -178 530 -175 q 526 -178 528 -179 q 524 -175 525 -176 q 521 -172 522 -174 q 510 -164 515 -170 q 499 -155 505 -159 q 488 -146 494 -149 q 486 -160 486 -153 q 483 -175 486 -168 q 480 -184 481 -180 q 477 -193 477 -189 q 476 -239 476 -209 q 476 -301 476 -269 q 475 -365 476 -335 q 471 -410 473 -395 q 469 -418 471 -418 q 469 -414 469 -418 q 467 -387 468 -406 q 467 -346 467 -366 q 465 -313 465 -327 q 464 -262 464 -293 q 461 -197 463 -229 q 460 -146 461 -167 q 450 -156 454 -151 q 435 -175 442 -165 q 416 -191 427 -184 q 414 -214 415 -203 q 411 -236 412 -225 q 407 -277 410 -256 q 400 -315 403 -296 q 397 -331 399 -324 q 395 -346 397 -339 q 392 -363 393 -351 q 389 -369 391 -374 q 387 -301 387 -338 q 384 -233 387 -264 q 381 -232 384 -232 q 378 -233 378 -232 q 374 -302 374 -264 q 372 -373 374 -342 q 370 -369 372 -380 q 366 -355 368 -359 q 359 -321 362 -340 q 354 -289 357 -301 q 350 -240 351 -264 q 343 -191 347 -216 q 335 -183 340 -189 q 327 -170 331 -176 q 321 -159 324 -164 q 301 -109 309 -133 q 281 -60 292 -83 q 259 -16 274 -45 q 258 -12 258 -14 q 256 -9 258 -11 q 255 -23 254 -15 q 251 -38 255 -31 q 248 -34 250 -39 q 245 -27 247 -30 q 241 -15 244 -19 q 239 -20 241 -18 q 233 -27 237 -23 q 225 -37 229 -33 q 218 -43 222 -41 q 208 -66 212 -53 q 201 -91 205 -79 q 199 -102 199 -96 q 195 -113 198 -107 q 193 -129 194 -118 q 190 -134 191 -140 q 176 -123 175 -119 q 184 -136 178 -126 q 193 -155 191 -148 q 179 -156 194 -163 q 165 -136 165 -152 q 171 -102 167 -121 q 174 -68 176 -81 q 171 -62 174 -65 q 170 -62 170 -60 q 168 -83 168 -69 q 168 -106 168 -98 q 164 -109 168 -115 q 160 -76 157 -94 q 160 -45 163 -60 q 153 -31 159 -37 q 148 -26 151 -30 q 141 -22 144 -23 q 140 -24 140 -22 q 137 -27 138 -26 q 133 -30 133 -27 q 134 -60 132 -41 q 136 -91 136 -77 q 127 -98 137 -103 q 121 -64 114 -85 q 123 -23 126 -42 q 122 -16 123 -20 q 118 -15 121 -12 q 117 -27 115 -19 q 114 -35 118 -37 q 110 -24 109 -33 q 111 -12 113 -18 q 102 1 109 -8 q 92 7 96 4 q 76 38 76 18 q 76 298 76 125 q 76 465 77 422 q 76 699 76 609 q 76 895 76 788 q 76 914 76 905 q 76 922 76 918 q 76 935 76 929 q 83 958 76 948 q 99 970 90 966 q 113 972 107 972 q 122 972 118 974 q 127 972 125 972 q 141 972 134 972 q 488 972 258 972 q 533 972 511 972 q 578 970 556 972 q 834 878 731 958 q 848 869 844 872 q 854 863 852 865 q 903 811 879 842 q 930 769 920 793 q 970 659 958 720 q 970 658 970 658 q 971 656 971 658 q 974 646 972 651 q 975 632 975 639 q 979 593 979 614 q 981 530 981 560 q 979 475 981 500 m 429 697 q 420 705 427 700 q 408 719 406 720 q 418 709 411 718 q 423 696 426 701 q 423 671 423 686 q 423 656 423 656 q 422 283 425 283 q 423 279 419 282 q 435 271 427 277 q 494 271 449 271 q 529 273 511 271 q 564 281 545 275 q 585 293 575 285 q 586 294 586 293 q 587 294 586 294 q 593 301 590 297 q 598 309 595 305 q 612 339 606 324 q 620 369 617 355 q 620 373 620 370 q 621 377 621 374 q 624 393 624 385 q 627 411 625 403 q 627 445 627 426 q 628 483 628 464 q 628 505 628 490 q 627 532 628 518 q 627 559 627 544 q 625 572 627 563 q 625 593 625 583 q 620 621 624 609 q 610 647 617 635 q 606 652 610 647 q 601 659 605 655 q 598 663 601 661 q 590 673 595 667 q 571 681 581 681 q 551 678 562 681 q 526 673 538 677 q 502 669 514 670 q 490 666 496 667 q 477 667 483 665 q 458 675 468 670 q 441 688 449 682 q 429 697 433 694 z "},"E":{"ha":926,"x_min":76,"x_max":878,"o":"m 875 184 q 876 121 875 157 q 878 85 878 102 q 876 53 878 68 q 876 39 876 46 q 873 24 876 33 q 873 23 873 23 q 872 22 872 22 q 867 14 871 16 q 859 7 863 9 q 853 1 857 4 q 848 -5 850 -1 q 844 -12 846 -8 q 837 -20 841 -16 q 834 -23 836 -22 q 831 -27 833 -24 q 818 -45 825 -37 q 803 -62 810 -53 q 793 -76 799 -66 q 784 -91 788 -83 q 773 -104 779 -98 q 770 -107 770 -107 q 755 -119 766 -113 q 753 -122 754 -121 q 749 -123 751 -122 q 742 -129 746 -125 q 734 -134 738 -133 q 722 -133 728 -136 q 711 -126 715 -129 q 707 -123 708 -123 q 704 -126 709 -121 q 694 -134 697 -132 q 692 -194 692 -164 q 689 -254 692 -224 q 692 -285 688 -267 q 684 -305 696 -302 q 674 -288 671 -307 q 678 -255 678 -269 q 675 -193 677 -224 q 673 -132 675 -163 q 671 -129 671 -130 q 669 -129 670 -129 q 669 -127 669 -127 q 661 -117 666 -123 q 650 -94 655 -106 q 636 -69 643 -80 q 616 -34 629 -57 q 612 -23 614 -27 q 605 -11 609 -18 q 604 -9 605 -11 q 602 -27 602 -18 q 600 -45 602 -37 q 597 -50 598 -46 q 594 -53 595 -54 q 593 -38 593 -46 q 591 -24 591 -31 q 585 -41 586 -37 q 576 -61 581 -50 q 567 -81 572 -71 q 553 -107 563 -92 q 552 -109 553 -109 q 552 -109 552 -109 q 544 -117 551 -111 q 540 -119 541 -119 q 537 -140 537 -129 q 534 -161 536 -151 q 532 -175 533 -168 q 529 -187 530 -180 q 526 -197 528 -190 q 522 -199 524 -203 q 524 -165 519 -184 q 517 -137 528 -148 q 513 -141 513 -133 q 514 -163 513 -151 q 517 -184 517 -175 q 511 -189 517 -193 q 506 -160 500 -179 q 506 -127 511 -141 q 505 -136 505 -121 q 500 -157 506 -152 q 498 -152 499 -160 q 495 -140 498 -144 q 490 -127 494 -137 q 479 -122 486 -118 q 479 -122 479 -122 q 477 -123 477 -122 q 468 -136 475 -126 q 452 -153 461 -144 q 446 -156 452 -153 q 449 -197 445 -171 q 457 -248 453 -224 q 458 -292 461 -275 q 445 -307 456 -305 q 441 -305 442 -307 q 422 -285 425 -302 q 422 -241 419 -267 q 431 -194 426 -218 q 435 -153 437 -170 q 433 -152 433 -153 q 431 -152 433 -152 q 430 -151 430 -152 q 430 -151 430 -151 q 425 -141 427 -148 q 419 -133 422 -138 q 406 -98 412 -117 q 385 -56 399 -83 q 382 -50 384 -53 q 380 -45 382 -47 q 365 -39 372 -42 q 350 -34 357 -37 q 350 -27 353 -31 q 349 -31 349 -30 q 349 -33 349 -33 q 340 -30 346 -33 q 339 -30 340 -30 q 339 -27 339 -30 q 336 -31 338 -30 q 334 -35 335 -34 q 316 -54 326 -46 q 313 -57 316 -56 q 313 -57 313 -57 q 312 -58 312 -57 q 311 -60 311 -58 q 308 -60 309 -60 q 307 -119 307 -80 q 304 -194 305 -157 q 301 -254 304 -233 q 298 -258 301 -255 q 296 -258 296 -259 q 290 -214 288 -243 q 297 -155 293 -186 q 301 -95 302 -123 q 285 -52 300 -66 q 266 -26 278 -43 q 262 -20 264 -23 q 256 -16 259 -18 q 247 -4 254 -11 q 247 -5 247 -4 q 245 -5 247 -5 q 235 -15 241 -11 q 225 -19 232 -16 q 224 -20 224 -19 q 222 -20 224 -20 q 222 -30 222 -23 q 220 -47 222 -37 q 209 -118 216 -71 q 206 -136 208 -127 q 201 -153 205 -144 q 198 -176 199 -161 q 195 -184 197 -191 q 187 -146 186 -170 q 193 -100 189 -122 q 197 -66 198 -79 q 180 -60 195 -54 q 148 -54 161 -64 q 141 -49 144 -52 q 136 -45 138 -46 q 133 -38 134 -42 q 130 -38 130 -35 q 132 -75 129 -52 q 134 -118 133 -98 q 134 -151 136 -140 q 125 -151 133 -161 q 113 -111 113 -133 q 118 -66 114 -91 q 119 -23 123 -45 q 119 -26 118 -14 q 118 -54 119 -38 q 114 -79 118 -71 q 110 -69 110 -90 q 111 -41 111 -50 q 102 1 109 -26 q 92 7 96 4 q 76 38 76 18 q 76 913 76 330 q 76 936 76 924 q 83 958 76 947 q 100 970 88 966 q 106 971 103 971 q 115 972 110 972 q 793 972 342 972 q 822 972 807 972 q 825 972 823 972 q 849 966 838 972 q 857 958 852 963 q 864 936 864 947 q 864 772 864 882 q 865 760 865 766 q 865 745 865 751 q 863 727 865 738 q 861 724 863 726 q 861 722 861 724 q 860 722 860 722 q 860 720 860 720 q 857 718 857 718 q 848 708 856 715 q 837 700 838 701 q 831 696 834 697 q 826 693 826 693 q 826 696 826 694 q 823 699 826 696 q 811 699 821 700 q 798 696 803 696 q 779 694 788 694 q 760 692 769 694 q 742 684 750 689 q 727 677 735 680 q 712 673 719 675 q 699 669 705 671 q 685 662 692 667 q 671 655 678 656 q 648 661 661 654 q 643 665 644 665 q 640 665 640 665 q 635 659 639 661 q 621 650 629 654 q 605 642 614 644 q 589 640 595 637 q 571 643 581 642 q 559 644 566 644 q 544 644 552 643 q 518 654 530 647 q 494 669 506 661 q 469 680 481 675 q 444 689 456 685 q 410 701 431 693 q 410 631 410 684 q 415 614 411 627 q 741 614 496 614 q 776 616 755 614 q 812 610 798 617 q 815 609 814 610 q 826 598 823 602 q 831 586 830 593 q 834 572 833 579 q 834 555 834 564 q 833 537 833 545 q 833 408 833 495 q 834 397 833 403 q 833 389 834 393 q 830 381 833 387 q 830 380 830 380 q 829 378 829 380 q 810 359 823 366 q 808 359 808 359 q 807 358 808 358 q 789 351 799 353 q 773 346 780 349 q 751 332 762 340 q 728 323 741 326 q 712 320 720 321 q 697 316 704 320 q 684 312 690 315 q 670 307 677 309 q 644 302 656 302 q 621 301 632 302 q 614 301 618 301 q 609 301 612 301 q 602 301 605 300 q 589 307 594 302 q 575 311 582 309 q 551 309 563 313 q 525 307 537 304 q 506 317 515 309 q 486 332 498 326 q 463 343 475 338 q 438 353 450 349 q 426 355 441 353 q 410 358 412 358 q 410 288 410 335 q 415 271 411 283 q 837 271 521 271 q 854 267 846 271 q 861 263 857 267 q 865 259 864 262 q 868 255 867 258 q 873 244 871 252 q 875 232 875 240 q 875 184 875 216 z "},"F":{"ha":898,"x_min":76,"x_max":852,"o":"m 850 712 q 844 700 849 705 q 842 699 844 699 q 842 699 842 699 q 838 696 841 697 q 836 693 837 694 q 836 692 836 693 q 833 692 834 692 q 833 690 833 692 q 830 690 831 690 q 830 689 830 689 q 829 688 829 689 q 827 684 827 686 q 825 678 827 681 q 821 669 823 674 q 819 663 819 667 q 818 658 819 661 q 814 655 815 654 q 812 656 812 655 q 812 656 812 656 q 811 661 811 658 q 811 667 810 662 q 810 674 811 671 q 808 678 810 677 q 803 677 807 681 q 798 665 800 674 q 795 659 796 663 q 792 654 795 654 q 789 659 789 654 q 787 667 789 665 q 780 662 785 667 q 758 646 773 656 q 715 612 738 632 q 663 591 692 590 q 639 602 650 591 q 616 620 627 613 q 590 628 604 627 q 566 635 576 629 q 549 643 557 637 q 534 652 541 647 q 517 662 526 658 q 500 673 509 667 q 488 678 495 675 q 476 684 483 682 q 461 684 469 685 q 445 684 453 684 q 438 684 442 684 q 430 685 435 685 q 442 690 452 685 q 416 681 433 697 q 416 605 416 655 q 422 583 418 600 q 731 583 499 583 q 769 586 747 583 q 807 578 792 587 q 817 568 812 574 q 821 560 819 564 q 823 552 822 556 q 825 525 826 538 q 823 500 823 511 q 823 388 823 463 q 825 359 823 373 q 823 330 826 345 q 818 316 821 321 q 803 301 814 308 q 800 281 802 292 q 798 259 800 271 q 798 231 796 250 q 792 220 799 212 q 787 244 787 228 q 787 273 787 262 q 787 275 788 285 q 783 212 780 244 q 780 146 784 178 q 777 119 779 136 q 774 110 776 102 q 772 180 772 141 q 769 248 772 218 q 768 247 769 251 q 764 240 766 243 q 754 229 758 232 q 750 228 753 228 q 749 227 749 228 q 746 164 747 206 q 746 81 746 123 q 743 19 746 41 q 738 22 743 16 q 734 24 736 23 q 731 26 731 24 q 728 88 730 47 q 728 168 728 127 q 726 229 728 209 q 720 233 726 229 q 712 243 718 236 q 711 208 711 225 q 708 174 711 190 q 703 164 708 170 q 688 136 693 151 q 665 98 680 123 q 659 90 662 94 q 654 80 656 84 q 651 75 652 79 q 648 73 648 71 q 647 129 647 95 q 644 195 646 163 q 643 251 644 231 q 642 252 643 254 q 637 250 639 251 q 627 247 632 250 q 620 245 618 243 q 616 241 623 247 q 609 236 613 239 q 600 229 604 232 q 597 195 597 213 q 593 161 595 179 q 590 137 591 155 q 587 129 589 121 q 583 172 582 152 q 582 217 585 194 q 575 237 581 232 q 575 241 575 239 q 571 240 574 241 q 560 241 568 241 q 556 244 559 243 q 555 243 555 245 q 553 198 553 228 q 552 134 553 170 q 551 72 552 102 q 548 27 551 43 q 547 30 548 26 q 543 35 545 34 q 534 47 538 42 q 526 61 530 54 q 488 140 505 99 q 480 163 483 152 q 472 184 476 174 q 467 198 469 191 q 461 214 463 206 q 458 244 460 229 q 457 273 458 258 q 449 277 454 274 q 448 264 448 271 q 445 252 448 258 q 442 256 444 250 q 439 266 441 263 q 431 279 437 273 q 422 293 427 288 q 411 315 411 315 q 414 304 411 315 q 416 288 418 294 q 416 98 416 224 q 418 64 416 81 q 416 31 419 46 q 415 28 416 34 q 415 24 414 23 q 415 24 415 24 q 414 23 415 23 q 407 12 412 18 q 396 4 403 7 q 391 -5 393 0 q 385 -15 388 -9 q 380 -23 382 -20 q 377 -31 380 -27 q 373 -37 377 -31 q 362 -57 368 -46 q 351 -79 357 -68 q 334 -123 342 -102 q 313 -165 326 -146 q 301 -187 309 -172 q 293 -199 297 -193 q 285 -212 289 -206 q 278 -220 283 -214 q 275 -221 277 -221 q 274 -224 274 -221 q 271 -285 271 -254 q 269 -347 271 -315 q 266 -387 267 -366 q 263 -426 266 -407 q 260 -427 263 -427 q 256 -426 258 -427 q 254 -384 255 -415 q 250 -315 251 -353 q 247 -252 248 -279 q 245 -222 245 -225 q 237 -209 240 -217 q 231 -194 233 -201 q 227 -182 229 -187 q 218 -155 224 -172 q 209 -122 213 -138 q 197 -91 205 -106 q 186 -66 193 -79 q 182 -60 184 -64 q 182 -58 182 -58 q 180 -57 180 -58 q 159 -31 171 -42 q 141 -14 153 -24 q 140 -34 138 -23 q 136 -53 140 -45 q 133 -49 134 -57 q 130 -38 132 -42 q 118 -8 126 -27 q 111 -7 113 -8 q 111 -4 107 -3 q 102 1 117 -4 q 92 7 96 4 q 76 38 76 18 q 76 913 76 330 q 76 936 76 924 q 83 958 76 947 q 100 970 88 966 q 106 971 103 971 q 115 972 110 972 q 780 972 336 972 q 815 972 804 972 q 815 972 815 972 q 841 962 826 972 q 852 932 852 949 q 852 780 852 882 q 852 758 852 769 q 852 749 852 754 q 852 734 852 742 q 852 719 852 728 q 850 716 852 718 q 850 712 850 713 z "},"G":{"ha":1046,"x_min":49,"x_max":998,"o":"m 936 157 q 930 149 933 153 q 924 141 926 144 q 914 130 918 136 q 905 119 910 125 q 892 109 899 114 q 879 96 886 103 q 873 92 876 94 q 872 90 873 91 q 871 90 869 88 q 864 75 865 80 q 863 72 863 73 q 854 53 859 62 q 848 34 852 43 q 846 30 848 31 q 841 15 845 22 q 834 0 837 7 q 830 -8 833 -3 q 822 -24 826 -16 q 810 -37 817 -33 q 814 -75 808 -52 q 821 -121 818 -99 q 822 -157 825 -142 q 804 -168 819 -171 q 785 -140 784 -164 q 793 -83 787 -115 q 799 -33 802 -53 q 796 -30 799 -33 q 793 -26 793 -26 q 792 -24 793 -24 q 792 -23 792 -24 q 788 -16 791 -22 q 783 -4 785 -9 q 774 7 779 1 q 773 8 773 7 q 765 4 770 7 q 764 4 765 4 q 762 -34 762 -15 q 760 -72 761 -53 q 758 -107 758 -84 q 758 -144 758 -130 q 754 -148 758 -160 q 749 -118 750 -132 q 749 -88 749 -103 q 745 -85 745 -88 q 745 -65 743 -76 q 749 -41 747 -53 q 749 -34 749 -38 q 747 -35 749 -33 q 745 -38 746 -38 q 741 -33 742 -35 q 739 -27 741 -30 q 736 -19 738 -26 q 732 -5 735 -12 q 726 -26 724 -11 q 731 -57 727 -41 q 734 -88 735 -75 q 731 -90 734 -90 q 728 -94 730 -91 q 726 -99 727 -95 q 722 -100 724 -103 q 720 -61 720 -80 q 719 -23 720 -42 q 712 -57 715 -39 q 701 -91 708 -75 q 697 -99 700 -95 q 690 -106 694 -104 q 678 -102 684 -110 q 673 -95 675 -99 q 670 -90 671 -91 q 648 -64 659 -76 q 628 -38 636 -52 q 627 -35 628 -37 q 627 -34 627 -35 q 625 -33 625 -34 q 625 -33 625 -33 q 623 -26 624 -30 q 620 -19 621 -22 q 617 -35 617 -26 q 614 -53 618 -45 q 612 -49 613 -54 q 609 -42 610 -45 q 605 -27 605 -34 q 600 -39 602 -34 q 590 -52 595 -46 q 578 -79 581 -61 q 576 -115 575 -96 q 570 -119 574 -115 q 564 -127 567 -123 q 560 -138 562 -132 q 560 -88 560 -111 q 560 -52 562 -64 q 547 -38 553 -46 q 536 -26 540 -31 q 530 -19 534 -23 q 526 -16 529 -19 q 519 -20 521 -14 q 518 -46 518 -34 q 515 -72 518 -60 q 513 -68 514 -75 q 511 -58 513 -61 q 507 -14 510 -43 q 506 -14 507 -14 q 266 33 366 -11 q 110 163 164 76 q 95 187 102 174 q 83 214 90 199 q 76 231 79 222 q 71 247 73 239 q 61 277 65 255 q 52 332 54 298 q 49 399 49 365 q 49 454 49 433 q 49 479 49 467 q 50 505 49 491 q 50 560 50 522 q 50 617 50 587 q 57 674 52 647 q 107 808 69 750 q 115 822 110 812 q 118 825 117 823 q 119 827 118 826 q 126 836 122 831 q 132 844 129 841 q 288 948 191 913 q 509 986 385 985 q 526 986 514 986 q 553 986 538 986 q 576 985 567 986 q 585 985 581 985 q 593 983 589 983 q 621 981 602 982 q 635 978 628 979 q 647 977 642 978 q 709 964 680 972 q 711 964 709 964 q 711 963 711 964 q 844 909 788 943 q 937 830 901 875 q 951 814 944 822 q 964 793 959 804 q 967 789 964 792 q 972 776 970 784 q 979 762 977 769 q 996 701 991 734 q 996 694 996 699 q 997 686 997 690 q 997 678 997 682 q 997 670 997 675 q 994 663 997 667 q 994 663 994 663 q 993 661 993 662 q 990 658 993 661 q 991 658 993 658 q 986 652 990 656 q 983 650 985 651 q 981 644 982 647 q 979 642 979 643 q 978 639 979 640 q 975 633 977 637 q 972 631 975 629 q 970 633 970 631 q 968 640 970 637 q 967 642 967 640 q 967 642 967 642 q 963 642 966 643 q 959 639 962 640 q 956 636 956 636 q 951 635 954 635 q 944 633 947 635 q 924 627 935 631 q 903 624 914 623 q 886 627 892 624 q 868 632 878 631 q 853 633 861 635 q 837 632 846 632 q 831 632 834 632 q 826 633 829 633 q 814 625 819 632 q 802 616 807 620 q 789 610 796 612 q 774 605 783 609 q 762 595 768 601 q 750 586 757 589 q 960 586 821 586 q 982 579 971 586 q 990 571 985 576 q 997 549 997 562 q 997 526 997 537 q 997 445 997 499 q 998 395 997 419 q 998 378 998 387 q 997 345 998 361 q 989 279 996 309 q 971 222 982 250 q 959 194 967 213 q 948 175 952 184 q 936 157 943 165 m 521 256 q 525 256 522 256 q 582 266 553 256 q 627 297 610 275 q 637 319 633 308 q 642 339 640 330 q 643 343 642 340 q 643 349 643 346 q 639 357 642 351 q 632 350 635 355 q 627 342 629 345 q 617 332 623 336 q 606 324 613 328 q 601 321 604 323 q 595 321 598 321 q 578 327 586 317 q 571 334 575 328 q 563 349 566 340 q 556 363 560 357 q 556 365 556 365 q 543 380 548 369 q 543 381 543 381 q 541 384 541 382 q 541 387 541 385 q 540 389 540 388 q 540 391 540 389 q 540 410 538 400 q 540 427 540 419 q 540 499 540 452 q 538 526 540 511 q 540 553 537 540 q 547 571 543 566 q 551 574 551 574 q 578 586 562 586 q 727 586 628 586 q 712 593 719 589 q 700 600 705 597 q 663 620 682 612 q 632 646 646 629 q 624 655 629 650 q 621 658 623 656 q 620 661 621 659 q 616 665 618 662 q 606 677 612 671 q 597 688 602 682 q 589 694 594 690 q 579 685 586 692 q 578 689 578 686 q 570 686 574 688 q 564 689 567 686 q 566 669 566 680 q 559 656 567 656 q 552 674 548 656 q 553 700 556 690 q 551 703 553 701 q 547 700 548 703 q 545 678 545 690 q 541 655 545 667 q 538 658 540 654 q 536 665 537 662 q 530 680 534 670 q 528 688 529 684 q 525 699 526 693 q 517 692 521 694 q 507 688 514 689 q 500 685 506 686 q 491 686 495 685 q 491 686 491 686 q 490 688 490 686 q 487 693 487 690 q 487 699 487 696 q 486 701 486 700 q 476 700 480 701 q 473 688 471 690 q 467 677 475 686 q 453 678 458 667 q 444 690 449 689 q 439 686 444 690 q 438 685 438 686 q 430 677 435 682 q 429 674 429 675 q 427 671 429 673 q 415 632 418 652 q 412 593 412 613 q 412 575 412 586 q 411 555 411 566 q 411 438 411 515 q 411 412 411 423 q 412 392 411 400 q 412 373 412 382 q 414 354 412 363 q 420 326 416 340 q 433 298 425 311 q 463 271 445 281 q 500 258 480 262 q 510 258 506 258 q 521 256 515 256 m 576 -115 q 583 -132 582 -117 q 583 -167 585 -148 q 581 -140 582 -153 q 576 -115 578 -127 m 564 -281 q 566 -288 566 -289 q 564 -282 566 -288 q 557 -244 562 -271 q 553 -190 555 -220 q 560 -138 553 -160 q 559 -221 559 -180 q 564 -281 559 -262 m 575 -270 q 574 -267 572 -282 q 579 -222 576 -251 q 583 -167 583 -193 q 590 -225 589 -197 q 575 -270 590 -254 z "},"H":{"ha":1073,"x_min":76,"x_max":998,"o":"m 996 90 q 998 65 997 77 q 998 57 998 61 q 997 42 998 49 q 997 34 997 38 q 994 24 996 30 q 993 22 993 23 q 991 19 993 20 q 990 16 990 18 q 975 4 985 8 q 970 -8 972 -1 q 964 -20 967 -15 q 960 -31 962 -30 q 958 -30 960 -33 q 956 -110 956 -64 q 952 -184 956 -157 q 958 -227 952 -203 q 947 -262 963 -250 q 943 -263 944 -263 q 939 -255 939 -263 q 940 -222 937 -241 q 941 -193 943 -205 q 940 -104 940 -156 q 935 -12 940 -53 q 933 -31 933 -22 q 930 -47 933 -39 q 925 -46 930 -46 q 918 -42 924 -45 q 914 -38 914 -39 q 911 -30 913 -34 q 911 -20 911 -24 q 902 -34 907 -27 q 894 -42 898 -39 q 886 -47 891 -45 q 884 -54 884 -50 q 880 -61 883 -58 q 876 -73 879 -66 q 869 -83 872 -79 q 867 -90 868 -84 q 864 -94 865 -95 q 861 -75 861 -83 q 859 -57 861 -65 q 856 -54 859 -54 q 853 -56 853 -54 q 850 -75 850 -65 q 848 -94 850 -84 q 845 -91 846 -96 q 841 -83 844 -84 q 834 -69 837 -75 q 830 -56 833 -64 q 823 -43 826 -49 q 821 -37 822 -39 q 819 -37 818 -34 q 814 -30 819 -37 q 804 -18 808 -22 q 804 -16 804 -18 q 803 -18 803 -16 q 800 -52 800 -35 q 798 -85 800 -69 q 787 -85 798 -85 q 780 -85 780 -85 q 779 -53 776 -62 q 772 -20 780 -45 q 758 -54 757 -33 q 757 -95 760 -76 q 755 -115 755 -102 q 751 -122 754 -129 q 747 -83 747 -103 q 746 -45 749 -64 q 741 -46 746 -46 q 732 -42 738 -45 q 731 -43 732 -43 q 731 -46 731 -45 q 727 -41 731 -47 q 720 -35 722 -35 q 719 -34 720 -34 q 708 -33 716 -33 q 705 -30 707 -33 q 703 -30 703 -27 q 700 -72 700 -52 q 696 -114 700 -94 q 693 -109 696 -119 q 690 -94 692 -99 q 689 -53 689 -73 q 685 -15 690 -34 q 685 -24 684 -8 q 680 -49 686 -42 q 677 -43 677 -53 q 674 -27 677 -34 q 670 -8 673 -22 q 667 -1 669 -4 q 663 5 667 3 q 655 15 658 11 q 650 26 651 20 q 650 30 650 27 q 648 33 648 31 q 648 72 647 52 q 648 111 648 94 q 648 321 648 180 q 648 372 648 369 q 648 362 648 374 q 647 342 648 353 q 643 338 646 332 q 640 334 642 336 q 633 326 637 332 q 624 315 629 320 q 616 302 620 309 q 562 227 597 277 q 552 216 557 222 q 540 205 547 210 q 533 168 534 191 q 529 137 530 146 q 529 123 528 132 q 522 111 529 114 q 517 119 517 110 q 517 134 518 129 q 515 170 515 153 q 513 206 515 187 q 505 214 509 209 q 505 214 505 214 q 503 216 505 216 q 495 229 500 220 q 477 264 484 245 q 458 300 469 282 q 454 307 457 301 q 431 330 445 320 q 429 332 431 330 q 425 338 429 334 q 423 338 423 338 q 423 327 423 338 q 423 113 423 255 q 425 79 423 96 q 425 46 425 62 q 425 35 425 41 q 422 24 425 31 q 419 19 419 19 q 415 14 418 16 q 403 4 407 5 q 400 1 403 4 q 396 -7 396 -4 q 397 -5 396 -7 q 399 -5 399 -4 q 399 -7 400 -5 q 399 -8 399 -7 q 397 -8 399 -8 q 395 -11 397 -8 q 392 -15 395 -12 q 377 -27 387 -20 q 358 -34 368 -35 q 345 -31 345 -31 q 351 -31 346 -31 q 361 -31 357 -33 q 353 -30 363 -31 q 350 -28 351 -30 q 346 -27 349 -27 q 342 -31 345 -27 q 336 -34 339 -35 q 326 -22 332 -30 q 323 -19 326 -16 q 321 -35 316 -22 q 317 -46 326 -47 q 316 -28 311 -43 q 312 -15 321 -14 q 309 -24 308 -15 q 312 -41 311 -34 q 308 -47 313 -49 q 302 -35 301 -45 q 302 -18 302 -24 q 297 -20 300 -18 q 282 -33 289 -26 q 270 -46 277 -39 q 252 -66 264 -53 q 250 -73 251 -68 q 247 -76 248 -77 q 244 -49 244 -62 q 241 -20 244 -35 q 237 -23 240 -22 q 231 -26 233 -23 q 228 -37 229 -31 q 225 -46 228 -42 q 222 -45 224 -47 q 220 -41 221 -42 q 213 -31 217 -38 q 203 -24 209 -23 q 195 -30 197 -26 q 186 -34 193 -34 q 170 -26 176 -34 q 156 -15 164 -19 q 152 -24 146 -14 q 148 -64 157 -37 q 144 -61 146 -65 q 141 -56 142 -57 q 138 -50 140 -53 q 136 -46 137 -49 q 126 -27 130 -38 q 118 -8 122 -18 q 102 1 113 -5 q 96 4 102 1 q 80 19 83 11 q 77 31 77 26 q 76 41 76 37 q 76 935 76 339 q 85 960 76 949 q 90 963 88 963 q 92 966 91 964 q 94 966 94 966 q 95 967 94 967 q 109 971 102 971 q 122 972 115 972 q 353 972 199 972 q 369 972 359 972 q 374 972 372 972 q 387 972 381 972 q 422 943 418 972 q 425 917 425 930 q 423 890 423 903 q 423 659 423 814 q 429 643 425 655 q 648 643 484 643 q 648 890 648 705 q 647 917 648 903 q 650 945 646 932 q 686 972 656 972 q 704 972 694 974 q 719 972 712 972 q 959 972 799 972 q 971 970 967 972 q 981 966 975 968 q 996 940 993 958 q 997 914 998 928 q 996 888 996 901 q 996 90 996 623 m 327 -41 q 326 -26 323 -38 q 334 -41 328 -33 q 340 -52 340 -50 q 327 -41 340 -54 z "},"I":{"ha":511,"x_min":75,"x_max":438,"o":"m 435 104 q 437 68 435 85 q 437 54 437 61 q 435 31 437 42 q 434 28 435 30 q 433 24 433 27 q 415 4 429 14 q 408 -11 411 -3 q 401 -24 406 -18 q 399 -33 401 -26 q 392 -38 396 -39 q 385 -26 387 -35 q 382 -16 384 -18 q 378 -20 381 -18 q 372 -27 374 -23 q 365 -35 368 -33 q 353 -53 361 -41 q 346 -65 350 -58 q 336 -75 342 -72 q 334 -83 335 -79 q 331 -94 334 -88 q 328 -100 330 -96 q 324 -107 327 -104 q 321 -109 324 -109 q 317 -109 320 -110 q 316 -94 316 -102 q 313 -76 315 -84 q 312 -71 312 -73 q 308 -66 311 -68 q 302 -61 305 -64 q 297 -56 300 -58 q 290 -50 293 -52 q 279 -49 283 -50 q 275 -65 278 -54 q 273 -71 274 -66 q 270 -73 271 -75 q 267 -61 267 -68 q 266 -49 269 -54 q 264 -49 264 -49 q 263 -50 264 -50 q 256 -57 263 -52 q 256 -57 256 -57 q 255 -58 255 -57 q 255 -60 255 -58 q 247 -65 254 -61 q 245 -99 245 -81 q 243 -132 244 -115 q 237 -212 240 -163 q 227 -293 233 -262 q 224 -307 225 -300 q 221 -320 224 -312 q 216 -327 217 -327 q 216 -327 216 -327 q 210 -319 212 -324 q 209 -311 210 -313 q 206 -292 208 -300 q 203 -273 205 -282 q 201 -220 201 -251 q 199 -156 199 -187 q 197 -103 199 -123 q 197 -109 197 -96 q 194 -134 195 -122 q 191 -142 194 -149 q 187 -107 186 -119 q 182 -62 189 -95 q 176 -56 179 -60 q 170 -49 172 -53 q 151 -27 163 -42 q 144 -22 148 -24 q 137 -16 140 -19 q 127 -12 132 -12 q 123 -12 123 -12 q 125 -37 122 -22 q 119 -49 127 -52 q 114 -33 110 -46 q 114 -9 118 -18 q 110 -3 110 0 q 111 -11 110 -5 q 113 -16 113 -16 q 107 0 113 -15 q 103 1 106 1 q 99 3 102 1 q 76 39 76 12 q 76 57 76 47 q 76 68 76 62 q 76 95 76 81 q 76 907 76 365 q 76 921 76 914 q 76 936 75 929 q 79 949 76 941 q 83 958 81 956 q 90 964 85 962 q 96 968 94 967 q 102 970 99 970 q 107 971 104 971 q 118 974 113 974 q 129 974 123 974 q 148 972 137 974 q 164 972 157 972 q 381 972 236 972 q 395 972 388 972 q 410 971 403 974 q 412 970 411 970 q 415 968 414 970 q 429 954 423 966 q 435 939 431 949 q 437 910 438 925 q 435 884 435 895 q 435 104 435 624 z "},"J":{"ha":975,"x_min":14,"x_max":909,"o":"m 662 -203 q 656 -205 659 -205 q 644 -198 650 -205 q 631 -182 636 -189 q 627 -178 629 -179 q 625 -172 625 -175 q 623 -100 624 -140 q 620 -30 623 -60 q 613 -45 617 -38 q 606 -60 610 -53 q 604 -65 604 -65 q 602 -68 602 -66 q 601 -71 602 -69 q 598 -76 598 -76 q 587 -91 594 -85 q 582 -94 582 -94 q 585 -148 579 -119 q 576 -198 590 -175 q 568 -194 570 -212 q 570 -152 568 -178 q 571 -111 572 -125 q 567 -85 571 -96 q 567 -85 567 -85 q 566 -84 567 -84 q 555 -73 562 -81 q 552 -77 553 -75 q 548 -80 551 -79 q 545 -83 547 -81 q 543 -88 543 -84 q 545 -125 541 -104 q 551 -163 551 -144 q 537 -193 552 -180 q 526 -184 526 -203 q 530 -138 526 -167 q 532 -98 534 -113 q 530 -98 532 -96 q 526 -100 528 -99 q 510 -95 517 -102 q 499 -79 503 -88 q 496 -71 498 -76 q 494 -68 496 -65 q 491 -91 490 -75 q 488 -100 491 -107 q 486 -79 484 -85 q 486 -64 486 -72 q 480 -37 486 -56 q 476 -33 479 -35 q 464 -20 468 -23 q 461 -23 463 -20 q 458 -26 461 -24 q 450 -22 456 -27 q 442 -14 445 -15 q 213 38 317 -11 q 54 178 107 88 q 47 189 50 182 q 42 201 45 194 q 20 267 27 232 q 18 283 19 275 q 15 298 16 292 q 15 308 15 302 q 14 316 14 312 q 14 334 14 323 q 39 357 18 353 q 58 358 49 358 q 77 357 68 357 q 278 357 144 357 q 308 358 293 357 q 336 357 323 359 q 357 350 347 355 q 377 330 370 342 q 387 311 382 320 q 396 293 391 301 q 400 286 397 290 q 463 256 423 256 q 476 258 469 256 q 488 259 483 258 q 495 263 495 263 q 507 271 502 266 q 532 311 522 285 q 544 359 541 336 q 547 381 545 370 q 547 400 547 391 q 547 669 547 490 q 548 678 547 682 q 541 690 548 675 q 536 684 538 689 q 530 677 532 678 q 511 647 521 662 q 491 617 503 632 q 476 598 484 604 q 471 595 471 595 q 465 595 465 595 q 463 633 463 616 q 460 673 463 652 q 449 658 454 667 q 419 606 430 633 q 393 553 407 581 q 366 505 381 528 q 334 460 353 480 q 327 450 331 454 q 315 439 323 446 q 311 437 312 438 q 305 431 308 435 q 300 414 301 423 q 294 396 297 404 q 289 385 293 393 q 278 378 285 377 q 264 395 269 381 q 254 418 259 408 q 252 419 252 418 q 243 431 247 425 q 233 446 237 439 q 225 463 231 452 q 216 481 220 472 q 208 500 212 490 q 206 505 206 502 q 191 533 198 519 q 178 560 184 545 q 161 600 170 579 q 142 640 153 621 q 134 656 140 646 q 125 677 129 667 q 113 697 119 688 q 104 705 110 700 q 100 712 102 711 q 99 715 100 713 q 99 716 99 715 q 96 741 95 728 q 98 765 98 754 q 98 913 98 814 q 98 930 98 921 q 99 947 98 939 q 111 964 103 960 q 111 966 111 966 q 113 966 113 966 q 138 972 123 974 q 168 972 155 972 q 830 972 389 972 q 845 972 837 972 q 860 974 853 974 q 878 971 867 974 q 899 958 892 968 q 907 930 906 945 q 909 918 909 925 q 909 907 909 913 q 907 891 909 901 q 907 872 907 882 q 907 347 907 697 q 906 326 907 336 q 905 302 906 313 q 903 301 905 301 q 903 297 903 300 q 898 256 902 275 q 886 227 892 237 q 879 209 883 217 q 871 190 875 199 q 836 134 856 161 q 819 115 827 125 q 799 95 810 106 q 789 88 793 92 q 784 81 785 83 q 774 61 777 72 q 766 39 770 50 q 745 -18 755 18 q 722 -88 734 -53 q 699 -144 711 -123 q 685 -178 693 -159 q 662 -203 678 -195 z "},"K":{"ha":993,"x_min":75,"x_max":990,"o":"m 990 24 q 981 8 989 16 q 977 5 978 5 q 974 1 977 4 q 967 -12 971 -5 q 960 -26 963 -19 q 951 -42 958 -31 q 921 -104 936 -71 q 895 -165 907 -138 q 891 -182 894 -174 q 886 -197 888 -189 q 878 -218 883 -205 q 871 -233 875 -228 q 863 -244 867 -239 q 861 -245 863 -245 q 860 -247 861 -245 q 859 -247 860 -247 q 857 -248 859 -247 q 856 -248 857 -248 q 844 -270 842 -264 q 850 -277 845 -275 q 859 -285 857 -279 q 846 -305 861 -290 q 841 -312 842 -313 q 837 -305 837 -309 q 834 -296 836 -300 q 833 -278 833 -288 q 830 -262 833 -270 q 829 -263 829 -263 q 826 -266 827 -263 q 823 -270 825 -267 q 819 -275 822 -273 q 819 -275 819 -275 q 818 -277 819 -277 q 815 -283 818 -278 q 808 -297 812 -289 q 800 -309 806 -304 q 795 -312 798 -312 q 789 -313 795 -313 q 788 -313 788 -313 q 787 -312 788 -312 q 785 -311 787 -312 q 783 -307 785 -308 q 779 -302 780 -305 q 777 -301 776 -298 q 776 -297 776 -298 q 773 -294 774 -296 q 768 -281 772 -290 q 765 -275 766 -278 q 762 -271 764 -273 q 755 -258 760 -267 q 739 -235 747 -245 q 727 -209 732 -222 q 718 -187 724 -201 q 708 -155 712 -172 q 699 -118 703 -136 q 693 -99 696 -109 q 688 -80 690 -91 q 675 -49 684 -71 q 673 -43 674 -46 q 670 -39 671 -41 q 651 -14 662 -24 q 648 -23 651 -20 q 646 -22 647 -24 q 643 -18 644 -19 q 633 -8 640 -15 q 633 -9 633 -8 q 644 -20 639 -15 q 633 -11 648 -26 q 632 -18 632 -14 q 631 -26 632 -22 q 628 -80 629 -47 q 628 -148 628 -114 q 625 -201 628 -180 q 623 -201 625 -203 q 620 -198 620 -199 q 613 -95 613 -155 q 604 7 614 -37 q 601 9 601 9 q 601 11 601 11 q 600 12 600 11 q 600 14 600 12 q 598 14 600 14 q 589 26 595 18 q 589 27 589 26 q 587 27 589 27 q 585 34 586 31 q 582 39 583 37 q 581 42 581 39 q 579 42 579 42 q 579 43 579 43 q 564 72 572 57 q 548 100 556 85 q 529 132 538 114 q 509 170 519 151 q 507 171 509 171 q 507 174 507 172 q 480 221 494 197 q 454 267 468 244 q 442 289 449 278 q 429 311 437 300 q 426 316 427 313 q 422 326 425 320 q 420 328 420 327 q 416 324 419 327 q 416 43 416 254 q 415 24 416 31 q 410 15 416 26 q 410 15 416 22 q 400 5 403 7 q 397 -14 399 -4 q 396 -35 397 -23 q 393 -49 395 -42 q 391 -62 393 -56 q 388 -68 389 -64 q 385 -72 388 -71 q 380 -68 382 -73 q 373 -56 377 -64 q 368 -41 369 -45 q 362 -27 366 -38 q 359 -20 361 -26 q 351 -14 357 -15 q 346 -19 350 -16 q 331 -46 338 -31 q 327 -60 330 -50 q 307 -132 313 -91 q 289 -205 298 -172 q 288 -208 288 -206 q 286 -213 288 -210 q 279 -240 283 -227 q 269 -267 275 -254 q 263 -279 266 -275 q 252 -289 259 -288 q 245 -290 251 -290 q 250 -339 244 -305 q 258 -406 254 -372 q 259 -458 263 -439 q 251 -472 258 -472 q 241 -468 247 -472 q 224 -433 227 -457 q 224 -381 221 -410 q 233 -327 228 -353 q 236 -285 237 -300 q 236 -283 236 -283 q 235 -282 235 -283 q 232 -279 233 -282 q 232 -279 231 -277 q 227 -271 232 -279 q 218 -252 222 -262 q 212 -233 214 -243 q 199 -199 206 -217 q 187 -167 194 -183 q 167 -114 178 -138 q 141 -56 157 -91 q 137 -45 138 -50 q 132 -35 134 -41 q 122 -15 127 -24 q 119 -9 119 -9 q 117 -4 117 -4 q 113 -1 115 -1 q 102 1 110 0 q 92 7 96 4 q 76 38 76 18 q 76 895 76 324 q 76 910 76 903 q 75 925 75 918 q 76 933 75 929 q 76 939 76 936 q 79 948 76 943 q 92 966 83 962 q 100 970 95 967 q 106 971 102 971 q 130 974 117 974 q 138 974 134 974 q 171 972 157 972 q 369 974 237 972 q 381 972 378 974 q 401 966 392 972 q 410 958 404 963 q 415 945 412 954 q 415 943 415 945 q 416 936 416 941 q 418 928 418 932 q 418 921 418 924 q 418 914 418 918 q 418 890 418 903 q 416 867 416 878 q 416 659 416 798 q 420 667 418 662 q 422 669 420 669 q 422 671 422 670 q 425 675 425 674 q 429 682 426 677 q 438 699 431 686 q 469 755 453 726 q 502 812 484 785 q 509 827 506 819 q 517 844 513 836 q 528 861 522 853 q 537 878 532 871 q 538 880 537 879 q 538 880 538 880 q 560 918 545 892 q 572 941 567 929 q 589 960 579 952 q 618 971 600 970 q 632 972 625 972 q 644 974 639 974 q 652 972 648 974 q 658 972 655 972 q 914 972 743 972 q 929 972 921 972 q 943 972 936 974 q 962 960 954 970 q 967 940 968 951 q 964 928 967 936 q 952 909 960 921 q 951 907 951 909 q 951 907 951 907 q 948 903 948 905 q 939 886 943 894 q 929 869 933 878 q 842 724 901 821 q 827 696 833 709 q 808 658 818 677 q 788 625 799 640 q 766 597 776 606 q 761 589 764 591 q 754 576 758 583 q 746 563 750 570 q 739 552 743 557 q 732 538 735 545 q 719 518 728 532 q 718 517 719 518 q 716 513 719 519 q 712 507 712 507 q 719 496 715 503 q 720 494 720 495 q 722 490 720 491 q 726 487 724 488 q 731 477 727 484 q 734 472 731 475 q 736 467 736 469 q 751 442 741 458 q 764 422 758 431 q 774 403 769 412 q 793 380 787 392 q 821 339 808 365 q 846 286 833 313 q 854 270 850 278 q 864 252 859 262 q 935 132 887 213 q 948 111 941 122 q 960 91 954 102 q 970 75 963 88 q 977 64 972 69 q 983 52 981 58 q 987 45 985 49 q 989 42 987 43 q 989 38 989 41 q 990 31 990 37 q 990 24 990 28 z "},"L":{"ha":869,"x_min":75,"x_max":853,"o":"m 852 62 q 852 54 852 58 q 853 46 853 50 q 852 35 853 41 q 850 24 852 31 q 846 18 849 23 q 844 15 846 16 q 842 12 842 12 q 831 4 836 7 q 830 3 830 3 q 827 1 829 3 q 821 -7 823 -3 q 811 -14 817 -11 q 806 -19 808 -16 q 798 -23 804 -20 q 785 -27 792 -24 q 773 -30 779 -31 q 766 -23 768 -26 q 762 -16 765 -20 q 757 -11 761 -15 q 755 -22 751 -14 q 753 -57 760 -31 q 742 -72 749 -62 q 738 -77 741 -73 q 736 -79 736 -81 q 734 -50 734 -65 q 732 -20 735 -35 q 731 -22 731 -20 q 731 -22 731 -22 q 724 -31 728 -26 q 716 -38 719 -35 q 709 -45 715 -39 q 708 -45 708 -45 q 707 -46 708 -46 q 693 -60 701 -53 q 680 -73 686 -66 q 671 -79 677 -76 q 667 -148 669 -110 q 663 -217 667 -184 q 663 -217 663 -217 q 661 -214 663 -217 q 658 -210 658 -212 q 655 -142 655 -178 q 652 -76 655 -107 q 642 -61 646 -69 q 637 -50 639 -56 q 632 -41 635 -46 q 628 -33 631 -38 q 625 -33 627 -33 q 621 -33 624 -34 q 620 -34 620 -31 q 617 -100 617 -64 q 614 -168 617 -136 q 602 -171 610 -170 q 600 -171 601 -171 q 597 -172 598 -172 q 591 -174 591 -172 q 589 -103 589 -141 q 586 -35 589 -65 q 575 -35 586 -35 q 571 -39 574 -37 q 570 -39 571 -39 q 568 -41 570 -41 q 559 -50 564 -43 q 553 -61 556 -53 q 549 -68 552 -64 q 547 -73 547 -71 q 545 -130 545 -102 q 541 -186 544 -159 q 536 -210 541 -199 q 532 -209 534 -212 q 529 -206 529 -208 q 528 -142 526 -174 q 524 -80 528 -111 q 524 -87 524 -73 q 521 -113 522 -100 q 518 -119 521 -125 q 514 -85 513 -103 q 514 -52 517 -68 q 511 -49 513 -50 q 509 -46 510 -47 q 503 -39 506 -43 q 498 -34 500 -37 q 491 -26 495 -30 q 486 -19 488 -22 q 479 -11 484 -16 q 477 -26 477 -18 q 475 -41 477 -34 q 473 -42 475 -42 q 469 -45 471 -43 q 467 -46 468 -46 q 464 -50 465 -47 q 458 -54 458 -56 q 456 -35 456 -45 q 454 -18 457 -26 q 446 -28 450 -23 q 437 -38 442 -34 q 423 -47 427 -46 q 422 -62 422 -54 q 419 -76 420 -69 q 418 -85 418 -80 q 414 -95 416 -91 q 407 -96 408 -100 q 400 -69 403 -90 q 397 -46 399 -49 q 393 -45 396 -46 q 393 -43 392 -43 q 391 -41 392 -42 q 381 -27 385 -35 q 374 -14 378 -19 q 374 -12 374 -12 q 373 -11 373 -12 q 372 -24 372 -18 q 369 -39 372 -33 q 366 -41 368 -41 q 363 -45 365 -42 q 361 -50 362 -46 q 358 -53 359 -54 q 357 -37 357 -45 q 354 -20 355 -27 q 349 -31 351 -26 q 342 -42 346 -37 q 312 -85 327 -64 q 286 -132 298 -109 q 283 -137 288 -129 q 274 -153 279 -146 q 273 -155 273 -153 q 264 -160 270 -157 q 262 -168 263 -164 q 258 -179 262 -174 q 256 -186 256 -182 q 252 -193 255 -190 q 247 -194 250 -197 q 241 -172 243 -189 q 237 -155 239 -156 q 229 -146 235 -152 q 227 -142 229 -142 q 222 -134 225 -137 q 220 -132 220 -132 q 209 -114 214 -123 q 197 -98 203 -106 q 180 -72 189 -84 q 161 -47 171 -60 q 151 -34 156 -41 q 138 -22 146 -27 q 130 -14 134 -18 q 125 -9 125 -9 q 123 -8 125 -9 q 118 -4 121 -5 q 117 -66 117 -24 q 115 -151 117 -109 q 114 -213 115 -191 q 113 -210 114 -214 q 111 -205 111 -206 q 109 -102 107 -146 q 102 1 111 -57 q 90 9 94 5 q 76 34 79 18 q 75 54 75 43 q 75 65 75 60 q 76 95 76 80 q 76 907 76 365 q 76 921 76 914 q 76 936 75 929 q 79 949 76 941 q 83 958 81 956 q 90 964 85 962 q 96 968 94 967 q 102 970 99 970 q 107 971 104 971 q 118 974 113 974 q 129 974 123 974 q 148 972 137 974 q 164 972 157 972 q 374 972 235 972 q 389 972 382 972 q 404 971 397 974 q 414 966 411 970 q 418 962 416 963 q 427 947 426 956 q 429 929 429 937 q 430 871 430 901 q 429 812 429 842 q 429 296 429 640 q 435 285 430 293 q 814 285 529 285 q 836 278 825 285 q 845 270 838 275 q 849 262 845 267 q 852 250 852 255 q 852 229 853 240 q 852 209 852 218 q 852 62 852 160 z "},"M":{"ha":1190,"x_min":76,"x_max":1115,"o":"m 1112 31 q 1111 27 1111 30 q 1109 23 1111 24 q 1107 18 1107 18 q 1103 11 1105 12 q 1097 7 1100 9 q 1092 3 1096 5 q 1085 -33 1088 -15 q 1081 -68 1084 -50 q 1078 -90 1080 -75 q 1076 -96 1078 -103 q 1072 -60 1072 -77 q 1069 -23 1073 -42 q 1067 -24 1069 -22 q 1063 -26 1065 -26 q 1057 -31 1061 -27 q 1047 -33 1053 -34 q 1043 -30 1046 -33 q 1020 -19 1032 -30 q 1019 -30 1019 -23 q 1016 -39 1020 -37 q 1010 -35 1010 -42 q 1009 -23 1010 -27 q 1009 -12 1009 -23 q 996 -5 1008 0 q 993 -9 994 -7 q 986 -16 990 -12 q 977 -26 982 -22 q 972 -31 975 -27 q 968 -38 971 -35 q 960 -37 964 -41 q 954 -33 958 -34 q 948 -34 952 -33 q 943 -38 943 -37 q 943 -38 943 -38 q 941 -39 941 -38 q 939 -42 941 -39 q 926 -65 930 -52 q 917 -90 922 -77 q 910 -102 914 -95 q 901 -114 907 -110 q 898 -151 899 -132 q 894 -186 898 -168 q 892 -198 892 -190 q 888 -203 891 -208 q 884 -186 884 -194 q 883 -167 884 -176 q 882 -137 882 -152 q 879 -110 882 -123 q 867 -98 871 -103 q 854 -79 861 -90 q 842 -60 849 -69 q 831 -42 836 -50 q 821 -24 826 -34 q 817 -19 819 -22 q 812 -12 815 -18 q 811 -12 812 -12 q 807 -7 810 -12 q 803 4 806 0 q 807 0 810 -3 q 800 8 806 3 q 795 14 796 14 q 793 15 793 15 q 789 22 792 18 q 788 24 789 23 q 788 26 788 24 q 785 52 784 38 q 787 77 787 66 q 787 407 787 187 q 788 385 787 384 q 791 397 789 387 q 791 416 792 408 q 784 412 789 423 q 777 404 781 410 q 776 400 774 401 q 773 397 776 400 q 773 396 773 397 q 772 395 772 396 q 760 373 765 385 q 746 351 753 362 q 724 313 735 334 q 700 277 712 294 q 696 269 699 273 q 690 262 693 264 q 681 250 686 255 q 670 241 677 244 q 666 237 669 240 q 659 228 663 235 q 655 227 658 227 q 654 180 654 212 q 651 113 652 149 q 651 45 651 76 q 648 -1 650 14 q 646 -3 648 -3 q 643 -1 643 -3 q 642 60 642 18 q 640 144 640 102 q 637 213 640 187 q 633 217 637 213 q 632 216 633 216 q 632 214 632 216 q 631 214 632 214 q 628 209 631 212 q 621 198 625 203 q 612 190 617 193 q 610 172 609 183 q 604 163 612 161 q 600 176 597 165 q 600 194 602 186 q 594 201 597 197 q 589 208 591 206 q 585 212 585 212 q 582 199 583 206 q 578 191 579 194 q 574 209 578 198 q 571 205 571 206 q 568 201 571 205 q 563 191 566 197 q 557 182 560 186 q 552 178 556 180 q 545 175 548 174 q 541 179 543 176 q 537 182 540 180 q 528 203 530 189 q 524 221 525 213 q 518 240 521 231 q 509 248 513 243 q 502 256 506 252 q 495 269 499 260 q 472 305 483 286 q 450 342 461 324 q 438 362 446 349 q 430 373 433 368 q 422 385 426 380 q 418 393 420 388 q 415 399 416 396 q 411 404 414 401 q 411 406 411 406 q 410 407 410 406 q 407 410 410 407 q 404 420 407 416 q 403 412 403 423 q 403 60 403 294 q 403 45 403 53 q 403 31 404 38 q 401 28 403 34 q 401 24 400 23 q 395 14 400 19 q 387 5 392 11 q 384 -7 385 0 q 381 -19 384 -12 q 374 -54 378 -38 q 365 -91 370 -72 q 361 -104 363 -95 q 355 -118 358 -114 q 343 -113 347 -126 q 338 -99 339 -100 q 332 -76 335 -88 q 327 -52 330 -64 q 326 -38 326 -45 q 323 -24 326 -31 q 315 -31 320 -27 q 307 -38 311 -35 q 304 -92 304 -64 q 300 -149 302 -121 q 297 -148 300 -151 q 294 -142 294 -144 q 286 -104 282 -122 q 294 -69 290 -88 q 288 -33 300 -52 q 285 -26 286 -30 q 281 -20 283 -23 q 278 -20 278 -20 q 275 -65 275 -43 q 273 -107 275 -85 q 267 -107 273 -107 q 262 -106 262 -107 q 259 -64 259 -84 q 255 -19 258 -42 q 248 -19 254 -19 q 247 -18 248 -19 q 244 -18 244 -18 q 243 -53 243 -37 q 240 -90 243 -71 q 235 -84 240 -91 q 229 -80 229 -81 q 227 -52 227 -65 q 225 -23 227 -38 q 222 -27 224 -24 q 222 -27 221 -31 q 217 -37 221 -33 q 213 -39 216 -38 q 208 -45 210 -42 q 201 -62 203 -53 q 195 -80 199 -71 q 194 -84 194 -81 q 190 -91 193 -88 q 184 -91 187 -94 q 178 -71 179 -84 q 174 -53 176 -57 q 161 -35 167 -46 q 151 -11 157 -24 q 149 -16 149 -14 q 148 -20 149 -18 q 141 -20 146 -22 q 136 -18 136 -18 q 127 -12 130 -15 q 129 -22 129 -15 q 123 -45 129 -30 q 121 -54 122 -50 q 118 -64 119 -58 q 117 -111 117 -79 q 117 -180 117 -144 q 117 -251 117 -218 q 114 -298 117 -283 q 113 -307 113 -307 q 111 -302 113 -307 q 111 -270 111 -293 q 111 -221 111 -245 q 111 -182 111 -195 q 110 -113 110 -140 q 109 -60 110 -85 q 102 1 107 -35 q 92 7 96 4 q 76 38 76 18 q 76 935 76 336 q 88 962 76 949 q 118 972 99 972 q 305 972 180 972 q 335 972 321 972 q 338 972 336 972 q 361 967 350 972 q 385 947 377 960 q 401 921 395 935 q 407 914 404 918 q 410 907 408 911 q 416 895 412 903 q 441 860 429 880 q 464 818 453 841 q 513 738 480 791 q 544 686 529 712 q 575 635 560 659 q 582 623 578 629 q 589 610 586 617 q 594 601 591 606 q 600 612 595 604 q 606 624 602 618 q 614 635 612 629 q 639 675 627 654 q 663 716 651 696 q 674 734 667 722 q 674 735 674 735 q 675 736 675 735 q 678 739 675 736 q 726 818 693 765 q 727 819 727 818 q 727 819 727 819 q 749 860 738 841 q 770 894 761 879 q 779 909 773 899 q 792 930 787 920 q 807 949 799 940 q 807 951 807 949 q 808 951 807 951 q 827 967 815 962 q 854 972 841 974 q 883 972 869 972 q 1076 972 947 972 q 1088 970 1084 972 q 1097 966 1092 968 q 1112 937 1109 958 q 1114 917 1114 928 q 1112 895 1112 906 q 1112 99 1112 631 q 1114 65 1112 81 q 1115 53 1115 58 q 1112 31 1115 42 z "},"N":{"ha":1028,"x_min":76,"x_max":954,"o":"m 951 31 q 948 20 949 24 q 941 11 945 16 q 939 8 944 12 q 933 4 932 3 q 932 4 932 4 q 930 3 930 3 q 928 -23 928 -11 q 925 -50 926 -37 q 920 -99 924 -72 q 914 -149 917 -126 q 909 -183 913 -163 q 903 -217 906 -203 q 901 -225 902 -221 q 898 -232 901 -229 q 895 -233 898 -233 q 892 -232 892 -233 q 890 -225 890 -229 q 887 -220 888 -222 q 880 -189 883 -208 q 875 -159 878 -170 q 867 -85 869 -126 q 859 -14 865 -45 q 857 -28 857 -20 q 854 -43 857 -37 q 849 -46 853 -46 q 844 -50 846 -47 q 840 -52 842 -50 q 837 -53 837 -54 q 836 -39 836 -46 q 833 -24 834 -33 q 831 -27 833 -26 q 829 -34 830 -31 q 826 -39 827 -37 q 826 -39 826 -39 q 825 -42 825 -41 q 821 -46 825 -42 q 815 -52 817 -52 q 810 -54 812 -54 q 807 -98 808 -76 q 804 -140 807 -119 q 802 -141 804 -141 q 798 -140 799 -141 q 796 -107 796 -117 q 796 -94 796 -99 q 795 -79 796 -90 q 788 -46 793 -69 q 773 -27 780 -38 q 772 -24 772 -26 q 770 -22 772 -23 q 765 -14 769 -19 q 764 -9 764 -11 q 762 -5 764 -7 q 760 -9 762 -9 q 754 -7 760 -9 q 750 -15 753 -11 q 743 -22 747 -19 q 739 -24 741 -24 q 736 -35 736 -27 q 732 -41 736 -42 q 728 -33 728 -39 q 727 -22 730 -26 q 720 -16 724 -20 q 712 -7 719 -14 q 711 -8 712 -8 q 707 -5 712 -8 q 700 -1 700 -1 q 693 -4 700 -1 q 682 -12 688 -8 q 671 -11 677 -15 q 665 -4 665 -8 q 661 5 663 0 q 647 18 654 11 q 636 34 642 24 q 625 50 631 43 q 618 61 623 54 q 612 71 616 65 q 605 79 609 75 q 600 88 602 83 q 594 98 597 92 q 586 110 591 102 q 562 140 574 122 q 537 179 551 159 q 514 214 526 194 q 490 255 502 235 q 435 339 472 283 q 415 366 423 353 q 412 372 414 369 q 408 377 411 374 q 406 382 406 382 q 403 387 403 387 q 403 381 403 388 q 403 65 403 275 q 403 47 403 57 q 403 31 404 39 q 401 28 403 34 q 401 24 400 23 q 400 23 401 23 q 400 22 400 22 q 399 20 400 20 q 399 19 399 20 q 397 18 399 18 q 397 16 397 18 q 384 4 391 8 q 380 -1 381 1 q 377 -7 377 -4 q 370 -16 374 -11 q 368 -24 369 -20 q 362 -33 365 -27 q 335 -88 350 -60 q 323 -115 331 -96 q 321 -117 323 -117 q 321 -118 321 -117 q 315 -126 319 -121 q 311 -130 315 -127 q 311 -130 311 -130 q 309 -132 309 -130 q 305 -134 308 -132 q 304 -187 304 -161 q 300 -241 302 -214 q 298 -243 300 -243 q 297 -239 298 -243 q 294 -227 294 -231 q 292 -179 292 -203 q 289 -130 292 -155 q 283 -123 286 -129 q 281 -123 282 -123 q 281 -122 281 -122 q 271 -106 277 -117 q 267 -98 270 -102 q 264 -88 266 -94 q 262 -79 263 -83 q 256 -69 259 -75 q 244 -33 252 -57 q 243 -24 243 -30 q 240 -18 241 -20 q 237 -46 237 -33 q 235 -75 237 -60 q 232 -73 233 -76 q 229 -68 231 -69 q 224 -60 227 -65 q 213 -41 218 -50 q 201 -23 209 -31 q 197 -20 198 -20 q 190 -31 195 -24 q 183 -35 187 -34 q 174 -41 178 -38 q 167 -49 170 -45 q 159 -57 164 -54 q 146 -58 153 -61 q 140 -56 140 -53 q 142 -104 138 -71 q 151 -171 148 -137 q 152 -221 155 -205 q 134 -224 151 -239 q 117 -168 115 -203 q 123 -99 117 -133 q 130 -43 132 -64 q 125 -35 129 -41 q 122 -27 123 -33 q 119 -24 119 -22 q 119 -53 117 -39 q 114 -77 121 -66 q 110 -76 110 -83 q 111 -56 110 -68 q 111 -38 113 -45 q 102 1 109 -24 q 92 7 96 4 q 76 38 76 18 q 76 935 76 336 q 79 948 76 940 q 92 966 83 962 q 103 971 95 968 q 115 972 107 972 q 334 972 189 972 q 362 967 351 972 q 380 954 373 962 q 397 930 391 944 q 412 905 406 917 q 416 898 414 902 q 422 888 418 895 q 450 850 438 873 q 475 803 463 826 q 477 796 476 800 q 526 716 490 776 q 528 716 528 716 q 528 715 528 715 q 566 655 547 686 q 602 593 585 624 q 620 566 609 583 q 621 564 620 566 q 625 567 621 564 q 625 898 625 650 q 624 918 625 907 q 625 939 624 929 q 628 951 625 945 q 632 958 631 956 q 637 963 633 962 q 640 966 637 963 q 659 972 650 972 q 671 974 665 974 q 681 974 677 974 q 693 972 688 972 q 705 972 700 972 q 898 972 769 972 q 911 972 905 972 q 926 971 920 974 q 943 960 936 967 q 948 948 947 954 q 951 935 951 940 q 952 914 952 925 q 951 894 951 903 q 951 84 951 624 q 954 57 952 71 q 954 52 954 54 q 951 31 954 41 z "},"O":{"ha":1031,"x_min":49,"x_max":982,"o":"m 936 189 q 922 165 929 172 q 906 140 917 157 q 878 109 892 123 q 853 85 869 100 q 850 37 852 61 q 849 -15 850 11 q 849 -41 848 -27 q 844 -65 850 -54 q 838 -56 837 -72 q 838 -30 838 -39 q 837 20 837 -5 q 833 69 836 46 q 817 42 823 58 q 806 11 810 24 q 789 -38 798 -12 q 770 -85 780 -62 q 762 -109 766 -98 q 751 -130 758 -121 q 746 -134 750 -132 q 741 -138 743 -137 q 724 -127 731 -140 q 713 -109 716 -114 q 711 -103 712 -106 q 708 -98 708 -100 q 707 -54 707 -76 q 703 -11 705 -34 q 690 -27 697 -19 q 678 -45 685 -37 q 675 -47 675 -47 q 671 -52 674 -50 q 665 -57 669 -54 q 661 -68 663 -60 q 654 -77 656 -75 q 648 -77 651 -80 q 643 -66 644 -75 q 637 -53 640 -57 q 628 -42 632 -49 q 621 -30 624 -35 q 616 -19 618 -24 q 613 -35 614 -26 q 610 -52 613 -45 q 604 -52 610 -52 q 595 -50 600 -52 q 587 -50 591 -50 q 574 -47 578 -49 q 566 -47 571 -47 q 543 -47 559 -52 q 540 -45 541 -46 q 537 -45 537 -43 q 534 -94 534 -69 q 532 -141 534 -118 q 530 -144 532 -144 q 529 -137 530 -144 q 526 -121 528 -126 q 526 -76 525 -99 q 521 -33 526 -54 q 518 -34 519 -23 q 518 -57 518 -43 q 515 -77 518 -71 q 513 -73 514 -83 q 511 -57 513 -62 q 503 -14 509 -42 q 502 -14 502 -14 q 263 35 363 -11 q 106 170 161 80 q 90 195 96 180 q 79 225 83 212 q 71 244 76 232 q 71 245 71 244 q 65 263 68 254 q 60 279 62 271 q 52 334 54 300 q 49 399 49 366 q 49 453 49 431 q 49 509 49 480 q 50 564 49 537 q 50 575 50 567 q 50 616 50 594 q 56 655 52 636 q 56 659 56 658 q 57 662 57 661 q 107 799 69 739 q 140 845 119 823 q 515 986 266 986 q 544 986 525 986 q 548 985 547 986 q 562 985 556 985 q 574 983 568 985 q 582 985 578 985 q 589 983 585 983 q 613 979 597 982 q 640 975 627 978 q 667 970 652 972 q 701 962 682 968 q 704 960 703 962 q 705 960 704 960 q 727 955 716 959 q 745 945 738 951 q 898 837 833 910 q 932 785 917 818 q 970 686 958 738 q 974 662 974 677 q 978 636 975 654 q 979 605 979 621 q 981 575 981 590 q 982 524 982 555 q 982 463 982 494 q 982 411 982 431 q 981 358 981 385 q 974 305 981 331 q 936 189 964 241 m 457 282 q 475 263 465 271 q 509 256 488 259 q 525 256 514 256 q 534 258 529 258 q 543 259 538 258 q 586 285 570 267 q 598 301 593 292 q 606 321 604 311 q 612 336 609 326 q 617 382 617 359 q 620 422 618 406 q 620 518 620 454 q 620 552 620 534 q 618 586 620 570 q 618 605 618 595 q 617 623 618 614 q 616 628 616 625 q 614 633 616 632 q 612 646 614 637 q 598 674 606 662 q 579 696 590 686 q 578 697 579 696 q 571 700 572 700 q 562 701 568 701 q 559 700 560 701 q 553 697 557 699 q 551 699 552 697 q 547 699 551 699 q 534 692 541 697 q 524 682 528 686 q 515 678 521 681 q 509 673 510 675 q 503 659 503 665 q 491 655 503 654 q 484 658 481 655 q 479 671 486 661 q 475 675 477 674 q 469 678 472 677 q 467 681 471 678 q 460 686 461 685 q 458 686 460 686 q 453 693 458 688 q 452 696 450 697 q 450 694 454 693 q 449 694 450 694 q 449 693 449 694 q 442 686 446 690 q 430 673 438 684 q 418 637 420 654 q 412 602 415 620 q 412 583 412 595 q 411 560 411 571 q 411 453 411 524 q 412 431 411 442 q 414 410 412 420 q 429 342 418 381 q 433 331 430 338 q 445 305 439 316 q 457 282 450 293 z "},"P":{"ha":979,"x_min":76,"x_max":952,"o":"m 952 620 q 948 570 952 594 q 940 521 945 543 q 925 486 935 499 q 921 477 924 481 q 917 471 920 473 q 902 446 910 458 q 884 422 894 433 q 882 419 883 420 q 876 414 879 416 q 867 404 873 411 q 852 391 861 400 q 848 385 849 388 q 845 378 845 380 q 836 357 842 370 q 826 330 830 343 q 814 301 821 315 q 810 292 812 298 q 802 279 806 283 q 795 270 800 275 q 788 267 789 267 q 785 247 787 256 q 783 225 785 236 q 779 218 780 222 q 774 214 777 214 q 772 217 772 213 q 769 224 770 222 q 766 241 766 232 q 760 256 765 251 q 755 252 758 255 q 747 241 753 250 q 734 227 742 233 q 735 172 731 199 q 728 122 739 146 q 722 127 722 111 q 722 167 720 142 q 722 205 724 191 q 719 227 720 224 q 711 239 716 229 q 701 254 705 245 q 689 269 696 263 q 685 256 688 263 q 684 244 684 251 q 681 198 682 229 q 681 133 681 168 q 680 69 681 100 q 678 23 680 39 q 677 7 678 23 q 674 -35 677 -11 q 671 -79 673 -58 q 667 -109 670 -100 q 665 -109 667 -110 q 662 -106 662 -107 q 659 -81 659 -95 q 656 -57 658 -69 q 654 -12 655 -35 q 651 33 652 9 q 648 88 650 60 q 646 144 647 117 q 644 205 644 175 q 640 266 643 235 q 639 269 642 264 q 632 275 635 274 q 625 285 629 281 q 618 296 623 290 q 616 298 617 297 q 613 292 616 297 q 590 273 610 285 q 587 270 589 273 q 585 270 586 269 q 583 277 583 273 q 582 283 582 281 q 579 281 579 283 q 576 259 578 271 q 574 237 576 248 q 568 221 572 229 q 563 203 566 213 q 545 141 557 182 q 541 123 544 133 q 534 107 537 114 q 530 99 533 104 q 524 91 528 94 q 511 98 517 85 q 503 113 506 109 q 499 118 502 115 q 496 123 498 121 q 494 182 495 153 q 490 241 494 212 q 488 243 490 243 q 486 244 487 243 q 476 252 483 247 q 461 269 468 259 q 449 288 456 278 q 441 298 445 293 q 438 297 439 298 q 438 80 438 243 q 439 56 439 68 q 438 31 441 43 q 438 27 438 30 q 437 24 437 26 q 430 15 435 19 q 414 1 425 8 q 403 -15 410 -4 q 396 -22 401 -16 q 391 -26 392 -26 q 388 -64 389 -45 q 385 -100 388 -81 q 384 -126 384 -113 q 381 -152 384 -138 q 380 -163 380 -156 q 377 -168 381 -168 q 374 -168 376 -168 q 372 -161 370 -168 q 370 -151 372 -156 q 366 -111 366 -125 q 365 -84 366 -99 q 358 -49 365 -72 q 345 -62 354 -53 q 343 -62 345 -62 q 339 -65 340 -65 q 338 -71 338 -68 q 335 -75 338 -73 q 332 -72 334 -75 q 330 -68 332 -69 q 326 -75 327 -71 q 323 -81 326 -79 q 321 -85 321 -83 q 317 -91 321 -90 q 312 -83 312 -91 q 311 -71 311 -76 q 307 -58 309 -64 q 307 -57 307 -57 q 305 -56 305 -57 q 296 -46 300 -52 q 288 -35 292 -41 q 277 -19 283 -30 q 274 -16 275 -19 q 271 -12 273 -14 q 267 -9 270 -11 q 263 -18 266 -12 q 244 -43 255 -30 q 218 -61 233 -58 q 203 -50 201 -65 q 203 -19 205 -35 q 194 -27 199 -22 q 190 -33 194 -30 q 189 -34 189 -34 q 186 -35 187 -34 q 184 -42 184 -38 q 180 -49 183 -46 q 174 -50 175 -54 q 171 -41 171 -46 q 168 -31 171 -37 q 164 -27 167 -30 q 160 -22 163 -24 q 152 -9 157 -18 q 151 -19 151 -14 q 148 -26 151 -23 q 141 -23 146 -27 q 136 -19 138 -22 q 121 -7 132 -15 q 111 -7 113 -9 q 106 1 107 1 q 102 1 104 0 q 92 7 96 4 q 76 38 76 18 q 76 929 76 335 q 77 944 76 936 q 83 958 77 951 q 100 970 88 966 q 113 972 109 972 q 119 972 114 972 q 125 972 122 972 q 142 972 134 972 q 282 972 190 972 q 340 972 298 972 q 431 972 382 972 q 522 972 481 974 q 534 972 526 972 q 586 970 562 972 q 635 966 612 968 q 690 959 662 964 q 739 945 719 954 q 764 932 757 939 q 769 929 764 932 q 770 929 769 929 q 770 928 770 929 q 838 888 808 911 q 845 884 844 887 q 852 878 848 882 q 886 844 869 861 q 894 833 890 837 q 903 821 899 827 q 910 808 907 815 q 917 796 914 803 q 944 718 936 758 q 952 629 952 677 q 952 620 952 625 m 430 713 q 430 586 430 682 q 505 624 463 612 q 587 637 545 636 q 576 690 591 667 q 571 697 575 693 q 564 703 567 701 q 557 707 562 704 q 540 708 548 709 q 522 705 530 707 q 503 704 513 704 q 484 704 495 703 q 467 708 475 705 q 448 711 457 709 q 442 712 448 711 q 430 713 438 712 z "},"Q":{"ha":1031,"x_min":47,"x_max":991,"o":"m 991 -64 q 986 -79 991 -73 q 985 -83 986 -80 q 983 -83 983 -84 q 981 -85 982 -84 q 977 -88 979 -85 q 974 -90 975 -90 q 970 -109 972 -95 q 967 -119 968 -114 q 964 -129 966 -123 q 962 -146 963 -134 q 959 -153 962 -159 q 955 -132 954 -142 q 954 -111 956 -121 q 945 -121 949 -117 q 940 -125 940 -125 q 936 -127 939 -125 q 935 -144 936 -130 q 929 -172 932 -159 q 926 -189 928 -186 q 924 -189 926 -190 q 922 -184 922 -186 q 920 -164 920 -171 q 914 -146 921 -157 q 911 -148 913 -148 q 909 -152 911 -149 q 902 -160 906 -155 q 898 -165 901 -163 q 886 -174 894 -168 q 884 -183 884 -178 q 880 -191 883 -187 q 878 -191 879 -193 q 875 -189 875 -190 q 873 -179 873 -183 q 871 -168 872 -174 q 860 -156 867 -164 q 845 -152 849 -153 q 842 -155 842 -155 q 840 -152 841 -155 q 836 -151 838 -151 q 829 -159 830 -156 q 826 -164 826 -164 q 825 -167 825 -165 q 823 -170 825 -168 q 819 -179 822 -172 q 806 -210 814 -194 q 783 -240 799 -227 q 780 -241 781 -240 q 779 -245 779 -243 q 774 -247 777 -247 q 774 -247 774 -247 q 768 -241 773 -248 q 761 -233 761 -233 q 754 -222 757 -229 q 747 -213 750 -217 q 724 -164 735 -189 q 703 -117 713 -140 q 703 -114 703 -115 q 701 -111 701 -113 q 697 -100 700 -106 q 692 -91 694 -96 q 685 -91 689 -91 q 681 -90 684 -91 q 678 -90 680 -90 q 651 -77 661 -85 q 636 -62 642 -69 q 629 -53 632 -58 q 609 -27 623 -45 q 606 -26 606 -26 q 605 -23 606 -24 q 594 -9 602 -19 q 589 -11 589 -9 q 587 -11 587 -11 q 585 -16 586 -12 q 582 -20 583 -19 q 576 -34 579 -30 q 574 -38 575 -35 q 571 -45 574 -42 q 555 -76 566 -56 q 540 -99 547 -90 q 529 -111 537 -103 q 528 -113 529 -111 q 519 -118 525 -115 q 514 -137 518 -123 q 502 -152 511 -151 q 496 -149 499 -152 q 487 -137 490 -144 q 479 -123 483 -129 q 472 -114 476 -118 q 464 -106 468 -110 q 441 -80 452 -95 q 423 -53 430 -66 q 419 -42 422 -47 q 414 -33 416 -38 q 407 -31 410 -33 q 404 -30 406 -31 q 401 -31 403 -30 q 406 -71 400 -46 q 411 -111 411 -95 q 396 -127 412 -129 q 381 -107 381 -125 q 388 -66 382 -91 q 391 -30 393 -45 q 389 -28 391 -27 q 389 -30 389 -30 q 388 -31 388 -30 q 385 -34 388 -31 q 382 -38 384 -35 q 380 -38 381 -41 q 378 -30 378 -35 q 372 -31 374 -30 q 374 -45 374 -39 q 373 -49 374 -47 q 369 -52 370 -52 q 362 -41 362 -52 q 362 -33 362 -38 q 361 -34 361 -34 q 359 -34 359 -34 q 361 -42 361 -38 q 362 -52 361 -47 q 358 -76 365 -69 q 346 -79 353 -81 q 343 -72 345 -76 q 343 -66 343 -68 q 343 -50 342 -58 q 346 -34 345 -42 q 331 -31 342 -34 q 332 -41 332 -35 q 339 -79 335 -58 q 345 -114 345 -99 q 342 -127 345 -123 q 336 -134 339 -130 q 335 -134 335 -134 q 331 -136 334 -136 q 328 -183 330 -160 q 326 -231 328 -208 q 323 -233 326 -232 q 320 -233 320 -235 q 316 -184 316 -210 q 313 -134 316 -160 q 307 -110 307 -129 q 313 -76 308 -95 q 320 -42 317 -58 q 321 -27 320 -37 q 312 -23 315 -24 q 302 -16 309 -20 q 301 -22 301 -18 q 298 -30 300 -26 q 297 -39 297 -33 q 293 -43 296 -46 q 290 -31 289 -39 q 289 -18 292 -23 q 285 -16 288 -16 q 283 -18 283 -15 q 283 -38 282 -24 q 285 -58 285 -50 q 278 -64 286 -66 q 271 -43 267 -61 q 273 -14 275 -26 q 270 -11 273 -12 q 269 -11 269 -9 q 267 -30 267 -18 q 269 -49 269 -42 q 263 -53 269 -57 q 256 -31 252 -46 q 256 -3 259 -15 q 255 1 256 0 q 252 4 254 3 q 247 12 247 11 q 244 18 245 14 q 243 18 241 20 q 240 20 241 19 q 237 22 239 20 q 237 4 237 16 q 240 -22 239 -8 q 241 -46 241 -37 q 241 -53 241 -49 q 237 -58 240 -57 q 229 -52 232 -58 q 225 -41 227 -45 q 224 -37 225 -38 q 224 -34 224 -35 q 222 -16 222 -24 q 225 0 224 -8 q 227 15 227 7 q 228 30 228 22 q 225 34 227 31 q 224 39 225 37 q 222 37 222 38 q 221 33 222 35 q 221 31 221 31 q 220 31 221 31 q 217 42 218 38 q 216 46 216 47 q 214 47 216 47 q 214 49 214 47 q 213 47 213 49 q 213 46 213 46 q 212 43 212 45 q 213 39 213 42 q 214 30 213 38 q 212 14 216 20 q 209 12 212 9 q 206 18 208 14 q 205 23 205 22 q 205 35 203 30 q 206 46 206 41 q 206 54 206 49 q 203 57 205 54 q 203 37 203 52 q 199 34 203 31 q 197 37 198 35 q 194 39 195 38 q 187 49 191 42 q 186 62 183 57 q 186 64 186 64 q 184 65 184 64 q 182 72 184 68 q 179 79 180 73 q 174 85 176 83 q 163 96 168 92 q 155 107 159 102 q 121 144 136 123 q 96 184 107 160 q 69 247 80 214 q 54 317 58 281 q 53 323 53 320 q 52 338 52 327 q 49 351 50 345 q 49 363 49 358 q 49 378 49 370 q 47 395 49 387 q 47 509 47 433 q 47 555 47 530 q 49 604 47 579 q 50 614 50 610 q 50 623 50 618 q 57 686 53 656 q 72 730 62 715 q 83 754 76 742 q 95 779 90 766 q 102 793 98 787 q 110 806 106 800 q 193 894 141 857 q 214 910 203 903 q 237 924 227 918 q 255 933 245 929 q 274 941 264 937 q 283 945 279 944 q 293 948 289 947 q 296 949 294 949 q 330 962 311 958 q 365 971 347 967 q 372 971 368 971 q 380 974 374 972 q 408 979 393 977 q 437 983 422 982 q 450 983 441 983 q 481 986 465 985 q 514 986 498 986 q 536 986 525 986 q 557 985 547 986 q 570 985 566 987 q 583 983 576 983 q 598 982 590 983 q 621 979 610 981 q 644 975 633 978 q 692 964 669 970 q 735 948 716 959 q 829 901 787 929 q 902 830 871 871 q 902 829 902 829 q 903 827 903 829 q 911 818 907 822 q 918 806 916 812 q 940 766 929 789 q 966 701 958 749 q 970 680 967 694 q 978 617 977 655 q 979 543 979 579 q 979 521 979 536 q 981 505 981 513 q 981 490 981 498 q 981 437 981 469 q 979 370 981 403 q 975 326 978 347 q 970 292 974 304 q 968 285 968 289 q 967 279 968 282 q 954 235 963 255 q 945 213 949 224 q 936 191 941 201 q 932 182 935 186 q 925 171 928 176 q 910 149 918 160 q 894 127 903 137 q 886 119 890 123 q 882 114 882 114 q 871 103 871 103 q 875 107 871 104 q 882 104 880 110 q 884 102 882 104 q 890 94 887 99 q 895 84 892 90 q 902 76 899 80 q 907 68 903 73 q 907 66 907 66 q 909 65 909 66 q 921 49 913 60 q 925 42 922 47 q 936 26 928 38 q 948 9 943 18 q 960 -8 954 1 q 963 -11 960 -8 q 977 -30 970 -20 q 987 -47 983 -38 q 990 -50 989 -50 q 990 -56 990 -52 q 991 -64 991 -57 m 517 256 q 524 256 518 256 q 538 259 530 258 q 555 264 547 262 q 589 309 575 277 q 610 377 602 342 q 618 433 618 412 q 618 555 618 473 q 617 576 618 566 q 617 600 617 589 q 610 644 616 623 q 591 684 605 665 q 586 689 589 686 q 578 696 582 693 q 576 696 578 696 q 574 693 575 694 q 571 692 574 693 q 553 684 564 689 q 551 682 552 682 q 547 681 548 682 q 545 673 545 678 q 541 665 544 669 q 534 662 540 662 q 525 659 528 661 q 515 661 522 659 q 507 663 510 661 q 506 669 506 665 q 468 682 484 673 q 453 692 461 686 q 449 694 450 694 q 448 694 448 694 q 420 656 431 681 q 411 605 414 635 q 411 602 411 605 q 411 586 411 594 q 410 570 410 578 q 410 494 410 544 q 410 480 408 487 q 410 467 410 473 q 410 444 410 458 q 418 384 410 422 q 439 311 425 346 q 473 263 454 277 q 477 262 476 263 q 480 262 479 262 q 490 259 486 259 q 500 258 495 258 q 509 256 505 256 q 517 256 513 256 m 217 14 q 221 31 213 19 q 221 26 221 30 q 221 20 222 23 q 221 16 221 20 q 220 14 221 14 q 217 14 218 12 z "}}}
